M48
; DRILL file {KiCad 9.0.6} date 2025-11-25T21:03:28+0000
; FORMAT={-:-/ absolute / metric / decimal}
; #@! TF.CreationDate,2025-11-25T21:03:28+00:00
; #@! TF.GenerationSoftware,Kicad,Pcbnew,9.0.6
; #@! TF.FileFunction,Plated,1,2,PTH
FMAT,2
METRIC
; #@! TA.AperFunction,Plated,PTH,ViaDrill
T1C0.600
; #@! TA.AperFunction,Plated,PTH,ComponentDrill
T2C0.800
; #@! TA.AperFunction,Plated,PTH,ComponentDrill
T3C1.000
%
G90
G05
T1
X63.5Y-47.0
X66.0Y-43.5
T2
X52.19Y-39.5
X52.19Y-45.0
X52.19Y-50.5
X52.19Y-56.0
X52.19Y-61.5
X52.19Y-67.0
X59.81Y-39.5
X59.81Y-45.0
X59.81Y-50.5
X59.81Y-56.0
X59.81Y-61.5
X59.81Y-67.0
T3
X68.5Y-39.61
X68.5Y-42.15
X68.5Y-44.69
X68.5Y-47.23
X68.5Y-49.77
X68.5Y-52.31
X68.5Y-54.85
X68.5Y-57.39
M30
