%TF.GenerationSoftware,KiCad,Pcbnew,9.0.5*%
%TF.CreationDate,2025-10-04T13:36:39+01:00*%
%TF.ProjectId,piso,7069736f-2e6b-4696-9361-645f70636258,rev?*%
%TF.SameCoordinates,Original*%
%TF.FileFunction,Copper,L1,Top*%
%TF.FilePolarity,Positive*%
%FSLAX46Y46*%
G04 Gerber Fmt 4.6, Leading zero omitted, Abs format (unit mm)*
G04 Created by KiCad (PCBNEW 9.0.5) date 2025-10-04 13:36:39*
%MOMM*%
%LPD*%
G01*
G04 APERTURE LIST*
G04 Aperture macros list*
%AMRoundRect*
0 Rectangle with rounded corners*
0 $1 Rounding radius*
0 $2 $3 $4 $5 $6 $7 $8 $9 X,Y pos of 4 corners*
0 Add a 4 corners polygon primitive as box body*
4,1,4,$2,$3,$4,$5,$6,$7,$8,$9,$2,$3,0*
0 Add four circle primitives for the rounded corners*
1,1,$1+$1,$2,$3*
1,1,$1+$1,$4,$5*
1,1,$1+$1,$6,$7*
1,1,$1+$1,$8,$9*
0 Add four rect primitives between the rounded corners*
20,1,$1+$1,$2,$3,$4,$5,0*
20,1,$1+$1,$4,$5,$6,$7,0*
20,1,$1+$1,$6,$7,$8,$9,0*
20,1,$1+$1,$8,$9,$2,$3,0*%
G04 Aperture macros list end*
%TA.AperFunction,ComponentPad*%
%ADD10C,1.600000*%
%TD*%
%TA.AperFunction,ComponentPad*%
%ADD11RoundRect,0.250000X-0.550000X-0.550000X0.550000X-0.550000X0.550000X0.550000X-0.550000X0.550000X0*%
%TD*%
%TA.AperFunction,ComponentPad*%
%ADD12R,1.700000X1.700000*%
%TD*%
%TA.AperFunction,ComponentPad*%
%ADD13C,1.700000*%
%TD*%
%TA.AperFunction,ViaPad*%
%ADD14C,0.600000*%
%TD*%
%TA.AperFunction,Conductor*%
%ADD15C,0.200000*%
%TD*%
G04 APERTURE END LIST*
D10*
%TO.P,R3,1*%
%TO.N,+3.3V*%
X134190000Y-68100000D03*
%TO.P,R3,2*%
%TO.N,Net-(J1-Pin_5)*%
X141810000Y-68100000D03*
%TD*%
%TO.P,R4,1*%
%TO.N,+3.3V*%
X134190000Y-72150000D03*
%TO.P,R4,2*%
%TO.N,Net-(J1-Pin_7)*%
X141810000Y-72150000D03*
%TD*%
D11*
%TO.P,U1,1,~{PL}*%
%TO.N,Net-(J3-Pin_5)*%
X152880000Y-60000000D03*
D10*
%TO.P,U1,2,CP*%
%TO.N,Net-(J3-Pin_4)*%
X152880000Y-62540000D03*
%TO.P,U1,3,D4*%
%TO.N,Net-(J2-Pin_1)*%
X152880000Y-65080000D03*
%TO.P,U1,4,D5*%
%TO.N,Net-(J2-Pin_3)*%
X152880000Y-67620000D03*
%TO.P,U1,5,D6*%
%TO.N,Net-(J2-Pin_5)*%
X152880000Y-70160000D03*
%TO.P,U1,6,D7*%
%TO.N,Net-(J2-Pin_7)*%
X152880000Y-72700000D03*
%TO.P,U1,7,~{Q7}*%
%TO.N,unconnected-(U1-~{Q7}-Pad7)*%
X152880000Y-75240000D03*
%TO.P,U1,8,GND*%
%TO.N,GND*%
X152880000Y-77780000D03*
%TO.P,U1,9,Q7*%
%TO.N,Net-(J3-Pin_3)*%
X160500000Y-77780000D03*
%TO.P,U1,10,DS*%
%TO.N,Net-(J3-Pin_6)*%
X160500000Y-75240000D03*
%TO.P,U1,11,D0*%
%TO.N,Net-(J1-Pin_1)*%
X160500000Y-72700000D03*
%TO.P,U1,12,D1*%
%TO.N,Net-(J1-Pin_3)*%
X160500000Y-70160000D03*
%TO.P,U1,13,D2*%
%TO.N,Net-(J1-Pin_5)*%
X160500000Y-67620000D03*
%TO.P,U1,14,D3*%
%TO.N,Net-(J1-Pin_7)*%
X160500000Y-65080000D03*
%TO.P,U1,15,~{CE}*%
%TO.N,GND*%
X160500000Y-62540000D03*
%TO.P,U1,16,VCC*%
%TO.N,+3.3V*%
X160500000Y-60000000D03*
%TD*%
%TO.P,R6,1*%
%TO.N,+3.3V*%
X134190000Y-80250000D03*
%TO.P,R6,2*%
%TO.N,Net-(J2-Pin_3)*%
X141810000Y-80250000D03*
%TD*%
%TO.P,R7,1*%
%TO.N,+3.3V*%
X134190000Y-84300000D03*
%TO.P,R7,2*%
%TO.N,Net-(J2-Pin_5)*%
X141810000Y-84300000D03*
%TD*%
D12*
%TO.P,J1,1,Pin_1*%
%TO.N,Net-(J1-Pin_1)*%
X133720000Y-94000000D03*
D13*
%TO.P,J1,2,Pin_2*%
%TO.N,GND*%
X136260000Y-94000000D03*
%TO.P,J1,3,Pin_3*%
%TO.N,Net-(J1-Pin_3)*%
X138800000Y-94000000D03*
%TO.P,J1,4,Pin_4*%
%TO.N,GND*%
X141340000Y-94000000D03*
%TO.P,J1,5,Pin_5*%
%TO.N,Net-(J1-Pin_5)*%
X143880000Y-94000000D03*
%TO.P,J1,6,Pin_6*%
%TO.N,GND*%
X146420000Y-94000000D03*
%TO.P,J1,7,Pin_7*%
%TO.N,Net-(J1-Pin_7)*%
X148960000Y-94000000D03*
%TO.P,J1,8,Pin_8*%
%TO.N,GND*%
X151500000Y-94000000D03*
%TD*%
D10*
%TO.P,R5,1*%
%TO.N,+3.3V*%
X134190000Y-76200000D03*
%TO.P,R5,2*%
%TO.N,Net-(J2-Pin_1)*%
X141810000Y-76200000D03*
%TD*%
%TO.P,R2,1*%
%TO.N,+3.3V*%
X134190000Y-64050000D03*
%TO.P,R2,2*%
%TO.N,Net-(J1-Pin_3)*%
X141810000Y-64050000D03*
%TD*%
%TO.P,R8,1*%
%TO.N,+3.3V*%
X134190000Y-88350000D03*
%TO.P,R8,2*%
%TO.N,Net-(J2-Pin_7)*%
X141810000Y-88350000D03*
%TD*%
D12*
%TO.P,J3,1,Pin_1*%
%TO.N,+3.3V*%
X172000000Y-60000000D03*
D13*
%TO.P,J3,2,Pin_2*%
%TO.N,GND*%
X172000000Y-62540000D03*
%TO.P,J3,3,Pin_3*%
%TO.N,Net-(J3-Pin_3)*%
X172000000Y-65080000D03*
%TO.P,J3,4,Pin_4*%
%TO.N,Net-(J3-Pin_4)*%
X172000000Y-67620000D03*
%TO.P,J3,5,Pin_5*%
%TO.N,Net-(J3-Pin_5)*%
X172000000Y-70160000D03*
%TO.P,J3,6,Pin_6*%
%TO.N,Net-(J3-Pin_6)*%
X172000000Y-72700000D03*
%TO.P,J3,7,Pin_7*%
%TO.N,+3.3V*%
X172000000Y-75240000D03*
%TO.P,J3,8,Pin_8*%
X172000000Y-77780000D03*
%TD*%
D10*
%TO.P,R1,1*%
%TO.N,+3.3V*%
X134190000Y-60000000D03*
%TO.P,R1,2*%
%TO.N,Net-(J1-Pin_1)*%
X141810000Y-60000000D03*
%TD*%
D12*
%TO.P,J2,1,Pin_1*%
%TO.N,Net-(J2-Pin_1)*%
X157650000Y-94000000D03*
D13*
%TO.P,J2,2,Pin_2*%
%TO.N,GND*%
X160190000Y-94000000D03*
%TO.P,J2,3,Pin_3*%
%TO.N,Net-(J2-Pin_3)*%
X162730000Y-94000000D03*
%TO.P,J2,4,Pin_4*%
%TO.N,GND*%
X165270000Y-94000000D03*
%TO.P,J2,5,Pin_5*%
%TO.N,Net-(J2-Pin_5)*%
X167810000Y-94000000D03*
%TO.P,J2,6,Pin_6*%
%TO.N,GND*%
X170350000Y-94000000D03*
%TO.P,J2,7,Pin_7*%
%TO.N,Net-(J2-Pin_7)*%
X172890000Y-94000000D03*
%TO.P,J2,8,Pin_8*%
%TO.N,GND*%
X175430000Y-94000000D03*
%TD*%
D11*
%TO.P,C1,1*%
%TO.N,+3.3V*%
X170803631Y-85000000D03*
D10*
%TO.P,C1,2*%
%TO.N,GND*%
X173303631Y-85000000D03*
%TD*%
D14*
%TO.N,Net-(J1-Pin_1)*%
X159500000Y-87500000D03*
X147000000Y-57000000D03*
X152500000Y-52000000D03*
X167500000Y-59000000D03*
X160500000Y-85500000D03*
%TO.N,+3.3V*%
X174000000Y-61000000D03*
%TO.N,Net-(J1-Pin_3)*%
X149000000Y-87500000D03*
X146500000Y-90500000D03*
X166500000Y-59000000D03*
X148500000Y-57000000D03*
X143500000Y-90500000D03*
X149000000Y-85500000D03*
X152500000Y-53000000D03*
%TO.N,Net-(J1-Pin_5)*%
X147500000Y-88000000D03*
X148000000Y-83500000D03*
X146000000Y-69500000D03*
X150000000Y-57000000D03*
X153000000Y-54000000D03*
X165000000Y-59000000D03*
%TO.N,Net-(J1-Pin_7)*%
X144500000Y-55000000D03*
X153500000Y-57000000D03*
X163500000Y-59000000D03*
X155500000Y-55000000D03*
X149500000Y-61000000D03*
%TO.N,Net-(J2-Pin_1)*%
X157500000Y-91000000D03*
X149250000Y-65750000D03*
X150000000Y-83500000D03*
%TO.N,Net-(J2-Pin_3)*%
X147000000Y-78000000D03*
X144000000Y-78000000D03*
X151000000Y-81000000D03*
X159500000Y-89500000D03*
X153500000Y-83500000D03*
%TO.N,Net-(J2-Pin_5)*%
X145000000Y-83500000D03*
%TO.N,Net-(J3-Pin_4)*%
X169500000Y-67000000D03*
%TO.N,GND*%
X161000000Y-84000000D03*
%TO.N,Net-(J3-Pin_5)*%
X169000000Y-70000000D03*
X157500000Y-60000000D03*
%TO.N,Net-(J3-Pin_6)*%
X169000000Y-73000000D03*
X167000000Y-72500000D03*
%TD*%
D15*
%TO.N,Net-(J1-Pin_1)*%
X162000000Y-52000000D02*
X167000000Y-57000000D01*
X159500000Y-86500000D02*
X159500000Y-87500000D01*
X146500000Y-57500000D02*
X147000000Y-57000000D01*
X161500000Y-52000000D02*
X162000000Y-52000000D01*
X146500000Y-59500000D02*
X146500000Y-58000000D01*
X146000000Y-60000000D02*
X146500000Y-59500000D01*
X167500000Y-57500000D02*
X167500000Y-59000000D01*
X167000000Y-57000000D02*
X167500000Y-57500000D01*
X152500000Y-52000000D02*
X161500000Y-52000000D01*
X146500000Y-58000000D02*
X146500000Y-57500000D01*
X141810000Y-60000000D02*
X146000000Y-60000000D01*
X160500000Y-85500000D02*
X159500000Y-86500000D01*
%TO.N,+3.3V*%
X133000000Y-81440000D02*
X133000000Y-83110000D01*
X133000000Y-79060000D02*
X134190000Y-80250000D01*
X134190000Y-60000000D02*
X134190000Y-57810000D01*
X133000000Y-60500000D02*
X133000000Y-62860000D01*
X133000000Y-87160000D02*
X133000000Y-85490000D01*
X174000000Y-76000000D02*
X174000000Y-77000000D01*
X133000000Y-70960000D02*
X134190000Y-72150000D01*
X173240000Y-75240000D02*
X174000000Y-76000000D01*
X160500000Y-58000000D02*
X160500000Y-60000000D01*
X133000000Y-67000000D02*
X133000000Y-65240000D01*
X134190000Y-68100000D02*
X133000000Y-69290000D01*
X133000000Y-85490000D02*
X134190000Y-84300000D01*
X134190000Y-72150000D02*
X133000000Y-73340000D01*
X133000000Y-73340000D02*
X133000000Y-75010000D01*
X169500000Y-79500000D02*
X169500000Y-83696369D01*
X174000000Y-77000000D02*
X173220000Y-77780000D01*
X134190000Y-88350000D02*
X133000000Y-87160000D01*
X133000000Y-75010000D02*
X134190000Y-76200000D01*
X169500000Y-83696369D02*
X170803631Y-85000000D01*
X134190000Y-80250000D02*
X133000000Y-81440000D01*
X171220000Y-77780000D02*
X169500000Y-79500000D01*
X133500000Y-60000000D02*
X133000000Y-60500000D01*
X133000000Y-65240000D02*
X134190000Y-64050000D01*
X136000000Y-56000000D02*
X158500000Y-56000000D01*
X133000000Y-62860000D02*
X134190000Y-64050000D01*
X134100000Y-68100000D02*
X133000000Y-67000000D01*
X134190000Y-76200000D02*
X133000000Y-77390000D01*
X173000000Y-60000000D02*
X174000000Y-61000000D01*
X134190000Y-68100000D02*
X134100000Y-68100000D01*
X134190000Y-57810000D02*
X136000000Y-56000000D01*
X133000000Y-77390000D02*
X133000000Y-79060000D01*
X133000000Y-69290000D02*
X133000000Y-70960000D01*
X172000000Y-77780000D02*
X171220000Y-77780000D01*
X133000000Y-83110000D02*
X134190000Y-84300000D01*
X158500000Y-56000000D02*
X160500000Y-58000000D01*
X172000000Y-60000000D02*
X173000000Y-60000000D01*
X172000000Y-75240000D02*
X173240000Y-75240000D01*
X173220000Y-77780000D02*
X172000000Y-77780000D01*
X172000000Y-60000000D02*
X160500000Y-60000000D01*
X134190000Y-60000000D02*
X133500000Y-60000000D01*
%TO.N,Net-(J1-Pin_3)*%
X141810000Y-64050000D02*
X145950000Y-64050000D01*
X152500000Y-53000000D02*
X160500000Y-53000000D01*
X166500000Y-58500000D02*
X166500000Y-59000000D01*
X145950000Y-64050000D02*
X146500000Y-63500000D01*
X146500000Y-90500000D02*
X143500000Y-90500000D01*
X147500000Y-62500000D02*
X147500000Y-58000000D01*
X160500000Y-53000000D02*
X161000000Y-53000000D01*
X161000000Y-53000000D02*
X166500000Y-58500000D01*
X149000000Y-85500000D02*
X149000000Y-87500000D01*
X146500000Y-63500000D02*
X147500000Y-62500000D01*
X147500000Y-58000000D02*
X148500000Y-57000000D01*
%TO.N,Net-(J1-Pin_5)*%
X148500000Y-58500000D02*
X150000000Y-57000000D01*
X141810000Y-68100000D02*
X145900000Y-68100000D01*
X148500000Y-63000000D02*
X148500000Y-58500000D01*
X148000000Y-87500000D02*
X148000000Y-83500000D01*
X145900000Y-69400000D02*
X145900000Y-68100000D01*
X146500000Y-67500000D02*
X146500000Y-65000000D01*
X153000000Y-54000000D02*
X160500000Y-54000000D01*
X145900000Y-68100000D02*
X146500000Y-67500000D01*
X146000000Y-69500000D02*
X145900000Y-69400000D01*
X165000000Y-58500000D02*
X165000000Y-59000000D01*
X146500000Y-65000000D02*
X148500000Y-63000000D01*
X147500000Y-88000000D02*
X148000000Y-87500000D01*
X160500000Y-54000000D02*
X165000000Y-58500000D01*
%TO.N,Net-(J1-Pin_7)*%
X151000000Y-57500000D02*
X153000000Y-57500000D01*
X129500000Y-96000000D02*
X129500000Y-58000000D01*
X149500000Y-61000000D02*
X149500000Y-59000000D01*
X163500000Y-58500000D02*
X163500000Y-59000000D01*
X153000000Y-57500000D02*
X153500000Y-57000000D01*
X141810000Y-72150000D02*
X144350000Y-72150000D01*
X160000000Y-55000000D02*
X163500000Y-58500000D01*
X147500000Y-65500000D02*
X149500000Y-63500000D01*
X129500000Y-58000000D02*
X132500000Y-55000000D01*
X144350000Y-72150000D02*
X147500000Y-69000000D01*
X148960000Y-94000000D02*
X144460000Y-98500000D01*
X144460000Y-98500000D02*
X132000000Y-98500000D01*
X147500000Y-69000000D02*
X147500000Y-65500000D01*
X132000000Y-98500000D02*
X129500000Y-96000000D01*
X149500000Y-63500000D02*
X149500000Y-61000000D01*
X132500000Y-55000000D02*
X144500000Y-55000000D01*
X155500000Y-55000000D02*
X160000000Y-55000000D01*
X149500000Y-59000000D02*
X151000000Y-57500000D01*
%TO.N,Net-(J2-Pin_1)*%
X148500000Y-69510000D02*
X148500000Y-66500000D01*
X149920000Y-65080000D02*
X152880000Y-65080000D01*
X148500000Y-66500000D02*
X149250000Y-65750000D01*
X157500000Y-91000000D02*
X150000000Y-83500000D01*
X149250000Y-65750000D02*
X149920000Y-65080000D01*
X141810000Y-76200000D02*
X148500000Y-69510000D01*
%TO.N,Net-(J2-Pin_3)*%
X144000000Y-75500000D02*
X149500000Y-70000000D01*
X149500000Y-70000000D02*
X149500000Y-68500000D01*
X148000000Y-78000000D02*
X147000000Y-78000000D01*
X149500000Y-68500000D02*
X150380000Y-67620000D01*
X159500000Y-89500000D02*
X153500000Y-83500000D01*
X144000000Y-78060000D02*
X144000000Y-78000000D01*
X144000000Y-78000000D02*
X144000000Y-75500000D01*
X151000000Y-81000000D02*
X148000000Y-78000000D01*
X141810000Y-80250000D02*
X144000000Y-78060000D01*
X150380000Y-67620000D02*
X152880000Y-67620000D01*
%TO.N,Net-(J2-Pin_5)*%
X145000000Y-83500000D02*
X144305000Y-82805000D01*
X145000000Y-81110000D02*
X145000000Y-76000000D01*
X145000000Y-76000000D02*
X150840000Y-70160000D01*
X144305000Y-82805000D02*
X143305000Y-82805000D01*
X141810000Y-84300000D02*
X143305000Y-82805000D01*
X143305000Y-82805000D02*
X145000000Y-81110000D01*
X150840000Y-70160000D02*
X152880000Y-70160000D01*
%TO.N,Net-(J2-Pin_7)*%
X172890000Y-94000000D02*
X161390000Y-82500000D01*
X146000000Y-84160000D02*
X146000000Y-76500000D01*
X161390000Y-82500000D02*
X147660000Y-82500000D01*
X147660000Y-82500000D02*
X146000000Y-84160000D01*
X141810000Y-88350000D02*
X146000000Y-84160000D01*
X146000000Y-76500000D02*
X149800000Y-72700000D01*
X149800000Y-72700000D02*
X152880000Y-72700000D01*
%TO.N,Net-(J3-Pin_4)*%
X170120000Y-67620000D02*
X169500000Y-67000000D01*
X172000000Y-67620000D02*
X170120000Y-67620000D01*
%TO.N,GND*%
X174540000Y-62540000D02*
X175000000Y-63000000D01*
X138260000Y-92000000D02*
X136260000Y-94000000D01*
X165270000Y-92730000D02*
X165270000Y-94000000D01*
X174000000Y-85000000D02*
X173303631Y-85000000D01*
X144420000Y-92000000D02*
X143340000Y-92000000D01*
X153500000Y-92000000D02*
X159380000Y-92000000D01*
X161000000Y-84000000D02*
X162500000Y-85500000D01*
X159380000Y-92000000D02*
X160190000Y-92810000D01*
X151500000Y-94000000D02*
X149500000Y-92000000D01*
X164540000Y-92000000D02*
X165270000Y-92730000D01*
X170350000Y-94000000D02*
X170350000Y-94850000D01*
X175000000Y-83303631D02*
X173303631Y-85000000D01*
X162500000Y-85500000D02*
X162500000Y-87500000D01*
X174000000Y-95500000D02*
X174000000Y-95430000D01*
X166000000Y-92000000D02*
X165270000Y-92730000D01*
X162500000Y-87500000D02*
X166000000Y-91000000D01*
X166000000Y-91000000D02*
X166000000Y-92000000D01*
X160190000Y-92810000D02*
X161000000Y-92000000D01*
X170350000Y-94850000D02*
X171000000Y-95500000D01*
X175430000Y-94000000D02*
X175430000Y-86430000D01*
X143340000Y-92000000D02*
X141340000Y-94000000D01*
X168350000Y-92000000D02*
X166000000Y-92000000D01*
X146420000Y-94000000D02*
X144420000Y-92000000D01*
X139340000Y-92000000D02*
X138260000Y-92000000D01*
X172000000Y-62540000D02*
X174540000Y-62540000D01*
X160190000Y-94000000D02*
X160190000Y-92810000D01*
X175000000Y-63000000D02*
X175000000Y-83303631D01*
X149500000Y-92000000D02*
X148420000Y-92000000D01*
X161000000Y-92000000D02*
X164540000Y-92000000D01*
X148420000Y-92000000D02*
X146420000Y-94000000D01*
X174000000Y-95430000D02*
X175430000Y-94000000D01*
X171000000Y-95500000D02*
X174000000Y-95500000D01*
X175430000Y-86430000D02*
X174000000Y-85000000D01*
X151500000Y-94000000D02*
X153500000Y-92000000D01*
X170350000Y-94000000D02*
X168350000Y-92000000D01*
X172000000Y-62540000D02*
X160500000Y-62540000D01*
X141340000Y-94000000D02*
X139340000Y-92000000D01*
%TO.N,Net-(J3-Pin_5)*%
X172000000Y-70160000D02*
X169160000Y-70160000D01*
X157500000Y-60000000D02*
X152880000Y-60000000D01*
X169160000Y-70160000D02*
X169000000Y-70000000D01*
%TO.N,Net-(J3-Pin_6)*%
X160500000Y-75240000D02*
X164260000Y-75240000D01*
X164260000Y-75240000D02*
X167000000Y-72500000D01*
X171700000Y-73000000D02*
X172000000Y-72700000D01*
X169000000Y-73000000D02*
X171700000Y-73000000D01*
%TO.N,Net-(J3-Pin_3)*%
X169920000Y-65080000D02*
X172000000Y-65080000D01*
X168000000Y-67000000D02*
X169920000Y-65080000D01*
X163220000Y-77780000D02*
X168000000Y-73000000D01*
X168000000Y-73000000D02*
X168000000Y-67000000D01*
X160500000Y-77780000D02*
X163220000Y-77780000D01*
%TD*%
M02*
