M48
; DRILL file {KiCad 9.0.5} date 2025-10-04T13:36:34+0100
; FORMAT={-:-/ absolute / metric / decimal}
; #@! TF.CreationDate,2025-10-04T13:36:34+01:00
; #@! TF.GenerationSoftware,Kicad,Pcbnew,9.0.5
; #@! TF.FileFunction,Plated,1,2,PTH
FMAT,2
METRIC
; #@! TA.AperFunction,Plated,PTH,ViaDrill
T1C0.300
; #@! TA.AperFunction,Plated,PTH,ComponentDrill
T2C0.800
; #@! TA.AperFunction,Plated,PTH,ComponentDrill
T3C1.000
%
G90
G05
T1
X143.5Y-90.5
X144.0Y-78.0
X144.5Y-55.0
X145.0Y-83.5
X146.0Y-69.5
X146.5Y-90.5
X147.0Y-57.0
X147.0Y-78.0
X147.5Y-88.0
X148.0Y-83.5
X148.5Y-57.0
X149.0Y-85.5
X149.0Y-87.5
X149.25Y-65.75
X149.5Y-61.0
X150.0Y-57.0
X150.0Y-83.5
X151.0Y-81.0
X152.5Y-52.0
X152.5Y-53.0
X153.0Y-54.0
X153.5Y-57.0
X153.5Y-83.5
X155.5Y-55.0
X157.5Y-60.0
X157.5Y-91.0
X159.5Y-87.5
X159.5Y-89.5
X160.5Y-85.5
X161.0Y-84.0
X163.5Y-59.0
X165.0Y-59.0
X166.5Y-59.0
X167.0Y-72.5
X167.5Y-59.0
X169.0Y-70.0
X169.0Y-73.0
X169.5Y-67.0
X174.0Y-61.0
T2
X134.19Y-60.0
X134.19Y-64.05
X134.19Y-68.1
X134.19Y-72.15
X134.19Y-76.2
X134.19Y-80.25
X134.19Y-84.3
X134.19Y-88.35
X141.81Y-60.0
X141.81Y-64.05
X141.81Y-68.1
X141.81Y-72.15
X141.81Y-76.2
X141.81Y-80.25
X141.81Y-84.3
X141.81Y-88.35
X152.88Y-60.0
X152.88Y-62.54
X152.88Y-65.08
X152.88Y-67.62
X152.88Y-70.16
X152.88Y-72.7
X152.88Y-75.24
X152.88Y-77.78
X160.5Y-60.0
X160.5Y-62.54
X160.5Y-65.08
X160.5Y-67.62
X160.5Y-70.16
X160.5Y-72.7
X160.5Y-75.24
X160.5Y-77.78
X170.804Y-85.0
X173.304Y-85.0
T3
X133.72Y-94.0
X136.26Y-94.0
X138.8Y-94.0
X141.34Y-94.0
X143.88Y-94.0
X146.42Y-94.0
X148.96Y-94.0
X151.5Y-94.0
X157.65Y-94.0
X160.19Y-94.0
X162.73Y-94.0
X165.27Y-94.0
X167.81Y-94.0
X170.35Y-94.0
X172.0Y-60.0
X172.0Y-62.54
X172.0Y-65.08
X172.0Y-67.62
X172.0Y-70.16
X172.0Y-72.7
X172.0Y-75.24
X172.0Y-77.78
X172.89Y-94.0
X175.43Y-94.0
M30
