%TF.GenerationSoftware,KiCad,Pcbnew,9.0.5*%
%TF.CreationDate,2025-10-04T13:36:39+01:00*%
%TF.ProjectId,piso,7069736f-2e6b-4696-9361-645f70636258,rev?*%
%TF.SameCoordinates,Original*%
%TF.FileFunction,Copper,L2,Bot*%
%TF.FilePolarity,Positive*%
%FSLAX46Y46*%
G04 Gerber Fmt 4.6, Leading zero omitted, Abs format (unit mm)*
G04 Created by KiCad (PCBNEW 9.0.5) date 2025-10-04 13:36:39*
%MOMM*%
%LPD*%
G01*
G04 APERTURE LIST*
G04 Aperture macros list*
%AMRoundRect*
0 Rectangle with rounded corners*
0 $1 Rounding radius*
0 $2 $3 $4 $5 $6 $7 $8 $9 X,Y pos of 4 corners*
0 Add a 4 corners polygon primitive as box body*
4,1,4,$2,$3,$4,$5,$6,$7,$8,$9,$2,$3,0*
0 Add four circle primitives for the rounded corners*
1,1,$1+$1,$2,$3*
1,1,$1+$1,$4,$5*
1,1,$1+$1,$6,$7*
1,1,$1+$1,$8,$9*
0 Add four rect primitives between the rounded corners*
20,1,$1+$1,$2,$3,$4,$5,0*
20,1,$1+$1,$4,$5,$6,$7,0*
20,1,$1+$1,$6,$7,$8,$9,0*
20,1,$1+$1,$8,$9,$2,$3,0*%
G04 Aperture macros list end*
%TA.AperFunction,ComponentPad*%
%ADD10C,1.600000*%
%TD*%
%TA.AperFunction,ComponentPad*%
%ADD11RoundRect,0.250000X-0.550000X-0.550000X0.550000X-0.550000X0.550000X0.550000X-0.550000X0.550000X0*%
%TD*%
%TA.AperFunction,ComponentPad*%
%ADD12R,1.700000X1.700000*%
%TD*%
%TA.AperFunction,ComponentPad*%
%ADD13C,1.700000*%
%TD*%
%TA.AperFunction,ViaPad*%
%ADD14C,0.600000*%
%TD*%
%TA.AperFunction,Conductor*%
%ADD15C,0.200000*%
%TD*%
G04 APERTURE END LIST*
D10*
%TO.P,R3,1*%
%TO.N,+3.3V*%
X134190000Y-68100000D03*
%TO.P,R3,2*%
%TO.N,Net-(J1-Pin_5)*%
X141810000Y-68100000D03*
%TD*%
%TO.P,R4,1*%
%TO.N,+3.3V*%
X134190000Y-72150000D03*
%TO.P,R4,2*%
%TO.N,Net-(J1-Pin_7)*%
X141810000Y-72150000D03*
%TD*%
D11*
%TO.P,U1,1,~{PL}*%
%TO.N,Net-(J3-Pin_5)*%
X152880000Y-60000000D03*
D10*
%TO.P,U1,2,CP*%
%TO.N,Net-(J3-Pin_4)*%
X152880000Y-62540000D03*
%TO.P,U1,3,D4*%
%TO.N,Net-(J2-Pin_1)*%
X152880000Y-65080000D03*
%TO.P,U1,4,D5*%
%TO.N,Net-(J2-Pin_3)*%
X152880000Y-67620000D03*
%TO.P,U1,5,D6*%
%TO.N,Net-(J2-Pin_5)*%
X152880000Y-70160000D03*
%TO.P,U1,6,D7*%
%TO.N,Net-(J2-Pin_7)*%
X152880000Y-72700000D03*
%TO.P,U1,7,~{Q7}*%
%TO.N,unconnected-(U1-~{Q7}-Pad7)*%
X152880000Y-75240000D03*
%TO.P,U1,8,GND*%
%TO.N,GND*%
X152880000Y-77780000D03*
%TO.P,U1,9,Q7*%
%TO.N,Net-(J3-Pin_3)*%
X160500000Y-77780000D03*
%TO.P,U1,10,DS*%
%TO.N,Net-(J3-Pin_6)*%
X160500000Y-75240000D03*
%TO.P,U1,11,D0*%
%TO.N,Net-(J1-Pin_1)*%
X160500000Y-72700000D03*
%TO.P,U1,12,D1*%
%TO.N,Net-(J1-Pin_3)*%
X160500000Y-70160000D03*
%TO.P,U1,13,D2*%
%TO.N,Net-(J1-Pin_5)*%
X160500000Y-67620000D03*
%TO.P,U1,14,D3*%
%TO.N,Net-(J1-Pin_7)*%
X160500000Y-65080000D03*
%TO.P,U1,15,~{CE}*%
%TO.N,GND*%
X160500000Y-62540000D03*
%TO.P,U1,16,VCC*%
%TO.N,+3.3V*%
X160500000Y-60000000D03*
%TD*%
%TO.P,R6,1*%
%TO.N,+3.3V*%
X134190000Y-80250000D03*
%TO.P,R6,2*%
%TO.N,Net-(J2-Pin_3)*%
X141810000Y-80250000D03*
%TD*%
%TO.P,R7,1*%
%TO.N,+3.3V*%
X134190000Y-84300000D03*
%TO.P,R7,2*%
%TO.N,Net-(J2-Pin_5)*%
X141810000Y-84300000D03*
%TD*%
D12*
%TO.P,J1,1,Pin_1*%
%TO.N,Net-(J1-Pin_1)*%
X133720000Y-94000000D03*
D13*
%TO.P,J1,2,Pin_2*%
%TO.N,GND*%
X136260000Y-94000000D03*
%TO.P,J1,3,Pin_3*%
%TO.N,Net-(J1-Pin_3)*%
X138800000Y-94000000D03*
%TO.P,J1,4,Pin_4*%
%TO.N,GND*%
X141340000Y-94000000D03*
%TO.P,J1,5,Pin_5*%
%TO.N,Net-(J1-Pin_5)*%
X143880000Y-94000000D03*
%TO.P,J1,6,Pin_6*%
%TO.N,GND*%
X146420000Y-94000000D03*
%TO.P,J1,7,Pin_7*%
%TO.N,Net-(J1-Pin_7)*%
X148960000Y-94000000D03*
%TO.P,J1,8,Pin_8*%
%TO.N,GND*%
X151500000Y-94000000D03*
%TD*%
D10*
%TO.P,R5,1*%
%TO.N,+3.3V*%
X134190000Y-76200000D03*
%TO.P,R5,2*%
%TO.N,Net-(J2-Pin_1)*%
X141810000Y-76200000D03*
%TD*%
%TO.P,R2,1*%
%TO.N,+3.3V*%
X134190000Y-64050000D03*
%TO.P,R2,2*%
%TO.N,Net-(J1-Pin_3)*%
X141810000Y-64050000D03*
%TD*%
%TO.P,R8,1*%
%TO.N,+3.3V*%
X134190000Y-88350000D03*
%TO.P,R8,2*%
%TO.N,Net-(J2-Pin_7)*%
X141810000Y-88350000D03*
%TD*%
D12*
%TO.P,J3,1,Pin_1*%
%TO.N,+3.3V*%
X172000000Y-60000000D03*
D13*
%TO.P,J3,2,Pin_2*%
%TO.N,GND*%
X172000000Y-62540000D03*
%TO.P,J3,3,Pin_3*%
%TO.N,Net-(J3-Pin_3)*%
X172000000Y-65080000D03*
%TO.P,J3,4,Pin_4*%
%TO.N,Net-(J3-Pin_4)*%
X172000000Y-67620000D03*
%TO.P,J3,5,Pin_5*%
%TO.N,Net-(J3-Pin_5)*%
X172000000Y-70160000D03*
%TO.P,J3,6,Pin_6*%
%TO.N,Net-(J3-Pin_6)*%
X172000000Y-72700000D03*
%TO.P,J3,7,Pin_7*%
%TO.N,+3.3V*%
X172000000Y-75240000D03*
%TO.P,J3,8,Pin_8*%
X172000000Y-77780000D03*
%TD*%
D10*
%TO.P,R1,1*%
%TO.N,+3.3V*%
X134190000Y-60000000D03*
%TO.P,R1,2*%
%TO.N,Net-(J1-Pin_1)*%
X141810000Y-60000000D03*
%TD*%
D12*
%TO.P,J2,1,Pin_1*%
%TO.N,Net-(J2-Pin_1)*%
X157650000Y-94000000D03*
D13*
%TO.P,J2,2,Pin_2*%
%TO.N,GND*%
X160190000Y-94000000D03*
%TO.P,J2,3,Pin_3*%
%TO.N,Net-(J2-Pin_3)*%
X162730000Y-94000000D03*
%TO.P,J2,4,Pin_4*%
%TO.N,GND*%
X165270000Y-94000000D03*
%TO.P,J2,5,Pin_5*%
%TO.N,Net-(J2-Pin_5)*%
X167810000Y-94000000D03*
%TO.P,J2,6,Pin_6*%
%TO.N,GND*%
X170350000Y-94000000D03*
%TO.P,J2,7,Pin_7*%
%TO.N,Net-(J2-Pin_7)*%
X172890000Y-94000000D03*
%TO.P,J2,8,Pin_8*%
%TO.N,GND*%
X175430000Y-94000000D03*
%TD*%
D11*
%TO.P,C1,1*%
%TO.N,+3.3V*%
X170803631Y-85000000D03*
D10*
%TO.P,C1,2*%
%TO.N,GND*%
X173303631Y-85000000D03*
%TD*%
D14*
%TO.N,Net-(J1-Pin_1)*%
X159500000Y-87500000D03*
X147000000Y-57000000D03*
X152500000Y-52000000D03*
X167500000Y-59000000D03*
X160500000Y-85500000D03*
%TO.N,+3.3V*%
X174000000Y-61000000D03*
%TO.N,Net-(J1-Pin_3)*%
X149000000Y-87500000D03*
X146500000Y-90500000D03*
X166500000Y-59000000D03*
X148500000Y-57000000D03*
X143500000Y-90500000D03*
X149000000Y-85500000D03*
X152500000Y-53000000D03*
%TO.N,Net-(J1-Pin_5)*%
X147500000Y-88000000D03*
X148000000Y-83500000D03*
X146000000Y-69500000D03*
X150000000Y-57000000D03*
X153000000Y-54000000D03*
X165000000Y-59000000D03*
%TO.N,Net-(J1-Pin_7)*%
X144500000Y-55000000D03*
X153500000Y-57000000D03*
X163500000Y-59000000D03*
X155500000Y-55000000D03*
X149500000Y-61000000D03*
%TO.N,Net-(J2-Pin_1)*%
X157500000Y-91000000D03*
X149250000Y-65750000D03*
X150000000Y-83500000D03*
%TO.N,Net-(J2-Pin_3)*%
X147000000Y-78000000D03*
X144000000Y-78000000D03*
X151000000Y-81000000D03*
X159500000Y-89500000D03*
X153500000Y-83500000D03*
%TO.N,Net-(J2-Pin_5)*%
X145000000Y-83500000D03*
%TO.N,Net-(J3-Pin_4)*%
X169500000Y-67000000D03*
%TO.N,GND*%
X161000000Y-84000000D03*
%TO.N,Net-(J3-Pin_5)*%
X169000000Y-70000000D03*
X157500000Y-60000000D03*
%TO.N,Net-(J3-Pin_6)*%
X169000000Y-73000000D03*
X167000000Y-72500000D03*
%TD*%
D15*
%TO.N,Net-(J1-Pin_1)*%
X162500000Y-69500000D02*
X162500000Y-70700000D01*
X167500000Y-59000000D02*
X167500000Y-64500000D01*
X154000000Y-91500000D02*
X154000000Y-96000000D01*
X156000000Y-89500000D02*
X154000000Y-91500000D01*
X147000000Y-57000000D02*
X152000000Y-52000000D01*
X163000000Y-83000000D02*
X160500000Y-85500000D01*
X153000000Y-97000000D02*
X136720000Y-97000000D01*
X159500000Y-87500000D02*
X157500000Y-89500000D01*
X160500000Y-72700000D02*
X161700000Y-72700000D01*
X167500000Y-64500000D02*
X162500000Y-69500000D01*
X157500000Y-89500000D02*
X156000000Y-89500000D01*
X162500000Y-70700000D02*
X160500000Y-72700000D01*
X136720000Y-97000000D02*
X133720000Y-94000000D01*
X154000000Y-96000000D02*
X153000000Y-97000000D01*
X152000000Y-52000000D02*
X152500000Y-52000000D01*
X163000000Y-74000000D02*
X163000000Y-83000000D01*
X161700000Y-72700000D02*
X163000000Y-74000000D01*
%TO.N,+3.3V*%
X174000000Y-73240000D02*
X172000000Y-75240000D01*
X174000000Y-61000000D02*
X174000000Y-73240000D01*
%TO.N,Net-(J1-Pin_3)*%
X143500000Y-65000000D02*
X145000000Y-65000000D01*
X148500000Y-57000000D02*
X152500000Y-53000000D01*
X142760000Y-65000000D02*
X143500000Y-65000000D01*
X149000000Y-88500000D02*
X148500000Y-89000000D01*
X149000000Y-69000000D02*
X149000000Y-85500000D01*
X145000000Y-65000000D02*
X149000000Y-69000000D01*
X166500000Y-59000000D02*
X166500000Y-64160000D01*
X149000000Y-87500000D02*
X149000000Y-88500000D01*
X166500000Y-64160000D02*
X160500000Y-70160000D01*
X142300000Y-90500000D02*
X138800000Y-94000000D01*
X147000000Y-90500000D02*
X146500000Y-90500000D01*
X148500000Y-89000000D02*
X147000000Y-90500000D01*
X143500000Y-90500000D02*
X142300000Y-90500000D01*
X141810000Y-64050000D02*
X142760000Y-65000000D01*
%TO.N,Net-(J1-Pin_5)*%
X165000000Y-59000000D02*
X165000000Y-63120000D01*
X143880000Y-94000000D02*
X143880000Y-91620000D01*
X143880000Y-91620000D02*
X147500000Y-88000000D01*
X148000000Y-71500000D02*
X146000000Y-69500000D01*
X150000000Y-57000000D02*
X153000000Y-54000000D01*
X165000000Y-63120000D02*
X160500000Y-67620000D01*
X148000000Y-83500000D02*
X148000000Y-71500000D01*
%TO.N,Net-(J1-Pin_7)*%
X145500000Y-56000000D02*
X145500000Y-57000000D01*
X144500000Y-55000000D02*
X145500000Y-56000000D01*
X163500000Y-62080000D02*
X160500000Y-65080000D01*
X145500000Y-57000000D02*
X149500000Y-61000000D01*
X163500000Y-59000000D02*
X163500000Y-62080000D01*
X153500000Y-57000000D02*
X155500000Y-55000000D01*
%TO.N,Net-(J2-Pin_1)*%
X157650000Y-94000000D02*
X157650000Y-91150000D01*
X157650000Y-91150000D02*
X157500000Y-91000000D01*
X150000000Y-66500000D02*
X149250000Y-65750000D01*
X150000000Y-83500000D02*
X150000000Y-66500000D01*
%TO.N,Net-(J2-Pin_3)*%
X153500000Y-83500000D02*
X151000000Y-81000000D01*
X162730000Y-94000000D02*
X162730000Y-91230000D01*
X147000000Y-78000000D02*
X144000000Y-78000000D01*
X162730000Y-91230000D02*
X162000000Y-90500000D01*
X162000000Y-90500000D02*
X160500000Y-90500000D01*
X160500000Y-90500000D02*
X159500000Y-89500000D01*
%TO.N,Net-(J2-Pin_5)*%
X145000000Y-85000000D02*
X145000000Y-83500000D01*
X167810000Y-94000000D02*
X167810000Y-90810000D01*
X167810000Y-90810000D02*
X163500000Y-86500000D01*
X163500000Y-86500000D02*
X146500000Y-86500000D01*
X146500000Y-86500000D02*
X145000000Y-85000000D01*
%TO.N,Net-(J3-Pin_4)*%
X169500000Y-57500000D02*
X169000000Y-57000000D01*
X169000000Y-57000000D02*
X155500000Y-57000000D01*
X155000000Y-60420000D02*
X152880000Y-62540000D01*
X169500000Y-67000000D02*
X169500000Y-57500000D01*
X155000000Y-57500000D02*
X155000000Y-60420000D01*
X155500000Y-57000000D02*
X155000000Y-57500000D01*
%TO.N,GND*%
X152880000Y-80880000D02*
X153000000Y-81000000D01*
X155500000Y-83500000D02*
X157500000Y-83500000D01*
X153000000Y-81000000D02*
X155500000Y-83500000D01*
X160500000Y-83500000D02*
X161000000Y-84000000D01*
X157500000Y-83500000D02*
X160500000Y-83500000D01*
X152880000Y-77780000D02*
X152880000Y-80880000D01*
%TO.N,Net-(J3-Pin_5)*%
X168500000Y-65000000D02*
X168500000Y-58500000D01*
X167000000Y-68000000D02*
X167000000Y-67000000D01*
X168000000Y-58000000D02*
X159500000Y-58000000D01*
X169000000Y-70000000D02*
X167000000Y-68000000D01*
X167000000Y-66500000D02*
X168500000Y-65000000D01*
X168500000Y-58500000D02*
X168000000Y-58000000D01*
X167000000Y-67000000D02*
X167000000Y-66500000D01*
X159500000Y-58000000D02*
X157500000Y-60000000D01*
%TO.N,Net-(J3-Pin_6)*%
X168500000Y-72500000D02*
X169000000Y-73000000D01*
X167000000Y-72500000D02*
X168500000Y-72500000D01*
%TD*%
M02*
