%TF.GenerationSoftware,KiCad,Pcbnew,9.0.4*%
%TF.CreationDate,2025-09-14T11:05:21+01:00*%
%TF.ProjectId,sipo,7369706f-2e6b-4696-9361-645f70636258,rev?*%
%TF.SameCoordinates,Original*%
%TF.FileFunction,Copper,L2,Bot*%
%TF.FilePolarity,Positive*%
%FSLAX46Y46*%
G04 Gerber Fmt 4.6, Leading zero omitted, Abs format (unit mm)*
G04 Created by KiCad (PCBNEW 9.0.4) date 2025-09-14 11:05:21*
%MOMM*%
%LPD*%
G01*
G04 APERTURE LIST*
G04 Aperture macros list*
%AMRoundRect*
0 Rectangle with rounded corners*
0 $1 Rounding radius*
0 $2 $3 $4 $5 $6 $7 $8 $9 X,Y pos of 4 corners*
0 Add a 4 corners polygon primitive as box body*
4,1,4,$2,$3,$4,$5,$6,$7,$8,$9,$2,$3,0*
0 Add four circle primitives for the rounded corners*
1,1,$1+$1,$2,$3*
1,1,$1+$1,$4,$5*
1,1,$1+$1,$6,$7*
1,1,$1+$1,$8,$9*
0 Add four rect primitives between the rounded corners*
20,1,$1+$1,$2,$3,$4,$5,0*
20,1,$1+$1,$4,$5,$6,$7,0*
20,1,$1+$1,$6,$7,$8,$9,0*
20,1,$1+$1,$8,$9,$2,$3,0*%
G04 Aperture macros list end*
%TA.AperFunction,ComponentPad*%
%ADD10RoundRect,0.250000X-0.550000X-0.550000X0.550000X-0.550000X0.550000X0.550000X-0.550000X0.550000X0*%
%TD*%
%TA.AperFunction,ComponentPad*%
%ADD11C,1.600000*%
%TD*%
%TA.AperFunction,ComponentPad*%
%ADD12R,1.700000X1.700000*%
%TD*%
%TA.AperFunction,ComponentPad*%
%ADD13C,1.700000*%
%TD*%
%TA.AperFunction,ViaPad*%
%ADD14C,0.600000*%
%TD*%
%TA.AperFunction,Conductor*%
%ADD15C,0.200000*%
%TD*%
G04 APERTURE END LIST*
D10*
%TO.P,C1,1*%
%TO.N,+3.3V*%
X111500000Y-74500000D03*
D11*
%TO.P,C1,2*%
%TO.N,GND*%
X114000000Y-74500000D03*
%TD*%
D12*
%TO.P,J4,1,Pin_1*%
%TO.N,+3.3V*%
X104000000Y-92420000D03*
D13*
%TO.P,J4,2,Pin_2*%
X104000000Y-94960000D03*
%TO.P,J4,3,Pin_3*%
X104000000Y-97500000D03*
%TO.P,J4,4,Pin_4*%
X104000000Y-100040000D03*
%TO.P,J4,5,Pin_5*%
X104000000Y-102580000D03*
%TO.P,J4,6,Pin_6*%
X104000000Y-105120000D03*
%TO.P,J4,7,Pin_7*%
X104000000Y-107660000D03*
%TO.P,J4,8,Pin_8*%
X104000000Y-110200000D03*
%TD*%
D12*
%TO.P,J3,1,Pin_1*%
%TO.N,GND*%
X104000000Y-65960000D03*
D13*
%TO.P,J3,2,Pin_2*%
X104000000Y-68500000D03*
%TO.P,J3,3,Pin_3*%
X104000000Y-71040000D03*
%TO.P,J3,4,Pin_4*%
X104000000Y-73580000D03*
%TO.P,J3,5,Pin_5*%
X104000000Y-76120000D03*
%TO.P,J3,6,Pin_6*%
X104000000Y-78660000D03*
%TO.P,J3,7,Pin_7*%
X104000000Y-81200000D03*
%TO.P,J3,8,Pin_8*%
X104000000Y-83740000D03*
%TD*%
D12*
%TO.P,J2,1,Pin_1*%
%TO.N,Net-(J2-Pin_1)*%
X151500000Y-58500000D03*
D13*
%TO.P,J2,2,Pin_2*%
%TO.N,Net-(J2-Pin_2)*%
X151500000Y-61040000D03*
%TO.P,J2,3,Pin_3*%
%TO.N,Net-(J2-Pin_3)*%
X151500000Y-63580000D03*
%TO.P,J2,4,Pin_4*%
%TO.N,Net-(J2-Pin_4)*%
X151500000Y-66120000D03*
%TO.P,J2,5,Pin_5*%
%TO.N,Net-(J2-Pin_5)*%
X151500000Y-68660000D03*
%TO.P,J2,6,Pin_6*%
%TO.N,Net-(J2-Pin_6)*%
X151500000Y-71200000D03*
%TO.P,J2,7,Pin_7*%
%TO.N,Net-(J2-Pin_7)*%
X151500000Y-73740000D03*
%TO.P,J2,8,Pin_8*%
%TO.N,Net-(J2-Pin_8)*%
X151500000Y-76280000D03*
%TD*%
D12*
%TO.P,J1,1,Pin_1*%
%TO.N,+3.3V*%
X104220000Y-59000000D03*
D13*
%TO.P,J1,2,Pin_2*%
%TO.N,GND*%
X106760000Y-59000000D03*
%TO.P,J1,3,Pin_3*%
%TO.N,Net-(J1-Pin_3)*%
X109300000Y-59000000D03*
%TO.P,J1,4,Pin_4*%
%TO.N,Net-(J1-Pin_4)*%
X111840000Y-59000000D03*
%TO.P,J1,5,Pin_5*%
%TO.N,Net-(J1-Pin_5)*%
X114380000Y-59000000D03*
%TO.P,J1,6,Pin_6*%
%TO.N,Net-(J1-Pin_6)*%
X116920000Y-59000000D03*
%TO.P,J1,7,Pin_7*%
%TO.N,GND*%
X119460000Y-59000000D03*
%TO.P,J1,8,Pin_8*%
X122000000Y-59000000D03*
%TD*%
D10*
%TO.P,U1,1,QB*%
%TO.N,Net-(U1-QB)*%
X119880000Y-66380000D03*
D11*
%TO.P,U1,2,QC*%
%TO.N,Net-(U1-QC)*%
X119880000Y-68920000D03*
%TO.P,U1,3,QD*%
%TO.N,Net-(U1-QD)*%
X119880000Y-71460000D03*
%TO.P,U1,4,QE*%
%TO.N,Net-(U1-QE)*%
X119880000Y-74000000D03*
%TO.P,U1,5,QF*%
%TO.N,Net-(U1-QF)*%
X119880000Y-76540000D03*
%TO.P,U1,6,QG*%
%TO.N,Net-(U1-QG)*%
X119880000Y-79080000D03*
%TO.P,U1,7,QH*%
%TO.N,Net-(U1-QH)*%
X119880000Y-81620000D03*
%TO.P,U1,8,GND*%
%TO.N,GND*%
X119880000Y-84160000D03*
%TO.P,U1,9,QH'*%
%TO.N,Net-(J1-Pin_6)*%
X127500000Y-84160000D03*
%TO.P,U1,10,~{SRCLR}*%
%TO.N,+3.3V*%
X127500000Y-81620000D03*
%TO.P,U1,11,SRCLK*%
%TO.N,Net-(J1-Pin_4)*%
X127500000Y-79080000D03*
%TO.P,U1,12,RCLK*%
%TO.N,Net-(J1-Pin_5)*%
X127500000Y-76540000D03*
%TO.P,U1,13,~{OE}*%
%TO.N,GND*%
X127500000Y-74000000D03*
%TO.P,U1,14,SER*%
%TO.N,Net-(J1-Pin_3)*%
X127500000Y-71460000D03*
%TO.P,U1,15,QA*%
%TO.N,Net-(U1-QA)*%
X127500000Y-68920000D03*
%TO.P,U1,16,VCC*%
%TO.N,+3.3V*%
X127500000Y-66380000D03*
%TD*%
%TO.P,R8,1*%
%TO.N,Net-(U1-QG)*%
X135690000Y-113000000D03*
%TO.P,R8,2*%
%TO.N,Net-(J2-Pin_7)*%
X143310000Y-113000000D03*
%TD*%
%TO.P,R7,1*%
%TO.N,Net-(U1-QF)*%
X135690000Y-105000000D03*
%TO.P,R7,2*%
%TO.N,Net-(J2-Pin_6)*%
X143310000Y-105000000D03*
%TD*%
%TO.P,R6,1*%
%TO.N,Net-(U1-QE)*%
X135690000Y-97000000D03*
%TO.P,R6,2*%
%TO.N,Net-(J2-Pin_5)*%
X143310000Y-97000000D03*
%TD*%
%TO.P,R5,1*%
%TO.N,Net-(U1-QD)*%
X135690000Y-89000000D03*
%TO.P,R5,2*%
%TO.N,Net-(J2-Pin_4)*%
X143310000Y-89000000D03*
%TD*%
%TO.P,R4,1*%
%TO.N,Net-(U1-QC)*%
X135690000Y-81000000D03*
%TO.P,R4,2*%
%TO.N,Net-(J2-Pin_3)*%
X143310000Y-81000000D03*
%TD*%
%TO.P,R3,1*%
%TO.N,Net-(U1-QB)*%
X135690000Y-73500000D03*
%TO.P,R3,2*%
%TO.N,Net-(J2-Pin_2)*%
X143310000Y-73500000D03*
%TD*%
%TO.P,R2,1*%
%TO.N,Net-(U1-QA)*%
X135690000Y-66000000D03*
%TO.P,R2,2*%
%TO.N,Net-(J2-Pin_1)*%
X143310000Y-66000000D03*
%TD*%
%TO.P,R1,1*%
%TO.N,Net-(U1-QH)*%
X135690000Y-58500000D03*
%TO.P,R1,2*%
%TO.N,Net-(J2-Pin_8)*%
X143310000Y-58500000D03*
%TD*%
D14*
%TO.N,+3.3V*%
X125500000Y-74000000D03*
X125500000Y-78000000D03*
%TO.N,Net-(J1-Pin_5)*%
X129500000Y-70500000D03*
X129500000Y-67500000D03*
X128500000Y-64000000D03*
%TO.N,Net-(J1-Pin_4)*%
X107500000Y-86000000D03*
X121000000Y-88000000D03*
X130500000Y-88000000D03*
X110000000Y-63500000D03*
X130500000Y-90000000D03*
X108500000Y-65000000D03*
X107500000Y-79000000D03*
X107500000Y-77000000D03*
%TO.N,Net-(J1-Pin_6)*%
X108500000Y-79000000D03*
X121000000Y-87000000D03*
X109500000Y-66500000D03*
X111500000Y-64500000D03*
X108500000Y-85500000D03*
X108500000Y-77000000D03*
%TO.N,Net-(U1-QB)*%
X132000000Y-67500000D03*
X132000000Y-70500000D03*
X125500000Y-62000000D03*
%TO.N,Net-(U1-QC)*%
X131000000Y-67500000D03*
X126500000Y-63000000D03*
X131000000Y-70500000D03*
%TO.N,Net-(U1-QD)*%
X128000000Y-88000000D03*
%TO.N,Net-(U1-QG)*%
X135500000Y-109000000D03*
%TO.N,Net-(U1-QF)*%
X115500000Y-83000000D03*
X117500000Y-78000000D03*
%TO.N,Net-(U1-QE)*%
X116500000Y-79000000D03*
X116500000Y-83000000D03*
%TO.N,Net-(U1-QH)*%
X122000000Y-66000000D03*
X122000000Y-63500000D03*
%TO.N,Net-(J2-Pin_7)*%
X157500000Y-74000000D03*
%TO.N,Net-(J2-Pin_6)*%
X156500000Y-71500000D03*
%TO.N,Net-(J2-Pin_5)*%
X155500000Y-69000000D03*
%TO.N,GND*%
X113000000Y-78000000D03*
X110000000Y-78000000D03*
X106500000Y-64500000D03*
%TD*%
D15*
%TO.N,+3.3V*%
X125500000Y-78000000D02*
X125500000Y-74000000D01*
%TO.N,Net-(J1-Pin_3)*%
X109300000Y-59000000D02*
X109300000Y-56200000D01*
X109300000Y-56200000D02*
X110000000Y-55500000D01*
X110000000Y-55500000D02*
X123500000Y-55500000D01*
X123500000Y-55500000D02*
X127500000Y-59500000D01*
X132000000Y-74500000D02*
X128960000Y-71460000D01*
X128960000Y-71460000D02*
X127500000Y-71460000D01*
X127500000Y-59500000D02*
X129000000Y-59500000D01*
X129000000Y-59500000D02*
X133500000Y-64000000D01*
X133500000Y-64000000D02*
X133500000Y-74000000D01*
X133500000Y-74000000D02*
X133000000Y-74500000D01*
X133000000Y-74500000D02*
X132000000Y-74500000D01*
%TO.N,Net-(J1-Pin_5)*%
X129500000Y-70500000D02*
X129500000Y-67500000D01*
X115000000Y-61000000D02*
X114380000Y-60380000D01*
X128500000Y-64000000D02*
X128500000Y-61000000D01*
X128500000Y-61000000D02*
X115000000Y-61000000D01*
X114380000Y-60380000D02*
X114380000Y-59000000D01*
%TO.N,Net-(J1-Pin_4)*%
X110000000Y-63500000D02*
X108500000Y-65000000D01*
X107500000Y-77000000D02*
X107500000Y-79000000D01*
X107500000Y-86000000D02*
X109500000Y-88000000D01*
X130500000Y-90000000D02*
X130500000Y-88000000D01*
X109500000Y-88000000D02*
X121000000Y-88000000D01*
%TO.N,Net-(J1-Pin_6)*%
X108500000Y-77000000D02*
X108500000Y-79000000D01*
X110000000Y-87000000D02*
X121000000Y-87000000D01*
X111500000Y-64500000D02*
X109500000Y-66500000D01*
X108500000Y-85500000D02*
X110000000Y-87000000D01*
%TO.N,Net-(U1-QB)*%
X132000000Y-70500000D02*
X132000000Y-67500000D01*
X125500000Y-62000000D02*
X121000000Y-62000000D01*
X121000000Y-62000000D02*
X119880000Y-63120000D01*
X119880000Y-63120000D02*
X119880000Y-66380000D01*
%TO.N,Net-(U1-QC)*%
X124500000Y-68000000D02*
X123000000Y-68000000D01*
X122080000Y-68920000D02*
X119880000Y-68920000D01*
X125500000Y-64000000D02*
X125500000Y-67000000D01*
X131000000Y-70500000D02*
X131000000Y-67500000D01*
X126500000Y-63000000D02*
X125500000Y-64000000D01*
X125500000Y-67000000D02*
X124500000Y-68000000D01*
X123000000Y-68000000D02*
X122080000Y-68920000D01*
%TO.N,Net-(U1-QD)*%
X128000000Y-88000000D02*
X123500000Y-83500000D01*
X123500000Y-83500000D02*
X123500000Y-72000000D01*
X123500000Y-72000000D02*
X122960000Y-71460000D01*
X122960000Y-71460000D02*
X119880000Y-71460000D01*
%TO.N,Net-(U1-QG)*%
X132500000Y-99000000D02*
X122000000Y-88500000D01*
X135500000Y-109000000D02*
X132500000Y-106000000D01*
X132500000Y-106000000D02*
X132500000Y-99000000D01*
X122000000Y-88500000D02*
X122000000Y-81200000D01*
X122000000Y-81200000D02*
X119880000Y-79080000D01*
%TO.N,Net-(U1-QF)*%
X116500000Y-78000000D02*
X117500000Y-78000000D01*
X115500000Y-83000000D02*
X115500000Y-79000000D01*
X115500000Y-79000000D02*
X116500000Y-78000000D01*
%TO.N,Net-(U1-QE)*%
X116500000Y-83000000D02*
X116500000Y-79000000D01*
%TO.N,Net-(U1-QH)*%
X122000000Y-63500000D02*
X122000000Y-66000000D01*
%TO.N,Net-(J2-Pin_7)*%
X157240000Y-73740000D02*
X157500000Y-74000000D01*
X151500000Y-73740000D02*
X157240000Y-73740000D01*
%TO.N,Net-(J2-Pin_6)*%
X151500000Y-71200000D02*
X156200000Y-71200000D01*
X156200000Y-71200000D02*
X156500000Y-71500000D01*
%TO.N,Net-(J2-Pin_5)*%
X151500000Y-68660000D02*
X155160000Y-68660000D01*
X155160000Y-68660000D02*
X155500000Y-69000000D01*
%TO.N,GND*%
X110000000Y-78000000D02*
X113000000Y-78000000D01*
X106500000Y-64500000D02*
X106760000Y-64240000D01*
X106760000Y-64240000D02*
X106760000Y-59000000D01*
%TD*%
M02*
