%TF.GenerationSoftware,KiCad,Pcbnew,9.0.4*%
%TF.CreationDate,2025-09-14T11:05:21+01:00*%
%TF.ProjectId,sipo,7369706f-2e6b-4696-9361-645f70636258,rev?*%
%TF.SameCoordinates,Original*%
%TF.FileFunction,Legend,Top*%
%TF.FilePolarity,Positive*%
%FSLAX46Y46*%
G04 Gerber Fmt 4.6, Leading zero omitted, Abs format (unit mm)*
G04 Created by KiCad (PCBNEW 9.0.4) date 2025-09-14 11:05:21*
%MOMM*%
%LPD*%
G01*
G04 APERTURE LIST*
%ADD10C,0.100000*%
%ADD11C,0.150000*%
%ADD12C,0.120000*%
G04 APERTURE END LIST*
D10*
X107708646Y-90723259D02*
X108375312Y-90723259D01*
X108375312Y-90723259D02*
X107946741Y-91723259D01*
X109184836Y-91056592D02*
X109184836Y-91723259D01*
X108946741Y-90675640D02*
X108708646Y-91389925D01*
X108708646Y-91389925D02*
X109327693Y-91389925D01*
X109708646Y-91723259D02*
X109708646Y-90723259D01*
X109708646Y-91199449D02*
X110280074Y-91199449D01*
X110280074Y-91723259D02*
X110280074Y-90723259D01*
X111327693Y-91628020D02*
X111280074Y-91675640D01*
X111280074Y-91675640D02*
X111137217Y-91723259D01*
X111137217Y-91723259D02*
X111041979Y-91723259D01*
X111041979Y-91723259D02*
X110899122Y-91675640D01*
X110899122Y-91675640D02*
X110803884Y-91580401D01*
X110803884Y-91580401D02*
X110756265Y-91485163D01*
X110756265Y-91485163D02*
X110708646Y-91294687D01*
X110708646Y-91294687D02*
X110708646Y-91151830D01*
X110708646Y-91151830D02*
X110756265Y-90961354D01*
X110756265Y-90961354D02*
X110803884Y-90866116D01*
X110803884Y-90866116D02*
X110899122Y-90770878D01*
X110899122Y-90770878D02*
X111041979Y-90723259D01*
X111041979Y-90723259D02*
X111137217Y-90723259D01*
X111137217Y-90723259D02*
X111280074Y-90770878D01*
X111280074Y-90770878D02*
X111327693Y-90818497D01*
X112232455Y-90723259D02*
X111756265Y-90723259D01*
X111756265Y-90723259D02*
X111708646Y-91199449D01*
X111708646Y-91199449D02*
X111756265Y-91151830D01*
X111756265Y-91151830D02*
X111851503Y-91104211D01*
X111851503Y-91104211D02*
X112089598Y-91104211D01*
X112089598Y-91104211D02*
X112184836Y-91151830D01*
X112184836Y-91151830D02*
X112232455Y-91199449D01*
X112232455Y-91199449D02*
X112280074Y-91294687D01*
X112280074Y-91294687D02*
X112280074Y-91532782D01*
X112280074Y-91532782D02*
X112232455Y-91628020D01*
X112232455Y-91628020D02*
X112184836Y-91675640D01*
X112184836Y-91675640D02*
X112089598Y-91723259D01*
X112089598Y-91723259D02*
X111851503Y-91723259D01*
X111851503Y-91723259D02*
X111756265Y-91675640D01*
X111756265Y-91675640D02*
X111708646Y-91628020D01*
X112756265Y-91723259D02*
X112946741Y-91723259D01*
X112946741Y-91723259D02*
X113041979Y-91675640D01*
X113041979Y-91675640D02*
X113089598Y-91628020D01*
X113089598Y-91628020D02*
X113184836Y-91485163D01*
X113184836Y-91485163D02*
X113232455Y-91294687D01*
X113232455Y-91294687D02*
X113232455Y-90913735D01*
X113232455Y-90913735D02*
X113184836Y-90818497D01*
X113184836Y-90818497D02*
X113137217Y-90770878D01*
X113137217Y-90770878D02*
X113041979Y-90723259D01*
X113041979Y-90723259D02*
X112851503Y-90723259D01*
X112851503Y-90723259D02*
X112756265Y-90770878D01*
X112756265Y-90770878D02*
X112708646Y-90818497D01*
X112708646Y-90818497D02*
X112661027Y-90913735D01*
X112661027Y-90913735D02*
X112661027Y-91151830D01*
X112661027Y-91151830D02*
X112708646Y-91247068D01*
X112708646Y-91247068D02*
X112756265Y-91294687D01*
X112756265Y-91294687D02*
X112851503Y-91342306D01*
X112851503Y-91342306D02*
X113041979Y-91342306D01*
X113041979Y-91342306D02*
X113137217Y-91294687D01*
X113137217Y-91294687D02*
X113184836Y-91247068D01*
X113184836Y-91247068D02*
X113232455Y-91151830D01*
X114137217Y-90723259D02*
X113661027Y-90723259D01*
X113661027Y-90723259D02*
X113613408Y-91199449D01*
X113613408Y-91199449D02*
X113661027Y-91151830D01*
X113661027Y-91151830D02*
X113756265Y-91104211D01*
X113756265Y-91104211D02*
X113994360Y-91104211D01*
X113994360Y-91104211D02*
X114089598Y-91151830D01*
X114089598Y-91151830D02*
X114137217Y-91199449D01*
X114137217Y-91199449D02*
X114184836Y-91294687D01*
X114184836Y-91294687D02*
X114184836Y-91532782D01*
X114184836Y-91532782D02*
X114137217Y-91628020D01*
X114137217Y-91628020D02*
X114089598Y-91675640D01*
X114089598Y-91675640D02*
X113994360Y-91723259D01*
X113994360Y-91723259D02*
X113756265Y-91723259D01*
X113756265Y-91723259D02*
X113661027Y-91675640D01*
X113661027Y-91675640D02*
X113613408Y-91628020D01*
X114613408Y-91628020D02*
X114661027Y-91675640D01*
X114661027Y-91675640D02*
X114613408Y-91723259D01*
X114613408Y-91723259D02*
X114565789Y-91675640D01*
X114565789Y-91675640D02*
X114613408Y-91628020D01*
X114613408Y-91628020D02*
X114613408Y-91723259D01*
X114613408Y-91104211D02*
X114661027Y-91151830D01*
X114661027Y-91151830D02*
X114613408Y-91199449D01*
X114613408Y-91199449D02*
X114565789Y-91151830D01*
X114565789Y-91151830D02*
X114613408Y-91104211D01*
X114613408Y-91104211D02*
X114613408Y-91199449D01*
X108565789Y-92952250D02*
X109327694Y-92952250D01*
X110565789Y-93333203D02*
X110565789Y-92333203D01*
X110565789Y-92333203D02*
X110946741Y-92333203D01*
X110946741Y-92333203D02*
X111041979Y-92380822D01*
X111041979Y-92380822D02*
X111089598Y-92428441D01*
X111089598Y-92428441D02*
X111137217Y-92523679D01*
X111137217Y-92523679D02*
X111137217Y-92666536D01*
X111137217Y-92666536D02*
X111089598Y-92761774D01*
X111089598Y-92761774D02*
X111041979Y-92809393D01*
X111041979Y-92809393D02*
X110946741Y-92857012D01*
X110946741Y-92857012D02*
X110565789Y-92857012D01*
X111565789Y-93333203D02*
X111565789Y-92666536D01*
X111565789Y-92333203D02*
X111518170Y-92380822D01*
X111518170Y-92380822D02*
X111565789Y-92428441D01*
X111565789Y-92428441D02*
X111613408Y-92380822D01*
X111613408Y-92380822D02*
X111565789Y-92333203D01*
X111565789Y-92333203D02*
X111565789Y-92428441D01*
X112041979Y-92666536D02*
X112041979Y-93333203D01*
X112041979Y-92761774D02*
X112089598Y-92714155D01*
X112089598Y-92714155D02*
X112184836Y-92666536D01*
X112184836Y-92666536D02*
X112327693Y-92666536D01*
X112327693Y-92666536D02*
X112422931Y-92714155D01*
X112422931Y-92714155D02*
X112470550Y-92809393D01*
X112470550Y-92809393D02*
X112470550Y-93333203D01*
X114232455Y-93333203D02*
X113661027Y-93333203D01*
X113946741Y-93333203D02*
X113946741Y-92333203D01*
X113946741Y-92333203D02*
X113851503Y-92476060D01*
X113851503Y-92476060D02*
X113756265Y-92571298D01*
X113756265Y-92571298D02*
X113661027Y-92618917D01*
X114661027Y-93237964D02*
X114708646Y-93285584D01*
X114708646Y-93285584D02*
X114661027Y-93333203D01*
X114661027Y-93333203D02*
X114613408Y-93285584D01*
X114613408Y-93285584D02*
X114661027Y-93237964D01*
X114661027Y-93237964D02*
X114661027Y-93333203D01*
X114661027Y-92714155D02*
X114708646Y-92761774D01*
X114708646Y-92761774D02*
X114661027Y-92809393D01*
X114661027Y-92809393D02*
X114613408Y-92761774D01*
X114613408Y-92761774D02*
X114661027Y-92714155D01*
X114661027Y-92714155D02*
X114661027Y-92809393D01*
X115803884Y-92333203D02*
X116422931Y-92333203D01*
X116422931Y-92333203D02*
X116089598Y-92714155D01*
X116089598Y-92714155D02*
X116232455Y-92714155D01*
X116232455Y-92714155D02*
X116327693Y-92761774D01*
X116327693Y-92761774D02*
X116375312Y-92809393D01*
X116375312Y-92809393D02*
X116422931Y-92904631D01*
X116422931Y-92904631D02*
X116422931Y-93142726D01*
X116422931Y-93142726D02*
X116375312Y-93237964D01*
X116375312Y-93237964D02*
X116327693Y-93285584D01*
X116327693Y-93285584D02*
X116232455Y-93333203D01*
X116232455Y-93333203D02*
X115946741Y-93333203D01*
X115946741Y-93333203D02*
X115851503Y-93285584D01*
X115851503Y-93285584D02*
X115803884Y-93237964D01*
X116851503Y-93237964D02*
X116899122Y-93285584D01*
X116899122Y-93285584D02*
X116851503Y-93333203D01*
X116851503Y-93333203D02*
X116803884Y-93285584D01*
X116803884Y-93285584D02*
X116851503Y-93237964D01*
X116851503Y-93237964D02*
X116851503Y-93333203D01*
X117232455Y-92333203D02*
X117851502Y-92333203D01*
X117851502Y-92333203D02*
X117518169Y-92714155D01*
X117518169Y-92714155D02*
X117661026Y-92714155D01*
X117661026Y-92714155D02*
X117756264Y-92761774D01*
X117756264Y-92761774D02*
X117803883Y-92809393D01*
X117803883Y-92809393D02*
X117851502Y-92904631D01*
X117851502Y-92904631D02*
X117851502Y-93142726D01*
X117851502Y-93142726D02*
X117803883Y-93237964D01*
X117803883Y-93237964D02*
X117756264Y-93285584D01*
X117756264Y-93285584D02*
X117661026Y-93333203D01*
X117661026Y-93333203D02*
X117375312Y-93333203D01*
X117375312Y-93333203D02*
X117280074Y-93285584D01*
X117280074Y-93285584D02*
X117232455Y-93237964D01*
X118137217Y-92333203D02*
X118470550Y-93333203D01*
X118470550Y-93333203D02*
X118803883Y-92333203D01*
X119756265Y-92666536D02*
X120137217Y-92666536D01*
X119899122Y-92333203D02*
X119899122Y-93190345D01*
X119899122Y-93190345D02*
X119946741Y-93285584D01*
X119946741Y-93285584D02*
X120041979Y-93333203D01*
X120041979Y-93333203D02*
X120137217Y-93333203D01*
X120613408Y-93333203D02*
X120518170Y-93285584D01*
X120518170Y-93285584D02*
X120470551Y-93237964D01*
X120470551Y-93237964D02*
X120422932Y-93142726D01*
X120422932Y-93142726D02*
X120422932Y-92857012D01*
X120422932Y-92857012D02*
X120470551Y-92761774D01*
X120470551Y-92761774D02*
X120518170Y-92714155D01*
X120518170Y-92714155D02*
X120613408Y-92666536D01*
X120613408Y-92666536D02*
X120756265Y-92666536D01*
X120756265Y-92666536D02*
X120851503Y-92714155D01*
X120851503Y-92714155D02*
X120899122Y-92761774D01*
X120899122Y-92761774D02*
X120946741Y-92857012D01*
X120946741Y-92857012D02*
X120946741Y-93142726D01*
X120946741Y-93142726D02*
X120899122Y-93237964D01*
X120899122Y-93237964D02*
X120851503Y-93285584D01*
X120851503Y-93285584D02*
X120756265Y-93333203D01*
X120756265Y-93333203D02*
X120613408Y-93333203D01*
X121994361Y-92333203D02*
X122327694Y-93333203D01*
X122327694Y-93333203D02*
X122661027Y-92333203D01*
X123565789Y-93237964D02*
X123518170Y-93285584D01*
X123518170Y-93285584D02*
X123375313Y-93333203D01*
X123375313Y-93333203D02*
X123280075Y-93333203D01*
X123280075Y-93333203D02*
X123137218Y-93285584D01*
X123137218Y-93285584D02*
X123041980Y-93190345D01*
X123041980Y-93190345D02*
X122994361Y-93095107D01*
X122994361Y-93095107D02*
X122946742Y-92904631D01*
X122946742Y-92904631D02*
X122946742Y-92761774D01*
X122946742Y-92761774D02*
X122994361Y-92571298D01*
X122994361Y-92571298D02*
X123041980Y-92476060D01*
X123041980Y-92476060D02*
X123137218Y-92380822D01*
X123137218Y-92380822D02*
X123280075Y-92333203D01*
X123280075Y-92333203D02*
X123375313Y-92333203D01*
X123375313Y-92333203D02*
X123518170Y-92380822D01*
X123518170Y-92380822D02*
X123565789Y-92428441D01*
X124565789Y-93237964D02*
X124518170Y-93285584D01*
X124518170Y-93285584D02*
X124375313Y-93333203D01*
X124375313Y-93333203D02*
X124280075Y-93333203D01*
X124280075Y-93333203D02*
X124137218Y-93285584D01*
X124137218Y-93285584D02*
X124041980Y-93190345D01*
X124041980Y-93190345D02*
X123994361Y-93095107D01*
X123994361Y-93095107D02*
X123946742Y-92904631D01*
X123946742Y-92904631D02*
X123946742Y-92761774D01*
X123946742Y-92761774D02*
X123994361Y-92571298D01*
X123994361Y-92571298D02*
X124041980Y-92476060D01*
X124041980Y-92476060D02*
X124137218Y-92380822D01*
X124137218Y-92380822D02*
X124280075Y-92333203D01*
X124280075Y-92333203D02*
X124375313Y-92333203D01*
X124375313Y-92333203D02*
X124518170Y-92380822D01*
X124518170Y-92380822D02*
X124565789Y-92428441D01*
X108565789Y-94562194D02*
X109327694Y-94562194D01*
X110565789Y-94943147D02*
X110565789Y-93943147D01*
X110565789Y-93943147D02*
X110946741Y-93943147D01*
X110946741Y-93943147D02*
X111041979Y-93990766D01*
X111041979Y-93990766D02*
X111089598Y-94038385D01*
X111089598Y-94038385D02*
X111137217Y-94133623D01*
X111137217Y-94133623D02*
X111137217Y-94276480D01*
X111137217Y-94276480D02*
X111089598Y-94371718D01*
X111089598Y-94371718D02*
X111041979Y-94419337D01*
X111041979Y-94419337D02*
X110946741Y-94466956D01*
X110946741Y-94466956D02*
X110565789Y-94466956D01*
X111565789Y-94943147D02*
X111565789Y-94276480D01*
X111565789Y-93943147D02*
X111518170Y-93990766D01*
X111518170Y-93990766D02*
X111565789Y-94038385D01*
X111565789Y-94038385D02*
X111613408Y-93990766D01*
X111613408Y-93990766D02*
X111565789Y-93943147D01*
X111565789Y-93943147D02*
X111565789Y-94038385D01*
X112041979Y-94276480D02*
X112041979Y-94943147D01*
X112041979Y-94371718D02*
X112089598Y-94324099D01*
X112089598Y-94324099D02*
X112184836Y-94276480D01*
X112184836Y-94276480D02*
X112327693Y-94276480D01*
X112327693Y-94276480D02*
X112422931Y-94324099D01*
X112422931Y-94324099D02*
X112470550Y-94419337D01*
X112470550Y-94419337D02*
X112470550Y-94943147D01*
X113661027Y-94038385D02*
X113708646Y-93990766D01*
X113708646Y-93990766D02*
X113803884Y-93943147D01*
X113803884Y-93943147D02*
X114041979Y-93943147D01*
X114041979Y-93943147D02*
X114137217Y-93990766D01*
X114137217Y-93990766D02*
X114184836Y-94038385D01*
X114184836Y-94038385D02*
X114232455Y-94133623D01*
X114232455Y-94133623D02*
X114232455Y-94228861D01*
X114232455Y-94228861D02*
X114184836Y-94371718D01*
X114184836Y-94371718D02*
X113613408Y-94943147D01*
X113613408Y-94943147D02*
X114232455Y-94943147D01*
X114661027Y-94847908D02*
X114708646Y-94895528D01*
X114708646Y-94895528D02*
X114661027Y-94943147D01*
X114661027Y-94943147D02*
X114613408Y-94895528D01*
X114613408Y-94895528D02*
X114661027Y-94847908D01*
X114661027Y-94847908D02*
X114661027Y-94943147D01*
X114661027Y-94324099D02*
X114708646Y-94371718D01*
X114708646Y-94371718D02*
X114661027Y-94419337D01*
X114661027Y-94419337D02*
X114613408Y-94371718D01*
X114613408Y-94371718D02*
X114661027Y-94324099D01*
X114661027Y-94324099D02*
X114661027Y-94419337D01*
X116422931Y-93990766D02*
X116327693Y-93943147D01*
X116327693Y-93943147D02*
X116184836Y-93943147D01*
X116184836Y-93943147D02*
X116041979Y-93990766D01*
X116041979Y-93990766D02*
X115946741Y-94086004D01*
X115946741Y-94086004D02*
X115899122Y-94181242D01*
X115899122Y-94181242D02*
X115851503Y-94371718D01*
X115851503Y-94371718D02*
X115851503Y-94514575D01*
X115851503Y-94514575D02*
X115899122Y-94705051D01*
X115899122Y-94705051D02*
X115946741Y-94800289D01*
X115946741Y-94800289D02*
X116041979Y-94895528D01*
X116041979Y-94895528D02*
X116184836Y-94943147D01*
X116184836Y-94943147D02*
X116280074Y-94943147D01*
X116280074Y-94943147D02*
X116422931Y-94895528D01*
X116422931Y-94895528D02*
X116470550Y-94847908D01*
X116470550Y-94847908D02*
X116470550Y-94514575D01*
X116470550Y-94514575D02*
X116280074Y-94514575D01*
X116899122Y-94943147D02*
X116899122Y-93943147D01*
X116899122Y-93943147D02*
X117470550Y-94943147D01*
X117470550Y-94943147D02*
X117470550Y-93943147D01*
X117946741Y-94943147D02*
X117946741Y-93943147D01*
X117946741Y-93943147D02*
X118184836Y-93943147D01*
X118184836Y-93943147D02*
X118327693Y-93990766D01*
X118327693Y-93990766D02*
X118422931Y-94086004D01*
X118422931Y-94086004D02*
X118470550Y-94181242D01*
X118470550Y-94181242D02*
X118518169Y-94371718D01*
X118518169Y-94371718D02*
X118518169Y-94514575D01*
X118518169Y-94514575D02*
X118470550Y-94705051D01*
X118470550Y-94705051D02*
X118422931Y-94800289D01*
X118422931Y-94800289D02*
X118327693Y-94895528D01*
X118327693Y-94895528D02*
X118184836Y-94943147D01*
X118184836Y-94943147D02*
X117946741Y-94943147D01*
X119565789Y-94276480D02*
X119946741Y-94276480D01*
X119708646Y-93943147D02*
X119708646Y-94800289D01*
X119708646Y-94800289D02*
X119756265Y-94895528D01*
X119756265Y-94895528D02*
X119851503Y-94943147D01*
X119851503Y-94943147D02*
X119946741Y-94943147D01*
X120422932Y-94943147D02*
X120327694Y-94895528D01*
X120327694Y-94895528D02*
X120280075Y-94847908D01*
X120280075Y-94847908D02*
X120232456Y-94752670D01*
X120232456Y-94752670D02*
X120232456Y-94466956D01*
X120232456Y-94466956D02*
X120280075Y-94371718D01*
X120280075Y-94371718D02*
X120327694Y-94324099D01*
X120327694Y-94324099D02*
X120422932Y-94276480D01*
X120422932Y-94276480D02*
X120565789Y-94276480D01*
X120565789Y-94276480D02*
X120661027Y-94324099D01*
X120661027Y-94324099D02*
X120708646Y-94371718D01*
X120708646Y-94371718D02*
X120756265Y-94466956D01*
X120756265Y-94466956D02*
X120756265Y-94752670D01*
X120756265Y-94752670D02*
X120708646Y-94847908D01*
X120708646Y-94847908D02*
X120661027Y-94895528D01*
X120661027Y-94895528D02*
X120565789Y-94943147D01*
X120565789Y-94943147D02*
X120422932Y-94943147D01*
X122470551Y-93990766D02*
X122375313Y-93943147D01*
X122375313Y-93943147D02*
X122232456Y-93943147D01*
X122232456Y-93943147D02*
X122089599Y-93990766D01*
X122089599Y-93990766D02*
X121994361Y-94086004D01*
X121994361Y-94086004D02*
X121946742Y-94181242D01*
X121946742Y-94181242D02*
X121899123Y-94371718D01*
X121899123Y-94371718D02*
X121899123Y-94514575D01*
X121899123Y-94514575D02*
X121946742Y-94705051D01*
X121946742Y-94705051D02*
X121994361Y-94800289D01*
X121994361Y-94800289D02*
X122089599Y-94895528D01*
X122089599Y-94895528D02*
X122232456Y-94943147D01*
X122232456Y-94943147D02*
X122327694Y-94943147D01*
X122327694Y-94943147D02*
X122470551Y-94895528D01*
X122470551Y-94895528D02*
X122518170Y-94847908D01*
X122518170Y-94847908D02*
X122518170Y-94514575D01*
X122518170Y-94514575D02*
X122327694Y-94514575D01*
X122946742Y-94943147D02*
X122946742Y-93943147D01*
X122946742Y-93943147D02*
X123518170Y-94943147D01*
X123518170Y-94943147D02*
X123518170Y-93943147D01*
X123994361Y-94943147D02*
X123994361Y-93943147D01*
X123994361Y-93943147D02*
X124232456Y-93943147D01*
X124232456Y-93943147D02*
X124375313Y-93990766D01*
X124375313Y-93990766D02*
X124470551Y-94086004D01*
X124470551Y-94086004D02*
X124518170Y-94181242D01*
X124518170Y-94181242D02*
X124565789Y-94371718D01*
X124565789Y-94371718D02*
X124565789Y-94514575D01*
X124565789Y-94514575D02*
X124518170Y-94705051D01*
X124518170Y-94705051D02*
X124470551Y-94800289D01*
X124470551Y-94800289D02*
X124375313Y-94895528D01*
X124375313Y-94895528D02*
X124232456Y-94943147D01*
X124232456Y-94943147D02*
X123994361Y-94943147D01*
X108565789Y-96172138D02*
X109327694Y-96172138D01*
X110565789Y-96553091D02*
X110565789Y-95553091D01*
X110565789Y-95553091D02*
X110946741Y-95553091D01*
X110946741Y-95553091D02*
X111041979Y-95600710D01*
X111041979Y-95600710D02*
X111089598Y-95648329D01*
X111089598Y-95648329D02*
X111137217Y-95743567D01*
X111137217Y-95743567D02*
X111137217Y-95886424D01*
X111137217Y-95886424D02*
X111089598Y-95981662D01*
X111089598Y-95981662D02*
X111041979Y-96029281D01*
X111041979Y-96029281D02*
X110946741Y-96076900D01*
X110946741Y-96076900D02*
X110565789Y-96076900D01*
X111565789Y-96553091D02*
X111565789Y-95886424D01*
X111565789Y-95553091D02*
X111518170Y-95600710D01*
X111518170Y-95600710D02*
X111565789Y-95648329D01*
X111565789Y-95648329D02*
X111613408Y-95600710D01*
X111613408Y-95600710D02*
X111565789Y-95553091D01*
X111565789Y-95553091D02*
X111565789Y-95648329D01*
X112041979Y-95886424D02*
X112041979Y-96553091D01*
X112041979Y-95981662D02*
X112089598Y-95934043D01*
X112089598Y-95934043D02*
X112184836Y-95886424D01*
X112184836Y-95886424D02*
X112327693Y-95886424D01*
X112327693Y-95886424D02*
X112422931Y-95934043D01*
X112422931Y-95934043D02*
X112470550Y-96029281D01*
X112470550Y-96029281D02*
X112470550Y-96553091D01*
X113613408Y-95553091D02*
X114232455Y-95553091D01*
X114232455Y-95553091D02*
X113899122Y-95934043D01*
X113899122Y-95934043D02*
X114041979Y-95934043D01*
X114041979Y-95934043D02*
X114137217Y-95981662D01*
X114137217Y-95981662D02*
X114184836Y-96029281D01*
X114184836Y-96029281D02*
X114232455Y-96124519D01*
X114232455Y-96124519D02*
X114232455Y-96362614D01*
X114232455Y-96362614D02*
X114184836Y-96457852D01*
X114184836Y-96457852D02*
X114137217Y-96505472D01*
X114137217Y-96505472D02*
X114041979Y-96553091D01*
X114041979Y-96553091D02*
X113756265Y-96553091D01*
X113756265Y-96553091D02*
X113661027Y-96505472D01*
X113661027Y-96505472D02*
X113613408Y-96457852D01*
X114661027Y-96457852D02*
X114708646Y-96505472D01*
X114708646Y-96505472D02*
X114661027Y-96553091D01*
X114661027Y-96553091D02*
X114613408Y-96505472D01*
X114613408Y-96505472D02*
X114661027Y-96457852D01*
X114661027Y-96457852D02*
X114661027Y-96553091D01*
X114661027Y-95934043D02*
X114708646Y-95981662D01*
X114708646Y-95981662D02*
X114661027Y-96029281D01*
X114661027Y-96029281D02*
X114613408Y-95981662D01*
X114613408Y-95981662D02*
X114661027Y-95934043D01*
X114661027Y-95934043D02*
X114661027Y-96029281D01*
X116422931Y-95600710D02*
X116327693Y-95553091D01*
X116327693Y-95553091D02*
X116184836Y-95553091D01*
X116184836Y-95553091D02*
X116041979Y-95600710D01*
X116041979Y-95600710D02*
X115946741Y-95695948D01*
X115946741Y-95695948D02*
X115899122Y-95791186D01*
X115899122Y-95791186D02*
X115851503Y-95981662D01*
X115851503Y-95981662D02*
X115851503Y-96124519D01*
X115851503Y-96124519D02*
X115899122Y-96314995D01*
X115899122Y-96314995D02*
X115946741Y-96410233D01*
X115946741Y-96410233D02*
X116041979Y-96505472D01*
X116041979Y-96505472D02*
X116184836Y-96553091D01*
X116184836Y-96553091D02*
X116280074Y-96553091D01*
X116280074Y-96553091D02*
X116422931Y-96505472D01*
X116422931Y-96505472D02*
X116470550Y-96457852D01*
X116470550Y-96457852D02*
X116470550Y-96124519D01*
X116470550Y-96124519D02*
X116280074Y-96124519D01*
X116899122Y-96553091D02*
X116899122Y-95553091D01*
X116899122Y-95553091D02*
X117280074Y-95553091D01*
X117280074Y-95553091D02*
X117375312Y-95600710D01*
X117375312Y-95600710D02*
X117422931Y-95648329D01*
X117422931Y-95648329D02*
X117470550Y-95743567D01*
X117470550Y-95743567D02*
X117470550Y-95886424D01*
X117470550Y-95886424D02*
X117422931Y-95981662D01*
X117422931Y-95981662D02*
X117375312Y-96029281D01*
X117375312Y-96029281D02*
X117280074Y-96076900D01*
X117280074Y-96076900D02*
X116899122Y-96076900D01*
X117899122Y-96553091D02*
X117899122Y-95553091D01*
X118565788Y-95553091D02*
X118756264Y-95553091D01*
X118756264Y-95553091D02*
X118851502Y-95600710D01*
X118851502Y-95600710D02*
X118946740Y-95695948D01*
X118946740Y-95695948D02*
X118994359Y-95886424D01*
X118994359Y-95886424D02*
X118994359Y-96219757D01*
X118994359Y-96219757D02*
X118946740Y-96410233D01*
X118946740Y-96410233D02*
X118851502Y-96505472D01*
X118851502Y-96505472D02*
X118756264Y-96553091D01*
X118756264Y-96553091D02*
X118565788Y-96553091D01*
X118565788Y-96553091D02*
X118470550Y-96505472D01*
X118470550Y-96505472D02*
X118375312Y-96410233D01*
X118375312Y-96410233D02*
X118327693Y-96219757D01*
X118327693Y-96219757D02*
X118327693Y-95886424D01*
X118327693Y-95886424D02*
X118375312Y-95695948D01*
X118375312Y-95695948D02*
X118470550Y-95600710D01*
X118470550Y-95600710D02*
X118565788Y-95553091D01*
X120041979Y-95886424D02*
X120422931Y-95886424D01*
X120184836Y-95553091D02*
X120184836Y-96410233D01*
X120184836Y-96410233D02*
X120232455Y-96505472D01*
X120232455Y-96505472D02*
X120327693Y-96553091D01*
X120327693Y-96553091D02*
X120422931Y-96553091D01*
X120899122Y-96553091D02*
X120803884Y-96505472D01*
X120803884Y-96505472D02*
X120756265Y-96457852D01*
X120756265Y-96457852D02*
X120708646Y-96362614D01*
X120708646Y-96362614D02*
X120708646Y-96076900D01*
X120708646Y-96076900D02*
X120756265Y-95981662D01*
X120756265Y-95981662D02*
X120803884Y-95934043D01*
X120803884Y-95934043D02*
X120899122Y-95886424D01*
X120899122Y-95886424D02*
X121041979Y-95886424D01*
X121041979Y-95886424D02*
X121137217Y-95934043D01*
X121137217Y-95934043D02*
X121184836Y-95981662D01*
X121184836Y-95981662D02*
X121232455Y-96076900D01*
X121232455Y-96076900D02*
X121232455Y-96362614D01*
X121232455Y-96362614D02*
X121184836Y-96457852D01*
X121184836Y-96457852D02*
X121137217Y-96505472D01*
X121137217Y-96505472D02*
X121041979Y-96553091D01*
X121041979Y-96553091D02*
X120899122Y-96553091D01*
X122375313Y-96505472D02*
X122518170Y-96553091D01*
X122518170Y-96553091D02*
X122756265Y-96553091D01*
X122756265Y-96553091D02*
X122851503Y-96505472D01*
X122851503Y-96505472D02*
X122899122Y-96457852D01*
X122899122Y-96457852D02*
X122946741Y-96362614D01*
X122946741Y-96362614D02*
X122946741Y-96267376D01*
X122946741Y-96267376D02*
X122899122Y-96172138D01*
X122899122Y-96172138D02*
X122851503Y-96124519D01*
X122851503Y-96124519D02*
X122756265Y-96076900D01*
X122756265Y-96076900D02*
X122565789Y-96029281D01*
X122565789Y-96029281D02*
X122470551Y-95981662D01*
X122470551Y-95981662D02*
X122422932Y-95934043D01*
X122422932Y-95934043D02*
X122375313Y-95838805D01*
X122375313Y-95838805D02*
X122375313Y-95743567D01*
X122375313Y-95743567D02*
X122422932Y-95648329D01*
X122422932Y-95648329D02*
X122470551Y-95600710D01*
X122470551Y-95600710D02*
X122565789Y-95553091D01*
X122565789Y-95553091D02*
X122803884Y-95553091D01*
X122803884Y-95553091D02*
X122946741Y-95600710D01*
X123375313Y-96029281D02*
X123708646Y-96029281D01*
X123851503Y-96553091D02*
X123375313Y-96553091D01*
X123375313Y-96553091D02*
X123375313Y-95553091D01*
X123375313Y-95553091D02*
X123851503Y-95553091D01*
X124851503Y-96553091D02*
X124518170Y-96076900D01*
X124280075Y-96553091D02*
X124280075Y-95553091D01*
X124280075Y-95553091D02*
X124661027Y-95553091D01*
X124661027Y-95553091D02*
X124756265Y-95600710D01*
X124756265Y-95600710D02*
X124803884Y-95648329D01*
X124803884Y-95648329D02*
X124851503Y-95743567D01*
X124851503Y-95743567D02*
X124851503Y-95886424D01*
X124851503Y-95886424D02*
X124803884Y-95981662D01*
X124803884Y-95981662D02*
X124756265Y-96029281D01*
X124756265Y-96029281D02*
X124661027Y-96076900D01*
X124661027Y-96076900D02*
X124280075Y-96076900D01*
X108565789Y-97782082D02*
X109327694Y-97782082D01*
X110565789Y-98163035D02*
X110565789Y-97163035D01*
X110565789Y-97163035D02*
X110946741Y-97163035D01*
X110946741Y-97163035D02*
X111041979Y-97210654D01*
X111041979Y-97210654D02*
X111089598Y-97258273D01*
X111089598Y-97258273D02*
X111137217Y-97353511D01*
X111137217Y-97353511D02*
X111137217Y-97496368D01*
X111137217Y-97496368D02*
X111089598Y-97591606D01*
X111089598Y-97591606D02*
X111041979Y-97639225D01*
X111041979Y-97639225D02*
X110946741Y-97686844D01*
X110946741Y-97686844D02*
X110565789Y-97686844D01*
X111565789Y-98163035D02*
X111565789Y-97496368D01*
X111565789Y-97163035D02*
X111518170Y-97210654D01*
X111518170Y-97210654D02*
X111565789Y-97258273D01*
X111565789Y-97258273D02*
X111613408Y-97210654D01*
X111613408Y-97210654D02*
X111565789Y-97163035D01*
X111565789Y-97163035D02*
X111565789Y-97258273D01*
X112041979Y-97496368D02*
X112041979Y-98163035D01*
X112041979Y-97591606D02*
X112089598Y-97543987D01*
X112089598Y-97543987D02*
X112184836Y-97496368D01*
X112184836Y-97496368D02*
X112327693Y-97496368D01*
X112327693Y-97496368D02*
X112422931Y-97543987D01*
X112422931Y-97543987D02*
X112470550Y-97639225D01*
X112470550Y-97639225D02*
X112470550Y-98163035D01*
X114137217Y-97496368D02*
X114137217Y-98163035D01*
X113899122Y-97115416D02*
X113661027Y-97829701D01*
X113661027Y-97829701D02*
X114280074Y-97829701D01*
X114661027Y-98067796D02*
X114708646Y-98115416D01*
X114708646Y-98115416D02*
X114661027Y-98163035D01*
X114661027Y-98163035D02*
X114613408Y-98115416D01*
X114613408Y-98115416D02*
X114661027Y-98067796D01*
X114661027Y-98067796D02*
X114661027Y-98163035D01*
X114661027Y-97543987D02*
X114708646Y-97591606D01*
X114708646Y-97591606D02*
X114661027Y-97639225D01*
X114661027Y-97639225D02*
X114613408Y-97591606D01*
X114613408Y-97591606D02*
X114661027Y-97543987D01*
X114661027Y-97543987D02*
X114661027Y-97639225D01*
X116422931Y-97210654D02*
X116327693Y-97163035D01*
X116327693Y-97163035D02*
X116184836Y-97163035D01*
X116184836Y-97163035D02*
X116041979Y-97210654D01*
X116041979Y-97210654D02*
X115946741Y-97305892D01*
X115946741Y-97305892D02*
X115899122Y-97401130D01*
X115899122Y-97401130D02*
X115851503Y-97591606D01*
X115851503Y-97591606D02*
X115851503Y-97734463D01*
X115851503Y-97734463D02*
X115899122Y-97924939D01*
X115899122Y-97924939D02*
X115946741Y-98020177D01*
X115946741Y-98020177D02*
X116041979Y-98115416D01*
X116041979Y-98115416D02*
X116184836Y-98163035D01*
X116184836Y-98163035D02*
X116280074Y-98163035D01*
X116280074Y-98163035D02*
X116422931Y-98115416D01*
X116422931Y-98115416D02*
X116470550Y-98067796D01*
X116470550Y-98067796D02*
X116470550Y-97734463D01*
X116470550Y-97734463D02*
X116280074Y-97734463D01*
X116899122Y-98163035D02*
X116899122Y-97163035D01*
X116899122Y-97163035D02*
X117280074Y-97163035D01*
X117280074Y-97163035D02*
X117375312Y-97210654D01*
X117375312Y-97210654D02*
X117422931Y-97258273D01*
X117422931Y-97258273D02*
X117470550Y-97353511D01*
X117470550Y-97353511D02*
X117470550Y-97496368D01*
X117470550Y-97496368D02*
X117422931Y-97591606D01*
X117422931Y-97591606D02*
X117375312Y-97639225D01*
X117375312Y-97639225D02*
X117280074Y-97686844D01*
X117280074Y-97686844D02*
X116899122Y-97686844D01*
X117899122Y-98163035D02*
X117899122Y-97163035D01*
X118565788Y-97163035D02*
X118756264Y-97163035D01*
X118756264Y-97163035D02*
X118851502Y-97210654D01*
X118851502Y-97210654D02*
X118946740Y-97305892D01*
X118946740Y-97305892D02*
X118994359Y-97496368D01*
X118994359Y-97496368D02*
X118994359Y-97829701D01*
X118994359Y-97829701D02*
X118946740Y-98020177D01*
X118946740Y-98020177D02*
X118851502Y-98115416D01*
X118851502Y-98115416D02*
X118756264Y-98163035D01*
X118756264Y-98163035D02*
X118565788Y-98163035D01*
X118565788Y-98163035D02*
X118470550Y-98115416D01*
X118470550Y-98115416D02*
X118375312Y-98020177D01*
X118375312Y-98020177D02*
X118327693Y-97829701D01*
X118327693Y-97829701D02*
X118327693Y-97496368D01*
X118327693Y-97496368D02*
X118375312Y-97305892D01*
X118375312Y-97305892D02*
X118470550Y-97210654D01*
X118470550Y-97210654D02*
X118565788Y-97163035D01*
X120041979Y-97496368D02*
X120422931Y-97496368D01*
X120184836Y-97163035D02*
X120184836Y-98020177D01*
X120184836Y-98020177D02*
X120232455Y-98115416D01*
X120232455Y-98115416D02*
X120327693Y-98163035D01*
X120327693Y-98163035D02*
X120422931Y-98163035D01*
X120899122Y-98163035D02*
X120803884Y-98115416D01*
X120803884Y-98115416D02*
X120756265Y-98067796D01*
X120756265Y-98067796D02*
X120708646Y-97972558D01*
X120708646Y-97972558D02*
X120708646Y-97686844D01*
X120708646Y-97686844D02*
X120756265Y-97591606D01*
X120756265Y-97591606D02*
X120803884Y-97543987D01*
X120803884Y-97543987D02*
X120899122Y-97496368D01*
X120899122Y-97496368D02*
X121041979Y-97496368D01*
X121041979Y-97496368D02*
X121137217Y-97543987D01*
X121137217Y-97543987D02*
X121184836Y-97591606D01*
X121184836Y-97591606D02*
X121232455Y-97686844D01*
X121232455Y-97686844D02*
X121232455Y-97972558D01*
X121232455Y-97972558D02*
X121184836Y-98067796D01*
X121184836Y-98067796D02*
X121137217Y-98115416D01*
X121137217Y-98115416D02*
X121041979Y-98163035D01*
X121041979Y-98163035D02*
X120899122Y-98163035D01*
X122375313Y-98115416D02*
X122518170Y-98163035D01*
X122518170Y-98163035D02*
X122756265Y-98163035D01*
X122756265Y-98163035D02*
X122851503Y-98115416D01*
X122851503Y-98115416D02*
X122899122Y-98067796D01*
X122899122Y-98067796D02*
X122946741Y-97972558D01*
X122946741Y-97972558D02*
X122946741Y-97877320D01*
X122946741Y-97877320D02*
X122899122Y-97782082D01*
X122899122Y-97782082D02*
X122851503Y-97734463D01*
X122851503Y-97734463D02*
X122756265Y-97686844D01*
X122756265Y-97686844D02*
X122565789Y-97639225D01*
X122565789Y-97639225D02*
X122470551Y-97591606D01*
X122470551Y-97591606D02*
X122422932Y-97543987D01*
X122422932Y-97543987D02*
X122375313Y-97448749D01*
X122375313Y-97448749D02*
X122375313Y-97353511D01*
X122375313Y-97353511D02*
X122422932Y-97258273D01*
X122422932Y-97258273D02*
X122470551Y-97210654D01*
X122470551Y-97210654D02*
X122565789Y-97163035D01*
X122565789Y-97163035D02*
X122803884Y-97163035D01*
X122803884Y-97163035D02*
X122946741Y-97210654D01*
X123946741Y-98163035D02*
X123613408Y-97686844D01*
X123375313Y-98163035D02*
X123375313Y-97163035D01*
X123375313Y-97163035D02*
X123756265Y-97163035D01*
X123756265Y-97163035D02*
X123851503Y-97210654D01*
X123851503Y-97210654D02*
X123899122Y-97258273D01*
X123899122Y-97258273D02*
X123946741Y-97353511D01*
X123946741Y-97353511D02*
X123946741Y-97496368D01*
X123946741Y-97496368D02*
X123899122Y-97591606D01*
X123899122Y-97591606D02*
X123851503Y-97639225D01*
X123851503Y-97639225D02*
X123756265Y-97686844D01*
X123756265Y-97686844D02*
X123375313Y-97686844D01*
X124946741Y-98067796D02*
X124899122Y-98115416D01*
X124899122Y-98115416D02*
X124756265Y-98163035D01*
X124756265Y-98163035D02*
X124661027Y-98163035D01*
X124661027Y-98163035D02*
X124518170Y-98115416D01*
X124518170Y-98115416D02*
X124422932Y-98020177D01*
X124422932Y-98020177D02*
X124375313Y-97924939D01*
X124375313Y-97924939D02*
X124327694Y-97734463D01*
X124327694Y-97734463D02*
X124327694Y-97591606D01*
X124327694Y-97591606D02*
X124375313Y-97401130D01*
X124375313Y-97401130D02*
X124422932Y-97305892D01*
X124422932Y-97305892D02*
X124518170Y-97210654D01*
X124518170Y-97210654D02*
X124661027Y-97163035D01*
X124661027Y-97163035D02*
X124756265Y-97163035D01*
X124756265Y-97163035D02*
X124899122Y-97210654D01*
X124899122Y-97210654D02*
X124946741Y-97258273D01*
X125851503Y-98163035D02*
X125375313Y-98163035D01*
X125375313Y-98163035D02*
X125375313Y-97163035D01*
X126184837Y-98163035D02*
X126184837Y-97163035D01*
X126756265Y-98163035D02*
X126327694Y-97591606D01*
X126756265Y-97163035D02*
X126184837Y-97734463D01*
X108565789Y-99392026D02*
X109327694Y-99392026D01*
X110565789Y-99772979D02*
X110565789Y-98772979D01*
X110565789Y-98772979D02*
X110946741Y-98772979D01*
X110946741Y-98772979D02*
X111041979Y-98820598D01*
X111041979Y-98820598D02*
X111089598Y-98868217D01*
X111089598Y-98868217D02*
X111137217Y-98963455D01*
X111137217Y-98963455D02*
X111137217Y-99106312D01*
X111137217Y-99106312D02*
X111089598Y-99201550D01*
X111089598Y-99201550D02*
X111041979Y-99249169D01*
X111041979Y-99249169D02*
X110946741Y-99296788D01*
X110946741Y-99296788D02*
X110565789Y-99296788D01*
X111565789Y-99772979D02*
X111565789Y-99106312D01*
X111565789Y-98772979D02*
X111518170Y-98820598D01*
X111518170Y-98820598D02*
X111565789Y-98868217D01*
X111565789Y-98868217D02*
X111613408Y-98820598D01*
X111613408Y-98820598D02*
X111565789Y-98772979D01*
X111565789Y-98772979D02*
X111565789Y-98868217D01*
X112041979Y-99106312D02*
X112041979Y-99772979D01*
X112041979Y-99201550D02*
X112089598Y-99153931D01*
X112089598Y-99153931D02*
X112184836Y-99106312D01*
X112184836Y-99106312D02*
X112327693Y-99106312D01*
X112327693Y-99106312D02*
X112422931Y-99153931D01*
X112422931Y-99153931D02*
X112470550Y-99249169D01*
X112470550Y-99249169D02*
X112470550Y-99772979D01*
X114184836Y-98772979D02*
X113708646Y-98772979D01*
X113708646Y-98772979D02*
X113661027Y-99249169D01*
X113661027Y-99249169D02*
X113708646Y-99201550D01*
X113708646Y-99201550D02*
X113803884Y-99153931D01*
X113803884Y-99153931D02*
X114041979Y-99153931D01*
X114041979Y-99153931D02*
X114137217Y-99201550D01*
X114137217Y-99201550D02*
X114184836Y-99249169D01*
X114184836Y-99249169D02*
X114232455Y-99344407D01*
X114232455Y-99344407D02*
X114232455Y-99582502D01*
X114232455Y-99582502D02*
X114184836Y-99677740D01*
X114184836Y-99677740D02*
X114137217Y-99725360D01*
X114137217Y-99725360D02*
X114041979Y-99772979D01*
X114041979Y-99772979D02*
X113803884Y-99772979D01*
X113803884Y-99772979D02*
X113708646Y-99725360D01*
X113708646Y-99725360D02*
X113661027Y-99677740D01*
X114661027Y-99677740D02*
X114708646Y-99725360D01*
X114708646Y-99725360D02*
X114661027Y-99772979D01*
X114661027Y-99772979D02*
X114613408Y-99725360D01*
X114613408Y-99725360D02*
X114661027Y-99677740D01*
X114661027Y-99677740D02*
X114661027Y-99772979D01*
X114661027Y-99153931D02*
X114708646Y-99201550D01*
X114708646Y-99201550D02*
X114661027Y-99249169D01*
X114661027Y-99249169D02*
X114613408Y-99201550D01*
X114613408Y-99201550D02*
X114661027Y-99153931D01*
X114661027Y-99153931D02*
X114661027Y-99249169D01*
X116422931Y-98820598D02*
X116327693Y-98772979D01*
X116327693Y-98772979D02*
X116184836Y-98772979D01*
X116184836Y-98772979D02*
X116041979Y-98820598D01*
X116041979Y-98820598D02*
X115946741Y-98915836D01*
X115946741Y-98915836D02*
X115899122Y-99011074D01*
X115899122Y-99011074D02*
X115851503Y-99201550D01*
X115851503Y-99201550D02*
X115851503Y-99344407D01*
X115851503Y-99344407D02*
X115899122Y-99534883D01*
X115899122Y-99534883D02*
X115946741Y-99630121D01*
X115946741Y-99630121D02*
X116041979Y-99725360D01*
X116041979Y-99725360D02*
X116184836Y-99772979D01*
X116184836Y-99772979D02*
X116280074Y-99772979D01*
X116280074Y-99772979D02*
X116422931Y-99725360D01*
X116422931Y-99725360D02*
X116470550Y-99677740D01*
X116470550Y-99677740D02*
X116470550Y-99344407D01*
X116470550Y-99344407D02*
X116280074Y-99344407D01*
X116899122Y-99772979D02*
X116899122Y-98772979D01*
X116899122Y-98772979D02*
X117280074Y-98772979D01*
X117280074Y-98772979D02*
X117375312Y-98820598D01*
X117375312Y-98820598D02*
X117422931Y-98868217D01*
X117422931Y-98868217D02*
X117470550Y-98963455D01*
X117470550Y-98963455D02*
X117470550Y-99106312D01*
X117470550Y-99106312D02*
X117422931Y-99201550D01*
X117422931Y-99201550D02*
X117375312Y-99249169D01*
X117375312Y-99249169D02*
X117280074Y-99296788D01*
X117280074Y-99296788D02*
X116899122Y-99296788D01*
X117899122Y-99772979D02*
X117899122Y-98772979D01*
X118565788Y-98772979D02*
X118756264Y-98772979D01*
X118756264Y-98772979D02*
X118851502Y-98820598D01*
X118851502Y-98820598D02*
X118946740Y-98915836D01*
X118946740Y-98915836D02*
X118994359Y-99106312D01*
X118994359Y-99106312D02*
X118994359Y-99439645D01*
X118994359Y-99439645D02*
X118946740Y-99630121D01*
X118946740Y-99630121D02*
X118851502Y-99725360D01*
X118851502Y-99725360D02*
X118756264Y-99772979D01*
X118756264Y-99772979D02*
X118565788Y-99772979D01*
X118565788Y-99772979D02*
X118470550Y-99725360D01*
X118470550Y-99725360D02*
X118375312Y-99630121D01*
X118375312Y-99630121D02*
X118327693Y-99439645D01*
X118327693Y-99439645D02*
X118327693Y-99106312D01*
X118327693Y-99106312D02*
X118375312Y-98915836D01*
X118375312Y-98915836D02*
X118470550Y-98820598D01*
X118470550Y-98820598D02*
X118565788Y-98772979D01*
X120041979Y-99106312D02*
X120422931Y-99106312D01*
X120184836Y-98772979D02*
X120184836Y-99630121D01*
X120184836Y-99630121D02*
X120232455Y-99725360D01*
X120232455Y-99725360D02*
X120327693Y-99772979D01*
X120327693Y-99772979D02*
X120422931Y-99772979D01*
X120899122Y-99772979D02*
X120803884Y-99725360D01*
X120803884Y-99725360D02*
X120756265Y-99677740D01*
X120756265Y-99677740D02*
X120708646Y-99582502D01*
X120708646Y-99582502D02*
X120708646Y-99296788D01*
X120708646Y-99296788D02*
X120756265Y-99201550D01*
X120756265Y-99201550D02*
X120803884Y-99153931D01*
X120803884Y-99153931D02*
X120899122Y-99106312D01*
X120899122Y-99106312D02*
X121041979Y-99106312D01*
X121041979Y-99106312D02*
X121137217Y-99153931D01*
X121137217Y-99153931D02*
X121184836Y-99201550D01*
X121184836Y-99201550D02*
X121232455Y-99296788D01*
X121232455Y-99296788D02*
X121232455Y-99582502D01*
X121232455Y-99582502D02*
X121184836Y-99677740D01*
X121184836Y-99677740D02*
X121137217Y-99725360D01*
X121137217Y-99725360D02*
X121041979Y-99772979D01*
X121041979Y-99772979D02*
X120899122Y-99772979D01*
X122994360Y-99772979D02*
X122661027Y-99296788D01*
X122422932Y-99772979D02*
X122422932Y-98772979D01*
X122422932Y-98772979D02*
X122803884Y-98772979D01*
X122803884Y-98772979D02*
X122899122Y-98820598D01*
X122899122Y-98820598D02*
X122946741Y-98868217D01*
X122946741Y-98868217D02*
X122994360Y-98963455D01*
X122994360Y-98963455D02*
X122994360Y-99106312D01*
X122994360Y-99106312D02*
X122946741Y-99201550D01*
X122946741Y-99201550D02*
X122899122Y-99249169D01*
X122899122Y-99249169D02*
X122803884Y-99296788D01*
X122803884Y-99296788D02*
X122422932Y-99296788D01*
X123994360Y-99677740D02*
X123946741Y-99725360D01*
X123946741Y-99725360D02*
X123803884Y-99772979D01*
X123803884Y-99772979D02*
X123708646Y-99772979D01*
X123708646Y-99772979D02*
X123565789Y-99725360D01*
X123565789Y-99725360D02*
X123470551Y-99630121D01*
X123470551Y-99630121D02*
X123422932Y-99534883D01*
X123422932Y-99534883D02*
X123375313Y-99344407D01*
X123375313Y-99344407D02*
X123375313Y-99201550D01*
X123375313Y-99201550D02*
X123422932Y-99011074D01*
X123422932Y-99011074D02*
X123470551Y-98915836D01*
X123470551Y-98915836D02*
X123565789Y-98820598D01*
X123565789Y-98820598D02*
X123708646Y-98772979D01*
X123708646Y-98772979D02*
X123803884Y-98772979D01*
X123803884Y-98772979D02*
X123946741Y-98820598D01*
X123946741Y-98820598D02*
X123994360Y-98868217D01*
X124899122Y-99772979D02*
X124422932Y-99772979D01*
X124422932Y-99772979D02*
X124422932Y-98772979D01*
X125232456Y-99772979D02*
X125232456Y-98772979D01*
X125803884Y-99772979D02*
X125375313Y-99201550D01*
X125803884Y-98772979D02*
X125232456Y-99344407D01*
X107803884Y-102992867D02*
X107803884Y-101992867D01*
X107803884Y-101992867D02*
X108184836Y-101992867D01*
X108184836Y-101992867D02*
X108280074Y-102040486D01*
X108280074Y-102040486D02*
X108327693Y-102088105D01*
X108327693Y-102088105D02*
X108375312Y-102183343D01*
X108375312Y-102183343D02*
X108375312Y-102326200D01*
X108375312Y-102326200D02*
X108327693Y-102421438D01*
X108327693Y-102421438D02*
X108280074Y-102469057D01*
X108280074Y-102469057D02*
X108184836Y-102516676D01*
X108184836Y-102516676D02*
X107803884Y-102516676D01*
X108803884Y-102992867D02*
X108803884Y-102326200D01*
X108803884Y-101992867D02*
X108756265Y-102040486D01*
X108756265Y-102040486D02*
X108803884Y-102088105D01*
X108803884Y-102088105D02*
X108851503Y-102040486D01*
X108851503Y-102040486D02*
X108803884Y-101992867D01*
X108803884Y-101992867D02*
X108803884Y-102088105D01*
X109280074Y-102326200D02*
X109280074Y-102992867D01*
X109280074Y-102421438D02*
X109327693Y-102373819D01*
X109327693Y-102373819D02*
X109422931Y-102326200D01*
X109422931Y-102326200D02*
X109565788Y-102326200D01*
X109565788Y-102326200D02*
X109661026Y-102373819D01*
X109661026Y-102373819D02*
X109708645Y-102469057D01*
X109708645Y-102469057D02*
X109708645Y-102992867D01*
X110946741Y-102992867D02*
X110946741Y-101992867D01*
X110946741Y-102469057D02*
X111518169Y-102469057D01*
X111518169Y-102992867D02*
X111518169Y-101992867D01*
X112375312Y-102945248D02*
X112280074Y-102992867D01*
X112280074Y-102992867D02*
X112089598Y-102992867D01*
X112089598Y-102992867D02*
X111994360Y-102945248D01*
X111994360Y-102945248D02*
X111946741Y-102850009D01*
X111946741Y-102850009D02*
X111946741Y-102469057D01*
X111946741Y-102469057D02*
X111994360Y-102373819D01*
X111994360Y-102373819D02*
X112089598Y-102326200D01*
X112089598Y-102326200D02*
X112280074Y-102326200D01*
X112280074Y-102326200D02*
X112375312Y-102373819D01*
X112375312Y-102373819D02*
X112422931Y-102469057D01*
X112422931Y-102469057D02*
X112422931Y-102564295D01*
X112422931Y-102564295D02*
X111946741Y-102659533D01*
X113280074Y-102992867D02*
X113280074Y-102469057D01*
X113280074Y-102469057D02*
X113232455Y-102373819D01*
X113232455Y-102373819D02*
X113137217Y-102326200D01*
X113137217Y-102326200D02*
X112946741Y-102326200D01*
X112946741Y-102326200D02*
X112851503Y-102373819D01*
X113280074Y-102945248D02*
X113184836Y-102992867D01*
X113184836Y-102992867D02*
X112946741Y-102992867D01*
X112946741Y-102992867D02*
X112851503Y-102945248D01*
X112851503Y-102945248D02*
X112803884Y-102850009D01*
X112803884Y-102850009D02*
X112803884Y-102754771D01*
X112803884Y-102754771D02*
X112851503Y-102659533D01*
X112851503Y-102659533D02*
X112946741Y-102611914D01*
X112946741Y-102611914D02*
X113184836Y-102611914D01*
X113184836Y-102611914D02*
X113280074Y-102564295D01*
X114184836Y-102992867D02*
X114184836Y-101992867D01*
X114184836Y-102945248D02*
X114089598Y-102992867D01*
X114089598Y-102992867D02*
X113899122Y-102992867D01*
X113899122Y-102992867D02*
X113803884Y-102945248D01*
X113803884Y-102945248D02*
X113756265Y-102897628D01*
X113756265Y-102897628D02*
X113708646Y-102802390D01*
X113708646Y-102802390D02*
X113708646Y-102516676D01*
X113708646Y-102516676D02*
X113756265Y-102421438D01*
X113756265Y-102421438D02*
X113803884Y-102373819D01*
X113803884Y-102373819D02*
X113899122Y-102326200D01*
X113899122Y-102326200D02*
X114089598Y-102326200D01*
X114089598Y-102326200D02*
X114184836Y-102373819D01*
X115041979Y-102945248D02*
X114946741Y-102992867D01*
X114946741Y-102992867D02*
X114756265Y-102992867D01*
X114756265Y-102992867D02*
X114661027Y-102945248D01*
X114661027Y-102945248D02*
X114613408Y-102850009D01*
X114613408Y-102850009D02*
X114613408Y-102469057D01*
X114613408Y-102469057D02*
X114661027Y-102373819D01*
X114661027Y-102373819D02*
X114756265Y-102326200D01*
X114756265Y-102326200D02*
X114946741Y-102326200D01*
X114946741Y-102326200D02*
X115041979Y-102373819D01*
X115041979Y-102373819D02*
X115089598Y-102469057D01*
X115089598Y-102469057D02*
X115089598Y-102564295D01*
X115089598Y-102564295D02*
X114613408Y-102659533D01*
X115518170Y-102992867D02*
X115518170Y-102326200D01*
X115518170Y-102516676D02*
X115565789Y-102421438D01*
X115565789Y-102421438D02*
X115613408Y-102373819D01*
X115613408Y-102373819D02*
X115708646Y-102326200D01*
X115708646Y-102326200D02*
X115803884Y-102326200D01*
X116137218Y-102897628D02*
X116184837Y-102945248D01*
X116184837Y-102945248D02*
X116137218Y-102992867D01*
X116137218Y-102992867D02*
X116089599Y-102945248D01*
X116089599Y-102945248D02*
X116137218Y-102897628D01*
X116137218Y-102897628D02*
X116137218Y-102992867D01*
X116137218Y-102373819D02*
X116184837Y-102421438D01*
X116184837Y-102421438D02*
X116137218Y-102469057D01*
X116137218Y-102469057D02*
X116089599Y-102421438D01*
X116089599Y-102421438D02*
X116137218Y-102373819D01*
X116137218Y-102373819D02*
X116137218Y-102469057D01*
X108565789Y-104221858D02*
X109327694Y-104221858D01*
X110851503Y-103602811D02*
X110851503Y-104317096D01*
X110851503Y-104317096D02*
X110803884Y-104459953D01*
X110803884Y-104459953D02*
X110708646Y-104555192D01*
X110708646Y-104555192D02*
X110565789Y-104602811D01*
X110565789Y-104602811D02*
X110470551Y-104602811D01*
X111851503Y-104602811D02*
X111280075Y-104602811D01*
X111565789Y-104602811D02*
X111565789Y-103602811D01*
X111565789Y-103602811D02*
X111470551Y-103745668D01*
X111470551Y-103745668D02*
X111375313Y-103840906D01*
X111375313Y-103840906D02*
X111280075Y-103888525D01*
X112280075Y-104507572D02*
X112327694Y-104555192D01*
X112327694Y-104555192D02*
X112280075Y-104602811D01*
X112280075Y-104602811D02*
X112232456Y-104555192D01*
X112232456Y-104555192D02*
X112280075Y-104507572D01*
X112280075Y-104507572D02*
X112280075Y-104602811D01*
X112280075Y-103983763D02*
X112327694Y-104031382D01*
X112327694Y-104031382D02*
X112280075Y-104079001D01*
X112280075Y-104079001D02*
X112232456Y-104031382D01*
X112232456Y-104031382D02*
X112280075Y-103983763D01*
X112280075Y-103983763D02*
X112280075Y-104079001D01*
X113518170Y-104602811D02*
X113518170Y-103602811D01*
X113994360Y-103936144D02*
X113994360Y-104602811D01*
X113994360Y-104031382D02*
X114041979Y-103983763D01*
X114041979Y-103983763D02*
X114137217Y-103936144D01*
X114137217Y-103936144D02*
X114280074Y-103936144D01*
X114280074Y-103936144D02*
X114375312Y-103983763D01*
X114375312Y-103983763D02*
X114422931Y-104079001D01*
X114422931Y-104079001D02*
X114422931Y-104602811D01*
X114899122Y-103936144D02*
X114899122Y-104936144D01*
X114899122Y-103983763D02*
X114994360Y-103936144D01*
X114994360Y-103936144D02*
X115184836Y-103936144D01*
X115184836Y-103936144D02*
X115280074Y-103983763D01*
X115280074Y-103983763D02*
X115327693Y-104031382D01*
X115327693Y-104031382D02*
X115375312Y-104126620D01*
X115375312Y-104126620D02*
X115375312Y-104412334D01*
X115375312Y-104412334D02*
X115327693Y-104507572D01*
X115327693Y-104507572D02*
X115280074Y-104555192D01*
X115280074Y-104555192D02*
X115184836Y-104602811D01*
X115184836Y-104602811D02*
X114994360Y-104602811D01*
X114994360Y-104602811D02*
X114899122Y-104555192D01*
X116232455Y-103936144D02*
X116232455Y-104602811D01*
X115803884Y-103936144D02*
X115803884Y-104459953D01*
X115803884Y-104459953D02*
X115851503Y-104555192D01*
X115851503Y-104555192D02*
X115946741Y-104602811D01*
X115946741Y-104602811D02*
X116089598Y-104602811D01*
X116089598Y-104602811D02*
X116184836Y-104555192D01*
X116184836Y-104555192D02*
X116232455Y-104507572D01*
X116565789Y-103936144D02*
X116946741Y-103936144D01*
X116708646Y-103602811D02*
X116708646Y-104459953D01*
X116708646Y-104459953D02*
X116756265Y-104555192D01*
X116756265Y-104555192D02*
X116851503Y-104602811D01*
X116851503Y-104602811D02*
X116946741Y-104602811D01*
X118041980Y-103936144D02*
X118041980Y-104936144D01*
X118041980Y-103983763D02*
X118137218Y-103936144D01*
X118137218Y-103936144D02*
X118327694Y-103936144D01*
X118327694Y-103936144D02*
X118422932Y-103983763D01*
X118422932Y-103983763D02*
X118470551Y-104031382D01*
X118470551Y-104031382D02*
X118518170Y-104126620D01*
X118518170Y-104126620D02*
X118518170Y-104412334D01*
X118518170Y-104412334D02*
X118470551Y-104507572D01*
X118470551Y-104507572D02*
X118422932Y-104555192D01*
X118422932Y-104555192D02*
X118327694Y-104602811D01*
X118327694Y-104602811D02*
X118137218Y-104602811D01*
X118137218Y-104602811D02*
X118041980Y-104555192D01*
X118946742Y-104602811D02*
X118946742Y-103936144D01*
X118946742Y-103602811D02*
X118899123Y-103650430D01*
X118899123Y-103650430D02*
X118946742Y-103698049D01*
X118946742Y-103698049D02*
X118994361Y-103650430D01*
X118994361Y-103650430D02*
X118946742Y-103602811D01*
X118946742Y-103602811D02*
X118946742Y-103698049D01*
X119422932Y-103936144D02*
X119422932Y-104602811D01*
X119422932Y-104031382D02*
X119470551Y-103983763D01*
X119470551Y-103983763D02*
X119565789Y-103936144D01*
X119565789Y-103936144D02*
X119708646Y-103936144D01*
X119708646Y-103936144D02*
X119803884Y-103983763D01*
X119803884Y-103983763D02*
X119851503Y-104079001D01*
X119851503Y-104079001D02*
X119851503Y-104602811D01*
X120280075Y-104555192D02*
X120375313Y-104602811D01*
X120375313Y-104602811D02*
X120565789Y-104602811D01*
X120565789Y-104602811D02*
X120661027Y-104555192D01*
X120661027Y-104555192D02*
X120708646Y-104459953D01*
X120708646Y-104459953D02*
X120708646Y-104412334D01*
X120708646Y-104412334D02*
X120661027Y-104317096D01*
X120661027Y-104317096D02*
X120565789Y-104269477D01*
X120565789Y-104269477D02*
X120422932Y-104269477D01*
X120422932Y-104269477D02*
X120327694Y-104221858D01*
X120327694Y-104221858D02*
X120280075Y-104126620D01*
X120280075Y-104126620D02*
X120280075Y-104079001D01*
X120280075Y-104079001D02*
X120327694Y-103983763D01*
X120327694Y-103983763D02*
X120422932Y-103936144D01*
X120422932Y-103936144D02*
X120565789Y-103936144D01*
X120565789Y-103936144D02*
X120661027Y-103983763D01*
X108565789Y-105831802D02*
X109327694Y-105831802D01*
X110851503Y-105212755D02*
X110851503Y-105927040D01*
X110851503Y-105927040D02*
X110803884Y-106069897D01*
X110803884Y-106069897D02*
X110708646Y-106165136D01*
X110708646Y-106165136D02*
X110565789Y-106212755D01*
X110565789Y-106212755D02*
X110470551Y-106212755D01*
X111280075Y-105307993D02*
X111327694Y-105260374D01*
X111327694Y-105260374D02*
X111422932Y-105212755D01*
X111422932Y-105212755D02*
X111661027Y-105212755D01*
X111661027Y-105212755D02*
X111756265Y-105260374D01*
X111756265Y-105260374D02*
X111803884Y-105307993D01*
X111803884Y-105307993D02*
X111851503Y-105403231D01*
X111851503Y-105403231D02*
X111851503Y-105498469D01*
X111851503Y-105498469D02*
X111803884Y-105641326D01*
X111803884Y-105641326D02*
X111232456Y-106212755D01*
X111232456Y-106212755D02*
X111851503Y-106212755D01*
X112280075Y-106117516D02*
X112327694Y-106165136D01*
X112327694Y-106165136D02*
X112280075Y-106212755D01*
X112280075Y-106212755D02*
X112232456Y-106165136D01*
X112232456Y-106165136D02*
X112280075Y-106117516D01*
X112280075Y-106117516D02*
X112280075Y-106212755D01*
X112280075Y-105593707D02*
X112327694Y-105641326D01*
X112327694Y-105641326D02*
X112280075Y-105688945D01*
X112280075Y-105688945D02*
X112232456Y-105641326D01*
X112232456Y-105641326D02*
X112280075Y-105593707D01*
X112280075Y-105593707D02*
X112280075Y-105688945D01*
X113708646Y-105212755D02*
X113899122Y-105212755D01*
X113899122Y-105212755D02*
X113994360Y-105260374D01*
X113994360Y-105260374D02*
X114089598Y-105355612D01*
X114089598Y-105355612D02*
X114137217Y-105546088D01*
X114137217Y-105546088D02*
X114137217Y-105879421D01*
X114137217Y-105879421D02*
X114089598Y-106069897D01*
X114089598Y-106069897D02*
X113994360Y-106165136D01*
X113994360Y-106165136D02*
X113899122Y-106212755D01*
X113899122Y-106212755D02*
X113708646Y-106212755D01*
X113708646Y-106212755D02*
X113613408Y-106165136D01*
X113613408Y-106165136D02*
X113518170Y-106069897D01*
X113518170Y-106069897D02*
X113470551Y-105879421D01*
X113470551Y-105879421D02*
X113470551Y-105546088D01*
X113470551Y-105546088D02*
X113518170Y-105355612D01*
X113518170Y-105355612D02*
X113613408Y-105260374D01*
X113613408Y-105260374D02*
X113708646Y-105212755D01*
X114994360Y-105546088D02*
X114994360Y-106212755D01*
X114565789Y-105546088D02*
X114565789Y-106069897D01*
X114565789Y-106069897D02*
X114613408Y-106165136D01*
X114613408Y-106165136D02*
X114708646Y-106212755D01*
X114708646Y-106212755D02*
X114851503Y-106212755D01*
X114851503Y-106212755D02*
X114946741Y-106165136D01*
X114946741Y-106165136D02*
X114994360Y-106117516D01*
X115327694Y-105546088D02*
X115708646Y-105546088D01*
X115470551Y-105212755D02*
X115470551Y-106069897D01*
X115470551Y-106069897D02*
X115518170Y-106165136D01*
X115518170Y-106165136D02*
X115613408Y-106212755D01*
X115613408Y-106212755D02*
X115708646Y-106212755D01*
X116041980Y-105546088D02*
X116041980Y-106546088D01*
X116041980Y-105593707D02*
X116137218Y-105546088D01*
X116137218Y-105546088D02*
X116327694Y-105546088D01*
X116327694Y-105546088D02*
X116422932Y-105593707D01*
X116422932Y-105593707D02*
X116470551Y-105641326D01*
X116470551Y-105641326D02*
X116518170Y-105736564D01*
X116518170Y-105736564D02*
X116518170Y-106022278D01*
X116518170Y-106022278D02*
X116470551Y-106117516D01*
X116470551Y-106117516D02*
X116422932Y-106165136D01*
X116422932Y-106165136D02*
X116327694Y-106212755D01*
X116327694Y-106212755D02*
X116137218Y-106212755D01*
X116137218Y-106212755D02*
X116041980Y-106165136D01*
X117375313Y-105546088D02*
X117375313Y-106212755D01*
X116946742Y-105546088D02*
X116946742Y-106069897D01*
X116946742Y-106069897D02*
X116994361Y-106165136D01*
X116994361Y-106165136D02*
X117089599Y-106212755D01*
X117089599Y-106212755D02*
X117232456Y-106212755D01*
X117232456Y-106212755D02*
X117327694Y-106165136D01*
X117327694Y-106165136D02*
X117375313Y-106117516D01*
X117708647Y-105546088D02*
X118089599Y-105546088D01*
X117851504Y-105212755D02*
X117851504Y-106069897D01*
X117851504Y-106069897D02*
X117899123Y-106165136D01*
X117899123Y-106165136D02*
X117994361Y-106212755D01*
X117994361Y-106212755D02*
X118089599Y-106212755D01*
X119184838Y-105546088D02*
X119184838Y-106546088D01*
X119184838Y-105593707D02*
X119280076Y-105546088D01*
X119280076Y-105546088D02*
X119470552Y-105546088D01*
X119470552Y-105546088D02*
X119565790Y-105593707D01*
X119565790Y-105593707D02*
X119613409Y-105641326D01*
X119613409Y-105641326D02*
X119661028Y-105736564D01*
X119661028Y-105736564D02*
X119661028Y-106022278D01*
X119661028Y-106022278D02*
X119613409Y-106117516D01*
X119613409Y-106117516D02*
X119565790Y-106165136D01*
X119565790Y-106165136D02*
X119470552Y-106212755D01*
X119470552Y-106212755D02*
X119280076Y-106212755D01*
X119280076Y-106212755D02*
X119184838Y-106165136D01*
X120089600Y-106212755D02*
X120089600Y-105546088D01*
X120089600Y-105212755D02*
X120041981Y-105260374D01*
X120041981Y-105260374D02*
X120089600Y-105307993D01*
X120089600Y-105307993D02*
X120137219Y-105260374D01*
X120137219Y-105260374D02*
X120089600Y-105212755D01*
X120089600Y-105212755D02*
X120089600Y-105307993D01*
X120565790Y-105546088D02*
X120565790Y-106212755D01*
X120565790Y-105641326D02*
X120613409Y-105593707D01*
X120613409Y-105593707D02*
X120708647Y-105546088D01*
X120708647Y-105546088D02*
X120851504Y-105546088D01*
X120851504Y-105546088D02*
X120946742Y-105593707D01*
X120946742Y-105593707D02*
X120994361Y-105688945D01*
X120994361Y-105688945D02*
X120994361Y-106212755D01*
X121422933Y-106165136D02*
X121518171Y-106212755D01*
X121518171Y-106212755D02*
X121708647Y-106212755D01*
X121708647Y-106212755D02*
X121803885Y-106165136D01*
X121803885Y-106165136D02*
X121851504Y-106069897D01*
X121851504Y-106069897D02*
X121851504Y-106022278D01*
X121851504Y-106022278D02*
X121803885Y-105927040D01*
X121803885Y-105927040D02*
X121708647Y-105879421D01*
X121708647Y-105879421D02*
X121565790Y-105879421D01*
X121565790Y-105879421D02*
X121470552Y-105831802D01*
X121470552Y-105831802D02*
X121422933Y-105736564D01*
X121422933Y-105736564D02*
X121422933Y-105688945D01*
X121422933Y-105688945D02*
X121470552Y-105593707D01*
X121470552Y-105593707D02*
X121565790Y-105546088D01*
X121565790Y-105546088D02*
X121708647Y-105546088D01*
X121708647Y-105546088D02*
X121803885Y-105593707D01*
X108565789Y-107441746D02*
X109327694Y-107441746D01*
X110851503Y-106822699D02*
X110851503Y-107536984D01*
X110851503Y-107536984D02*
X110803884Y-107679841D01*
X110803884Y-107679841D02*
X110708646Y-107775080D01*
X110708646Y-107775080D02*
X110565789Y-107822699D01*
X110565789Y-107822699D02*
X110470551Y-107822699D01*
X111232456Y-106822699D02*
X111851503Y-106822699D01*
X111851503Y-106822699D02*
X111518170Y-107203651D01*
X111518170Y-107203651D02*
X111661027Y-107203651D01*
X111661027Y-107203651D02*
X111756265Y-107251270D01*
X111756265Y-107251270D02*
X111803884Y-107298889D01*
X111803884Y-107298889D02*
X111851503Y-107394127D01*
X111851503Y-107394127D02*
X111851503Y-107632222D01*
X111851503Y-107632222D02*
X111803884Y-107727460D01*
X111803884Y-107727460D02*
X111756265Y-107775080D01*
X111756265Y-107775080D02*
X111661027Y-107822699D01*
X111661027Y-107822699D02*
X111375313Y-107822699D01*
X111375313Y-107822699D02*
X111280075Y-107775080D01*
X111280075Y-107775080D02*
X111232456Y-107727460D01*
X112280075Y-107727460D02*
X112327694Y-107775080D01*
X112327694Y-107775080D02*
X112280075Y-107822699D01*
X112280075Y-107822699D02*
X112232456Y-107775080D01*
X112232456Y-107775080D02*
X112280075Y-107727460D01*
X112280075Y-107727460D02*
X112280075Y-107822699D01*
X112280075Y-107203651D02*
X112327694Y-107251270D01*
X112327694Y-107251270D02*
X112280075Y-107298889D01*
X112280075Y-107298889D02*
X112232456Y-107251270D01*
X112232456Y-107251270D02*
X112280075Y-107203651D01*
X112280075Y-107203651D02*
X112280075Y-107298889D01*
X114041979Y-106870318D02*
X113946741Y-106822699D01*
X113946741Y-106822699D02*
X113803884Y-106822699D01*
X113803884Y-106822699D02*
X113661027Y-106870318D01*
X113661027Y-106870318D02*
X113565789Y-106965556D01*
X113565789Y-106965556D02*
X113518170Y-107060794D01*
X113518170Y-107060794D02*
X113470551Y-107251270D01*
X113470551Y-107251270D02*
X113470551Y-107394127D01*
X113470551Y-107394127D02*
X113518170Y-107584603D01*
X113518170Y-107584603D02*
X113565789Y-107679841D01*
X113565789Y-107679841D02*
X113661027Y-107775080D01*
X113661027Y-107775080D02*
X113803884Y-107822699D01*
X113803884Y-107822699D02*
X113899122Y-107822699D01*
X113899122Y-107822699D02*
X114041979Y-107775080D01*
X114041979Y-107775080D02*
X114089598Y-107727460D01*
X114089598Y-107727460D02*
X114089598Y-107394127D01*
X114089598Y-107394127D02*
X113899122Y-107394127D01*
X114518170Y-107822699D02*
X114518170Y-106822699D01*
X114518170Y-106822699D02*
X115089598Y-107822699D01*
X115089598Y-107822699D02*
X115089598Y-106822699D01*
X115565789Y-107822699D02*
X115565789Y-106822699D01*
X115565789Y-106822699D02*
X115803884Y-106822699D01*
X115803884Y-106822699D02*
X115946741Y-106870318D01*
X115946741Y-106870318D02*
X116041979Y-106965556D01*
X116041979Y-106965556D02*
X116089598Y-107060794D01*
X116089598Y-107060794D02*
X116137217Y-107251270D01*
X116137217Y-107251270D02*
X116137217Y-107394127D01*
X116137217Y-107394127D02*
X116089598Y-107584603D01*
X116089598Y-107584603D02*
X116041979Y-107679841D01*
X116041979Y-107679841D02*
X115946741Y-107775080D01*
X115946741Y-107775080D02*
X115803884Y-107822699D01*
X115803884Y-107822699D02*
X115565789Y-107822699D01*
X117327694Y-107156032D02*
X117327694Y-108156032D01*
X117327694Y-107203651D02*
X117422932Y-107156032D01*
X117422932Y-107156032D02*
X117613408Y-107156032D01*
X117613408Y-107156032D02*
X117708646Y-107203651D01*
X117708646Y-107203651D02*
X117756265Y-107251270D01*
X117756265Y-107251270D02*
X117803884Y-107346508D01*
X117803884Y-107346508D02*
X117803884Y-107632222D01*
X117803884Y-107632222D02*
X117756265Y-107727460D01*
X117756265Y-107727460D02*
X117708646Y-107775080D01*
X117708646Y-107775080D02*
X117613408Y-107822699D01*
X117613408Y-107822699D02*
X117422932Y-107822699D01*
X117422932Y-107822699D02*
X117327694Y-107775080D01*
X118232456Y-107822699D02*
X118232456Y-107156032D01*
X118232456Y-106822699D02*
X118184837Y-106870318D01*
X118184837Y-106870318D02*
X118232456Y-106917937D01*
X118232456Y-106917937D02*
X118280075Y-106870318D01*
X118280075Y-106870318D02*
X118232456Y-106822699D01*
X118232456Y-106822699D02*
X118232456Y-106917937D01*
X118708646Y-107156032D02*
X118708646Y-107822699D01*
X118708646Y-107251270D02*
X118756265Y-107203651D01*
X118756265Y-107203651D02*
X118851503Y-107156032D01*
X118851503Y-107156032D02*
X118994360Y-107156032D01*
X118994360Y-107156032D02*
X119089598Y-107203651D01*
X119089598Y-107203651D02*
X119137217Y-107298889D01*
X119137217Y-107298889D02*
X119137217Y-107822699D01*
X119565789Y-107775080D02*
X119661027Y-107822699D01*
X119661027Y-107822699D02*
X119851503Y-107822699D01*
X119851503Y-107822699D02*
X119946741Y-107775080D01*
X119946741Y-107775080D02*
X119994360Y-107679841D01*
X119994360Y-107679841D02*
X119994360Y-107632222D01*
X119994360Y-107632222D02*
X119946741Y-107536984D01*
X119946741Y-107536984D02*
X119851503Y-107489365D01*
X119851503Y-107489365D02*
X119708646Y-107489365D01*
X119708646Y-107489365D02*
X119613408Y-107441746D01*
X119613408Y-107441746D02*
X119565789Y-107346508D01*
X119565789Y-107346508D02*
X119565789Y-107298889D01*
X119565789Y-107298889D02*
X119613408Y-107203651D01*
X119613408Y-107203651D02*
X119708646Y-107156032D01*
X119708646Y-107156032D02*
X119851503Y-107156032D01*
X119851503Y-107156032D02*
X119946741Y-107203651D01*
X108565789Y-109051690D02*
X109327694Y-109051690D01*
X110851503Y-108432643D02*
X110851503Y-109146928D01*
X110851503Y-109146928D02*
X110803884Y-109289785D01*
X110803884Y-109289785D02*
X110708646Y-109385024D01*
X110708646Y-109385024D02*
X110565789Y-109432643D01*
X110565789Y-109432643D02*
X110470551Y-109432643D01*
X111756265Y-108765976D02*
X111756265Y-109432643D01*
X111518170Y-108385024D02*
X111280075Y-109099309D01*
X111280075Y-109099309D02*
X111899122Y-109099309D01*
X112280075Y-109337404D02*
X112327694Y-109385024D01*
X112327694Y-109385024D02*
X112280075Y-109432643D01*
X112280075Y-109432643D02*
X112232456Y-109385024D01*
X112232456Y-109385024D02*
X112280075Y-109337404D01*
X112280075Y-109337404D02*
X112280075Y-109432643D01*
X112280075Y-108813595D02*
X112327694Y-108861214D01*
X112327694Y-108861214D02*
X112280075Y-108908833D01*
X112280075Y-108908833D02*
X112232456Y-108861214D01*
X112232456Y-108861214D02*
X112280075Y-108813595D01*
X112280075Y-108813595D02*
X112280075Y-108908833D01*
X113422932Y-108432643D02*
X114041979Y-108432643D01*
X114041979Y-108432643D02*
X113708646Y-108813595D01*
X113708646Y-108813595D02*
X113851503Y-108813595D01*
X113851503Y-108813595D02*
X113946741Y-108861214D01*
X113946741Y-108861214D02*
X113994360Y-108908833D01*
X113994360Y-108908833D02*
X114041979Y-109004071D01*
X114041979Y-109004071D02*
X114041979Y-109242166D01*
X114041979Y-109242166D02*
X113994360Y-109337404D01*
X113994360Y-109337404D02*
X113946741Y-109385024D01*
X113946741Y-109385024D02*
X113851503Y-109432643D01*
X113851503Y-109432643D02*
X113565789Y-109432643D01*
X113565789Y-109432643D02*
X113470551Y-109385024D01*
X113470551Y-109385024D02*
X113422932Y-109337404D01*
X114470551Y-109337404D02*
X114518170Y-109385024D01*
X114518170Y-109385024D02*
X114470551Y-109432643D01*
X114470551Y-109432643D02*
X114422932Y-109385024D01*
X114422932Y-109385024D02*
X114470551Y-109337404D01*
X114470551Y-109337404D02*
X114470551Y-109432643D01*
X114851503Y-108432643D02*
X115470550Y-108432643D01*
X115470550Y-108432643D02*
X115137217Y-108813595D01*
X115137217Y-108813595D02*
X115280074Y-108813595D01*
X115280074Y-108813595D02*
X115375312Y-108861214D01*
X115375312Y-108861214D02*
X115422931Y-108908833D01*
X115422931Y-108908833D02*
X115470550Y-109004071D01*
X115470550Y-109004071D02*
X115470550Y-109242166D01*
X115470550Y-109242166D02*
X115422931Y-109337404D01*
X115422931Y-109337404D02*
X115375312Y-109385024D01*
X115375312Y-109385024D02*
X115280074Y-109432643D01*
X115280074Y-109432643D02*
X114994360Y-109432643D01*
X114994360Y-109432643D02*
X114899122Y-109385024D01*
X114899122Y-109385024D02*
X114851503Y-109337404D01*
X115756265Y-108432643D02*
X116089598Y-109432643D01*
X116089598Y-109432643D02*
X116422931Y-108432643D01*
X117518170Y-108765976D02*
X117518170Y-109765976D01*
X117518170Y-108813595D02*
X117613408Y-108765976D01*
X117613408Y-108765976D02*
X117803884Y-108765976D01*
X117803884Y-108765976D02*
X117899122Y-108813595D01*
X117899122Y-108813595D02*
X117946741Y-108861214D01*
X117946741Y-108861214D02*
X117994360Y-108956452D01*
X117994360Y-108956452D02*
X117994360Y-109242166D01*
X117994360Y-109242166D02*
X117946741Y-109337404D01*
X117946741Y-109337404D02*
X117899122Y-109385024D01*
X117899122Y-109385024D02*
X117803884Y-109432643D01*
X117803884Y-109432643D02*
X117613408Y-109432643D01*
X117613408Y-109432643D02*
X117518170Y-109385024D01*
X118422932Y-109432643D02*
X118422932Y-108765976D01*
X118422932Y-108432643D02*
X118375313Y-108480262D01*
X118375313Y-108480262D02*
X118422932Y-108527881D01*
X118422932Y-108527881D02*
X118470551Y-108480262D01*
X118470551Y-108480262D02*
X118422932Y-108432643D01*
X118422932Y-108432643D02*
X118422932Y-108527881D01*
X118899122Y-108765976D02*
X118899122Y-109432643D01*
X118899122Y-108861214D02*
X118946741Y-108813595D01*
X118946741Y-108813595D02*
X119041979Y-108765976D01*
X119041979Y-108765976D02*
X119184836Y-108765976D01*
X119184836Y-108765976D02*
X119280074Y-108813595D01*
X119280074Y-108813595D02*
X119327693Y-108908833D01*
X119327693Y-108908833D02*
X119327693Y-109432643D01*
X119756265Y-109385024D02*
X119851503Y-109432643D01*
X119851503Y-109432643D02*
X120041979Y-109432643D01*
X120041979Y-109432643D02*
X120137217Y-109385024D01*
X120137217Y-109385024D02*
X120184836Y-109289785D01*
X120184836Y-109289785D02*
X120184836Y-109242166D01*
X120184836Y-109242166D02*
X120137217Y-109146928D01*
X120137217Y-109146928D02*
X120041979Y-109099309D01*
X120041979Y-109099309D02*
X119899122Y-109099309D01*
X119899122Y-109099309D02*
X119803884Y-109051690D01*
X119803884Y-109051690D02*
X119756265Y-108956452D01*
X119756265Y-108956452D02*
X119756265Y-108908833D01*
X119756265Y-108908833D02*
X119803884Y-108813595D01*
X119803884Y-108813595D02*
X119899122Y-108765976D01*
X119899122Y-108765976D02*
X120041979Y-108765976D01*
X120041979Y-108765976D02*
X120137217Y-108813595D01*
X107994360Y-111652531D02*
X108184836Y-111652531D01*
X108184836Y-111652531D02*
X108280074Y-111700150D01*
X108280074Y-111700150D02*
X108375312Y-111795388D01*
X108375312Y-111795388D02*
X108422931Y-111985864D01*
X108422931Y-111985864D02*
X108422931Y-112319197D01*
X108422931Y-112319197D02*
X108375312Y-112509673D01*
X108375312Y-112509673D02*
X108280074Y-112604912D01*
X108280074Y-112604912D02*
X108184836Y-112652531D01*
X108184836Y-112652531D02*
X107994360Y-112652531D01*
X107994360Y-112652531D02*
X107899122Y-112604912D01*
X107899122Y-112604912D02*
X107803884Y-112509673D01*
X107803884Y-112509673D02*
X107756265Y-112319197D01*
X107756265Y-112319197D02*
X107756265Y-111985864D01*
X107756265Y-111985864D02*
X107803884Y-111795388D01*
X107803884Y-111795388D02*
X107899122Y-111700150D01*
X107899122Y-111700150D02*
X107994360Y-111652531D01*
X109280074Y-111985864D02*
X109280074Y-112652531D01*
X108851503Y-111985864D02*
X108851503Y-112509673D01*
X108851503Y-112509673D02*
X108899122Y-112604912D01*
X108899122Y-112604912D02*
X108994360Y-112652531D01*
X108994360Y-112652531D02*
X109137217Y-112652531D01*
X109137217Y-112652531D02*
X109232455Y-112604912D01*
X109232455Y-112604912D02*
X109280074Y-112557292D01*
X109613408Y-111985864D02*
X109994360Y-111985864D01*
X109756265Y-111652531D02*
X109756265Y-112509673D01*
X109756265Y-112509673D02*
X109803884Y-112604912D01*
X109803884Y-112604912D02*
X109899122Y-112652531D01*
X109899122Y-112652531D02*
X109994360Y-112652531D01*
X110327694Y-111985864D02*
X110327694Y-112985864D01*
X110327694Y-112033483D02*
X110422932Y-111985864D01*
X110422932Y-111985864D02*
X110613408Y-111985864D01*
X110613408Y-111985864D02*
X110708646Y-112033483D01*
X110708646Y-112033483D02*
X110756265Y-112081102D01*
X110756265Y-112081102D02*
X110803884Y-112176340D01*
X110803884Y-112176340D02*
X110803884Y-112462054D01*
X110803884Y-112462054D02*
X110756265Y-112557292D01*
X110756265Y-112557292D02*
X110708646Y-112604912D01*
X110708646Y-112604912D02*
X110613408Y-112652531D01*
X110613408Y-112652531D02*
X110422932Y-112652531D01*
X110422932Y-112652531D02*
X110327694Y-112604912D01*
X111661027Y-111985864D02*
X111661027Y-112652531D01*
X111232456Y-111985864D02*
X111232456Y-112509673D01*
X111232456Y-112509673D02*
X111280075Y-112604912D01*
X111280075Y-112604912D02*
X111375313Y-112652531D01*
X111375313Y-112652531D02*
X111518170Y-112652531D01*
X111518170Y-112652531D02*
X111613408Y-112604912D01*
X111613408Y-112604912D02*
X111661027Y-112557292D01*
X111994361Y-111985864D02*
X112375313Y-111985864D01*
X112137218Y-111652531D02*
X112137218Y-112509673D01*
X112137218Y-112509673D02*
X112184837Y-112604912D01*
X112184837Y-112604912D02*
X112280075Y-112652531D01*
X112280075Y-112652531D02*
X112375313Y-112652531D01*
X113470552Y-112128721D02*
X113803885Y-112128721D01*
X113946742Y-112652531D02*
X113470552Y-112652531D01*
X113470552Y-112652531D02*
X113470552Y-111652531D01*
X113470552Y-111652531D02*
X113946742Y-111652531D01*
X114375314Y-111985864D02*
X114375314Y-112652531D01*
X114375314Y-112081102D02*
X114422933Y-112033483D01*
X114422933Y-112033483D02*
X114518171Y-111985864D01*
X114518171Y-111985864D02*
X114661028Y-111985864D01*
X114661028Y-111985864D02*
X114756266Y-112033483D01*
X114756266Y-112033483D02*
X114803885Y-112128721D01*
X114803885Y-112128721D02*
X114803885Y-112652531D01*
X115708647Y-112652531D02*
X115708647Y-112128721D01*
X115708647Y-112128721D02*
X115661028Y-112033483D01*
X115661028Y-112033483D02*
X115565790Y-111985864D01*
X115565790Y-111985864D02*
X115375314Y-111985864D01*
X115375314Y-111985864D02*
X115280076Y-112033483D01*
X115708647Y-112604912D02*
X115613409Y-112652531D01*
X115613409Y-112652531D02*
X115375314Y-112652531D01*
X115375314Y-112652531D02*
X115280076Y-112604912D01*
X115280076Y-112604912D02*
X115232457Y-112509673D01*
X115232457Y-112509673D02*
X115232457Y-112414435D01*
X115232457Y-112414435D02*
X115280076Y-112319197D01*
X115280076Y-112319197D02*
X115375314Y-112271578D01*
X115375314Y-112271578D02*
X115613409Y-112271578D01*
X115613409Y-112271578D02*
X115708647Y-112223959D01*
X116184838Y-112652531D02*
X116184838Y-111652531D01*
X116184838Y-112033483D02*
X116280076Y-111985864D01*
X116280076Y-111985864D02*
X116470552Y-111985864D01*
X116470552Y-111985864D02*
X116565790Y-112033483D01*
X116565790Y-112033483D02*
X116613409Y-112081102D01*
X116613409Y-112081102D02*
X116661028Y-112176340D01*
X116661028Y-112176340D02*
X116661028Y-112462054D01*
X116661028Y-112462054D02*
X116613409Y-112557292D01*
X116613409Y-112557292D02*
X116565790Y-112604912D01*
X116565790Y-112604912D02*
X116470552Y-112652531D01*
X116470552Y-112652531D02*
X116280076Y-112652531D01*
X116280076Y-112652531D02*
X116184838Y-112604912D01*
X117232457Y-112652531D02*
X117137219Y-112604912D01*
X117137219Y-112604912D02*
X117089600Y-112509673D01*
X117089600Y-112509673D02*
X117089600Y-111652531D01*
X117994362Y-112604912D02*
X117899124Y-112652531D01*
X117899124Y-112652531D02*
X117708648Y-112652531D01*
X117708648Y-112652531D02*
X117613410Y-112604912D01*
X117613410Y-112604912D02*
X117565791Y-112509673D01*
X117565791Y-112509673D02*
X117565791Y-112128721D01*
X117565791Y-112128721D02*
X117613410Y-112033483D01*
X117613410Y-112033483D02*
X117708648Y-111985864D01*
X117708648Y-111985864D02*
X117899124Y-111985864D01*
X117899124Y-111985864D02*
X117994362Y-112033483D01*
X117994362Y-112033483D02*
X118041981Y-112128721D01*
X118041981Y-112128721D02*
X118041981Y-112223959D01*
X118041981Y-112223959D02*
X117565791Y-112319197D01*
X119137220Y-111985864D02*
X119327696Y-112652531D01*
X119327696Y-112652531D02*
X119518172Y-112176340D01*
X119518172Y-112176340D02*
X119708648Y-112652531D01*
X119708648Y-112652531D02*
X119899124Y-111985864D01*
X120280077Y-112652531D02*
X120280077Y-111985864D01*
X120280077Y-111652531D02*
X120232458Y-111700150D01*
X120232458Y-111700150D02*
X120280077Y-111747769D01*
X120280077Y-111747769D02*
X120327696Y-111700150D01*
X120327696Y-111700150D02*
X120280077Y-111652531D01*
X120280077Y-111652531D02*
X120280077Y-111747769D01*
X120756267Y-112652531D02*
X120756267Y-111985864D01*
X120756267Y-112176340D02*
X120803886Y-112081102D01*
X120803886Y-112081102D02*
X120851505Y-112033483D01*
X120851505Y-112033483D02*
X120946743Y-111985864D01*
X120946743Y-111985864D02*
X121041981Y-111985864D01*
X121756267Y-112604912D02*
X121661029Y-112652531D01*
X121661029Y-112652531D02*
X121470553Y-112652531D01*
X121470553Y-112652531D02*
X121375315Y-112604912D01*
X121375315Y-112604912D02*
X121327696Y-112509673D01*
X121327696Y-112509673D02*
X121327696Y-112128721D01*
X121327696Y-112128721D02*
X121375315Y-112033483D01*
X121375315Y-112033483D02*
X121470553Y-111985864D01*
X121470553Y-111985864D02*
X121661029Y-111985864D01*
X121661029Y-111985864D02*
X121756267Y-112033483D01*
X121756267Y-112033483D02*
X121803886Y-112128721D01*
X121803886Y-112128721D02*
X121803886Y-112223959D01*
X121803886Y-112223959D02*
X121327696Y-112319197D01*
X122661029Y-112652531D02*
X122661029Y-111652531D01*
X122661029Y-112604912D02*
X122565791Y-112652531D01*
X122565791Y-112652531D02*
X122375315Y-112652531D01*
X122375315Y-112652531D02*
X122280077Y-112604912D01*
X122280077Y-112604912D02*
X122232458Y-112557292D01*
X122232458Y-112557292D02*
X122184839Y-112462054D01*
X122184839Y-112462054D02*
X122184839Y-112176340D01*
X122184839Y-112176340D02*
X122232458Y-112081102D01*
X122232458Y-112081102D02*
X122280077Y-112033483D01*
X122280077Y-112033483D02*
X122375315Y-111985864D01*
X122375315Y-111985864D02*
X122565791Y-111985864D01*
X122565791Y-111985864D02*
X122661029Y-112033483D01*
X123756268Y-111985864D02*
X124137220Y-111985864D01*
X123899125Y-111652531D02*
X123899125Y-112509673D01*
X123899125Y-112509673D02*
X123946744Y-112604912D01*
X123946744Y-112604912D02*
X124041982Y-112652531D01*
X124041982Y-112652531D02*
X124137220Y-112652531D01*
X124613411Y-112652531D02*
X124518173Y-112604912D01*
X124518173Y-112604912D02*
X124470554Y-112557292D01*
X124470554Y-112557292D02*
X124422935Y-112462054D01*
X124422935Y-112462054D02*
X124422935Y-112176340D01*
X124422935Y-112176340D02*
X124470554Y-112081102D01*
X124470554Y-112081102D02*
X124518173Y-112033483D01*
X124518173Y-112033483D02*
X124613411Y-111985864D01*
X124613411Y-111985864D02*
X124756268Y-111985864D01*
X124756268Y-111985864D02*
X124851506Y-112033483D01*
X124851506Y-112033483D02*
X124899125Y-112081102D01*
X124899125Y-112081102D02*
X124946744Y-112176340D01*
X124946744Y-112176340D02*
X124946744Y-112462054D01*
X124946744Y-112462054D02*
X124899125Y-112557292D01*
X124899125Y-112557292D02*
X124851506Y-112604912D01*
X124851506Y-112604912D02*
X124756268Y-112652531D01*
X124756268Y-112652531D02*
X124613411Y-112652531D01*
X126661030Y-111700150D02*
X126565792Y-111652531D01*
X126565792Y-111652531D02*
X126422935Y-111652531D01*
X126422935Y-111652531D02*
X126280078Y-111700150D01*
X126280078Y-111700150D02*
X126184840Y-111795388D01*
X126184840Y-111795388D02*
X126137221Y-111890626D01*
X126137221Y-111890626D02*
X126089602Y-112081102D01*
X126089602Y-112081102D02*
X126089602Y-112223959D01*
X126089602Y-112223959D02*
X126137221Y-112414435D01*
X126137221Y-112414435D02*
X126184840Y-112509673D01*
X126184840Y-112509673D02*
X126280078Y-112604912D01*
X126280078Y-112604912D02*
X126422935Y-112652531D01*
X126422935Y-112652531D02*
X126518173Y-112652531D01*
X126518173Y-112652531D02*
X126661030Y-112604912D01*
X126661030Y-112604912D02*
X126708649Y-112557292D01*
X126708649Y-112557292D02*
X126708649Y-112223959D01*
X126708649Y-112223959D02*
X126518173Y-112223959D01*
X127137221Y-112652531D02*
X127137221Y-111652531D01*
X127137221Y-111652531D02*
X127708649Y-112652531D01*
X127708649Y-112652531D02*
X127708649Y-111652531D01*
X128184840Y-112652531D02*
X128184840Y-111652531D01*
X128184840Y-111652531D02*
X128422935Y-111652531D01*
X128422935Y-111652531D02*
X128565792Y-111700150D01*
X128565792Y-111700150D02*
X128661030Y-111795388D01*
X128661030Y-111795388D02*
X128708649Y-111890626D01*
X128708649Y-111890626D02*
X128756268Y-112081102D01*
X128756268Y-112081102D02*
X128756268Y-112223959D01*
X128756268Y-112223959D02*
X128708649Y-112414435D01*
X128708649Y-112414435D02*
X128661030Y-112509673D01*
X128661030Y-112509673D02*
X128565792Y-112604912D01*
X128565792Y-112604912D02*
X128422935Y-112652531D01*
X128422935Y-112652531D02*
X128184840Y-112652531D01*
X107756265Y-115824800D02*
X107899122Y-115872419D01*
X107899122Y-115872419D02*
X108137217Y-115872419D01*
X108137217Y-115872419D02*
X108232455Y-115824800D01*
X108232455Y-115824800D02*
X108280074Y-115777180D01*
X108280074Y-115777180D02*
X108327693Y-115681942D01*
X108327693Y-115681942D02*
X108327693Y-115586704D01*
X108327693Y-115586704D02*
X108280074Y-115491466D01*
X108280074Y-115491466D02*
X108232455Y-115443847D01*
X108232455Y-115443847D02*
X108137217Y-115396228D01*
X108137217Y-115396228D02*
X107946741Y-115348609D01*
X107946741Y-115348609D02*
X107851503Y-115300990D01*
X107851503Y-115300990D02*
X107803884Y-115253371D01*
X107803884Y-115253371D02*
X107756265Y-115158133D01*
X107756265Y-115158133D02*
X107756265Y-115062895D01*
X107756265Y-115062895D02*
X107803884Y-114967657D01*
X107803884Y-114967657D02*
X107851503Y-114920038D01*
X107851503Y-114920038D02*
X107946741Y-114872419D01*
X107946741Y-114872419D02*
X108184836Y-114872419D01*
X108184836Y-114872419D02*
X108327693Y-114920038D01*
X108756265Y-115872419D02*
X108756265Y-114872419D01*
X109184836Y-115872419D02*
X109184836Y-115348609D01*
X109184836Y-115348609D02*
X109137217Y-115253371D01*
X109137217Y-115253371D02*
X109041979Y-115205752D01*
X109041979Y-115205752D02*
X108899122Y-115205752D01*
X108899122Y-115205752D02*
X108803884Y-115253371D01*
X108803884Y-115253371D02*
X108756265Y-115300990D01*
X109661027Y-115872419D02*
X109661027Y-115205752D01*
X109661027Y-114872419D02*
X109613408Y-114920038D01*
X109613408Y-114920038D02*
X109661027Y-114967657D01*
X109661027Y-114967657D02*
X109708646Y-114920038D01*
X109708646Y-114920038D02*
X109661027Y-114872419D01*
X109661027Y-114872419D02*
X109661027Y-114967657D01*
X109994360Y-115205752D02*
X110375312Y-115205752D01*
X110137217Y-115872419D02*
X110137217Y-115015276D01*
X110137217Y-115015276D02*
X110184836Y-114920038D01*
X110184836Y-114920038D02*
X110280074Y-114872419D01*
X110280074Y-114872419D02*
X110375312Y-114872419D01*
X110565789Y-115205752D02*
X110946741Y-115205752D01*
X110708646Y-114872419D02*
X110708646Y-115729561D01*
X110708646Y-115729561D02*
X110756265Y-115824800D01*
X110756265Y-115824800D02*
X110851503Y-115872419D01*
X110851503Y-115872419D02*
X110946741Y-115872419D01*
X112613408Y-115872419D02*
X112280075Y-115396228D01*
X112041980Y-115872419D02*
X112041980Y-114872419D01*
X112041980Y-114872419D02*
X112422932Y-114872419D01*
X112422932Y-114872419D02*
X112518170Y-114920038D01*
X112518170Y-114920038D02*
X112565789Y-114967657D01*
X112565789Y-114967657D02*
X112613408Y-115062895D01*
X112613408Y-115062895D02*
X112613408Y-115205752D01*
X112613408Y-115205752D02*
X112565789Y-115300990D01*
X112565789Y-115300990D02*
X112518170Y-115348609D01*
X112518170Y-115348609D02*
X112422932Y-115396228D01*
X112422932Y-115396228D02*
X112041980Y-115396228D01*
X113422932Y-115824800D02*
X113327694Y-115872419D01*
X113327694Y-115872419D02*
X113137218Y-115872419D01*
X113137218Y-115872419D02*
X113041980Y-115824800D01*
X113041980Y-115824800D02*
X112994361Y-115729561D01*
X112994361Y-115729561D02*
X112994361Y-115348609D01*
X112994361Y-115348609D02*
X113041980Y-115253371D01*
X113041980Y-115253371D02*
X113137218Y-115205752D01*
X113137218Y-115205752D02*
X113327694Y-115205752D01*
X113327694Y-115205752D02*
X113422932Y-115253371D01*
X113422932Y-115253371D02*
X113470551Y-115348609D01*
X113470551Y-115348609D02*
X113470551Y-115443847D01*
X113470551Y-115443847D02*
X112994361Y-115539085D01*
X114327694Y-115205752D02*
X114327694Y-116015276D01*
X114327694Y-116015276D02*
X114280075Y-116110514D01*
X114280075Y-116110514D02*
X114232456Y-116158133D01*
X114232456Y-116158133D02*
X114137218Y-116205752D01*
X114137218Y-116205752D02*
X113994361Y-116205752D01*
X113994361Y-116205752D02*
X113899123Y-116158133D01*
X114327694Y-115824800D02*
X114232456Y-115872419D01*
X114232456Y-115872419D02*
X114041980Y-115872419D01*
X114041980Y-115872419D02*
X113946742Y-115824800D01*
X113946742Y-115824800D02*
X113899123Y-115777180D01*
X113899123Y-115777180D02*
X113851504Y-115681942D01*
X113851504Y-115681942D02*
X113851504Y-115396228D01*
X113851504Y-115396228D02*
X113899123Y-115300990D01*
X113899123Y-115300990D02*
X113946742Y-115253371D01*
X113946742Y-115253371D02*
X114041980Y-115205752D01*
X114041980Y-115205752D02*
X114232456Y-115205752D01*
X114232456Y-115205752D02*
X114327694Y-115253371D01*
X114803885Y-115872419D02*
X114803885Y-115205752D01*
X114803885Y-114872419D02*
X114756266Y-114920038D01*
X114756266Y-114920038D02*
X114803885Y-114967657D01*
X114803885Y-114967657D02*
X114851504Y-114920038D01*
X114851504Y-114920038D02*
X114803885Y-114872419D01*
X114803885Y-114872419D02*
X114803885Y-114967657D01*
X115232456Y-115824800D02*
X115327694Y-115872419D01*
X115327694Y-115872419D02*
X115518170Y-115872419D01*
X115518170Y-115872419D02*
X115613408Y-115824800D01*
X115613408Y-115824800D02*
X115661027Y-115729561D01*
X115661027Y-115729561D02*
X115661027Y-115681942D01*
X115661027Y-115681942D02*
X115613408Y-115586704D01*
X115613408Y-115586704D02*
X115518170Y-115539085D01*
X115518170Y-115539085D02*
X115375313Y-115539085D01*
X115375313Y-115539085D02*
X115280075Y-115491466D01*
X115280075Y-115491466D02*
X115232456Y-115396228D01*
X115232456Y-115396228D02*
X115232456Y-115348609D01*
X115232456Y-115348609D02*
X115280075Y-115253371D01*
X115280075Y-115253371D02*
X115375313Y-115205752D01*
X115375313Y-115205752D02*
X115518170Y-115205752D01*
X115518170Y-115205752D02*
X115613408Y-115253371D01*
X115946742Y-115205752D02*
X116327694Y-115205752D01*
X116089599Y-114872419D02*
X116089599Y-115729561D01*
X116089599Y-115729561D02*
X116137218Y-115824800D01*
X116137218Y-115824800D02*
X116232456Y-115872419D01*
X116232456Y-115872419D02*
X116327694Y-115872419D01*
X117041980Y-115824800D02*
X116946742Y-115872419D01*
X116946742Y-115872419D02*
X116756266Y-115872419D01*
X116756266Y-115872419D02*
X116661028Y-115824800D01*
X116661028Y-115824800D02*
X116613409Y-115729561D01*
X116613409Y-115729561D02*
X116613409Y-115348609D01*
X116613409Y-115348609D02*
X116661028Y-115253371D01*
X116661028Y-115253371D02*
X116756266Y-115205752D01*
X116756266Y-115205752D02*
X116946742Y-115205752D01*
X116946742Y-115205752D02*
X117041980Y-115253371D01*
X117041980Y-115253371D02*
X117089599Y-115348609D01*
X117089599Y-115348609D02*
X117089599Y-115443847D01*
X117089599Y-115443847D02*
X116613409Y-115539085D01*
X117518171Y-115872419D02*
X117518171Y-115205752D01*
X117518171Y-115396228D02*
X117565790Y-115300990D01*
X117565790Y-115300990D02*
X117613409Y-115253371D01*
X117613409Y-115253371D02*
X117708647Y-115205752D01*
X117708647Y-115205752D02*
X117803885Y-115205752D01*
X119470552Y-115777180D02*
X119422933Y-115824800D01*
X119422933Y-115824800D02*
X119280076Y-115872419D01*
X119280076Y-115872419D02*
X119184838Y-115872419D01*
X119184838Y-115872419D02*
X119041981Y-115824800D01*
X119041981Y-115824800D02*
X118946743Y-115729561D01*
X118946743Y-115729561D02*
X118899124Y-115634323D01*
X118899124Y-115634323D02*
X118851505Y-115443847D01*
X118851505Y-115443847D02*
X118851505Y-115300990D01*
X118851505Y-115300990D02*
X118899124Y-115110514D01*
X118899124Y-115110514D02*
X118946743Y-115015276D01*
X118946743Y-115015276D02*
X119041981Y-114920038D01*
X119041981Y-114920038D02*
X119184838Y-114872419D01*
X119184838Y-114872419D02*
X119280076Y-114872419D01*
X119280076Y-114872419D02*
X119422933Y-114920038D01*
X119422933Y-114920038D02*
X119470552Y-114967657D01*
X120041981Y-115872419D02*
X119946743Y-115824800D01*
X119946743Y-115824800D02*
X119899124Y-115729561D01*
X119899124Y-115729561D02*
X119899124Y-114872419D01*
X120803886Y-115824800D02*
X120708648Y-115872419D01*
X120708648Y-115872419D02*
X120518172Y-115872419D01*
X120518172Y-115872419D02*
X120422934Y-115824800D01*
X120422934Y-115824800D02*
X120375315Y-115729561D01*
X120375315Y-115729561D02*
X120375315Y-115348609D01*
X120375315Y-115348609D02*
X120422934Y-115253371D01*
X120422934Y-115253371D02*
X120518172Y-115205752D01*
X120518172Y-115205752D02*
X120708648Y-115205752D01*
X120708648Y-115205752D02*
X120803886Y-115253371D01*
X120803886Y-115253371D02*
X120851505Y-115348609D01*
X120851505Y-115348609D02*
X120851505Y-115443847D01*
X120851505Y-115443847D02*
X120375315Y-115539085D01*
X121708648Y-115872419D02*
X121708648Y-115348609D01*
X121708648Y-115348609D02*
X121661029Y-115253371D01*
X121661029Y-115253371D02*
X121565791Y-115205752D01*
X121565791Y-115205752D02*
X121375315Y-115205752D01*
X121375315Y-115205752D02*
X121280077Y-115253371D01*
X121708648Y-115824800D02*
X121613410Y-115872419D01*
X121613410Y-115872419D02*
X121375315Y-115872419D01*
X121375315Y-115872419D02*
X121280077Y-115824800D01*
X121280077Y-115824800D02*
X121232458Y-115729561D01*
X121232458Y-115729561D02*
X121232458Y-115634323D01*
X121232458Y-115634323D02*
X121280077Y-115539085D01*
X121280077Y-115539085D02*
X121375315Y-115491466D01*
X121375315Y-115491466D02*
X121613410Y-115491466D01*
X121613410Y-115491466D02*
X121708648Y-115443847D01*
X122184839Y-115872419D02*
X122184839Y-115205752D01*
X122184839Y-115396228D02*
X122232458Y-115300990D01*
X122232458Y-115300990D02*
X122280077Y-115253371D01*
X122280077Y-115253371D02*
X122375315Y-115205752D01*
X122375315Y-115205752D02*
X122470553Y-115205752D01*
X123470554Y-115205752D02*
X123661030Y-115872419D01*
X123661030Y-115872419D02*
X123851506Y-115396228D01*
X123851506Y-115396228D02*
X124041982Y-115872419D01*
X124041982Y-115872419D02*
X124232458Y-115205752D01*
X124613411Y-115872419D02*
X124613411Y-115205752D01*
X124613411Y-114872419D02*
X124565792Y-114920038D01*
X124565792Y-114920038D02*
X124613411Y-114967657D01*
X124613411Y-114967657D02*
X124661030Y-114920038D01*
X124661030Y-114920038D02*
X124613411Y-114872419D01*
X124613411Y-114872419D02*
X124613411Y-114967657D01*
X125089601Y-115872419D02*
X125089601Y-115205752D01*
X125089601Y-115396228D02*
X125137220Y-115300990D01*
X125137220Y-115300990D02*
X125184839Y-115253371D01*
X125184839Y-115253371D02*
X125280077Y-115205752D01*
X125280077Y-115205752D02*
X125375315Y-115205752D01*
X126089601Y-115824800D02*
X125994363Y-115872419D01*
X125994363Y-115872419D02*
X125803887Y-115872419D01*
X125803887Y-115872419D02*
X125708649Y-115824800D01*
X125708649Y-115824800D02*
X125661030Y-115729561D01*
X125661030Y-115729561D02*
X125661030Y-115348609D01*
X125661030Y-115348609D02*
X125708649Y-115253371D01*
X125708649Y-115253371D02*
X125803887Y-115205752D01*
X125803887Y-115205752D02*
X125994363Y-115205752D01*
X125994363Y-115205752D02*
X126089601Y-115253371D01*
X126089601Y-115253371D02*
X126137220Y-115348609D01*
X126137220Y-115348609D02*
X126137220Y-115443847D01*
X126137220Y-115443847D02*
X125661030Y-115539085D01*
X126994363Y-115872419D02*
X126994363Y-114872419D01*
X126994363Y-115824800D02*
X126899125Y-115872419D01*
X126899125Y-115872419D02*
X126708649Y-115872419D01*
X126708649Y-115872419D02*
X126613411Y-115824800D01*
X126613411Y-115824800D02*
X126565792Y-115777180D01*
X126565792Y-115777180D02*
X126518173Y-115681942D01*
X126518173Y-115681942D02*
X126518173Y-115396228D01*
X126518173Y-115396228D02*
X126565792Y-115300990D01*
X126565792Y-115300990D02*
X126613411Y-115253371D01*
X126613411Y-115253371D02*
X126708649Y-115205752D01*
X126708649Y-115205752D02*
X126899125Y-115205752D01*
X126899125Y-115205752D02*
X126994363Y-115253371D01*
X128089602Y-115205752D02*
X128470554Y-115205752D01*
X128232459Y-114872419D02*
X128232459Y-115729561D01*
X128232459Y-115729561D02*
X128280078Y-115824800D01*
X128280078Y-115824800D02*
X128375316Y-115872419D01*
X128375316Y-115872419D02*
X128470554Y-115872419D01*
X128946745Y-115872419D02*
X128851507Y-115824800D01*
X128851507Y-115824800D02*
X128803888Y-115777180D01*
X128803888Y-115777180D02*
X128756269Y-115681942D01*
X128756269Y-115681942D02*
X128756269Y-115396228D01*
X128756269Y-115396228D02*
X128803888Y-115300990D01*
X128803888Y-115300990D02*
X128851507Y-115253371D01*
X128851507Y-115253371D02*
X128946745Y-115205752D01*
X128946745Y-115205752D02*
X129089602Y-115205752D01*
X129089602Y-115205752D02*
X129184840Y-115253371D01*
X129184840Y-115253371D02*
X129232459Y-115300990D01*
X129232459Y-115300990D02*
X129280078Y-115396228D01*
X129280078Y-115396228D02*
X129280078Y-115681942D01*
X129280078Y-115681942D02*
X129232459Y-115777180D01*
X129232459Y-115777180D02*
X129184840Y-115824800D01*
X129184840Y-115824800D02*
X129089602Y-115872419D01*
X129089602Y-115872419D02*
X128946745Y-115872419D01*
X130375317Y-114872419D02*
X130994364Y-114872419D01*
X130994364Y-114872419D02*
X130661031Y-115253371D01*
X130661031Y-115253371D02*
X130803888Y-115253371D01*
X130803888Y-115253371D02*
X130899126Y-115300990D01*
X130899126Y-115300990D02*
X130946745Y-115348609D01*
X130946745Y-115348609D02*
X130994364Y-115443847D01*
X130994364Y-115443847D02*
X130994364Y-115681942D01*
X130994364Y-115681942D02*
X130946745Y-115777180D01*
X130946745Y-115777180D02*
X130899126Y-115824800D01*
X130899126Y-115824800D02*
X130803888Y-115872419D01*
X130803888Y-115872419D02*
X130518174Y-115872419D01*
X130518174Y-115872419D02*
X130422936Y-115824800D01*
X130422936Y-115824800D02*
X130375317Y-115777180D01*
X131422936Y-115777180D02*
X131470555Y-115824800D01*
X131470555Y-115824800D02*
X131422936Y-115872419D01*
X131422936Y-115872419D02*
X131375317Y-115824800D01*
X131375317Y-115824800D02*
X131422936Y-115777180D01*
X131422936Y-115777180D02*
X131422936Y-115872419D01*
X131803888Y-114872419D02*
X132422935Y-114872419D01*
X132422935Y-114872419D02*
X132089602Y-115253371D01*
X132089602Y-115253371D02*
X132232459Y-115253371D01*
X132232459Y-115253371D02*
X132327697Y-115300990D01*
X132327697Y-115300990D02*
X132375316Y-115348609D01*
X132375316Y-115348609D02*
X132422935Y-115443847D01*
X132422935Y-115443847D02*
X132422935Y-115681942D01*
X132422935Y-115681942D02*
X132375316Y-115777180D01*
X132375316Y-115777180D02*
X132327697Y-115824800D01*
X132327697Y-115824800D02*
X132232459Y-115872419D01*
X132232459Y-115872419D02*
X131946745Y-115872419D01*
X131946745Y-115872419D02*
X131851507Y-115824800D01*
X131851507Y-115824800D02*
X131803888Y-115777180D01*
X132708650Y-114872419D02*
X133041983Y-115872419D01*
X133041983Y-115872419D02*
X133375316Y-114872419D01*
D11*
X112583333Y-70859580D02*
X112535714Y-70907200D01*
X112535714Y-70907200D02*
X112392857Y-70954819D01*
X112392857Y-70954819D02*
X112297619Y-70954819D01*
X112297619Y-70954819D02*
X112154762Y-70907200D01*
X112154762Y-70907200D02*
X112059524Y-70811961D01*
X112059524Y-70811961D02*
X112011905Y-70716723D01*
X112011905Y-70716723D02*
X111964286Y-70526247D01*
X111964286Y-70526247D02*
X111964286Y-70383390D01*
X111964286Y-70383390D02*
X112011905Y-70192914D01*
X112011905Y-70192914D02*
X112059524Y-70097676D01*
X112059524Y-70097676D02*
X112154762Y-70002438D01*
X112154762Y-70002438D02*
X112297619Y-69954819D01*
X112297619Y-69954819D02*
X112392857Y-69954819D01*
X112392857Y-69954819D02*
X112535714Y-70002438D01*
X112535714Y-70002438D02*
X112583333Y-70050057D01*
X113535714Y-70954819D02*
X112964286Y-70954819D01*
X113250000Y-70954819D02*
X113250000Y-69954819D01*
X113250000Y-69954819D02*
X113154762Y-70097676D01*
X113154762Y-70097676D02*
X113059524Y-70192914D01*
X113059524Y-70192914D02*
X112964286Y-70240533D01*
X103666666Y-88954819D02*
X103666666Y-89669104D01*
X103666666Y-89669104D02*
X103619047Y-89811961D01*
X103619047Y-89811961D02*
X103523809Y-89907200D01*
X103523809Y-89907200D02*
X103380952Y-89954819D01*
X103380952Y-89954819D02*
X103285714Y-89954819D01*
X104571428Y-89288152D02*
X104571428Y-89954819D01*
X104333333Y-88907200D02*
X104095238Y-89621485D01*
X104095238Y-89621485D02*
X104714285Y-89621485D01*
X103666666Y-62454819D02*
X103666666Y-63169104D01*
X103666666Y-63169104D02*
X103619047Y-63311961D01*
X103619047Y-63311961D02*
X103523809Y-63407200D01*
X103523809Y-63407200D02*
X103380952Y-63454819D01*
X103380952Y-63454819D02*
X103285714Y-63454819D01*
X104047619Y-62454819D02*
X104666666Y-62454819D01*
X104666666Y-62454819D02*
X104333333Y-62835771D01*
X104333333Y-62835771D02*
X104476190Y-62835771D01*
X104476190Y-62835771D02*
X104571428Y-62883390D01*
X104571428Y-62883390D02*
X104619047Y-62931009D01*
X104619047Y-62931009D02*
X104666666Y-63026247D01*
X104666666Y-63026247D02*
X104666666Y-63264342D01*
X104666666Y-63264342D02*
X104619047Y-63359580D01*
X104619047Y-63359580D02*
X104571428Y-63407200D01*
X104571428Y-63407200D02*
X104476190Y-63454819D01*
X104476190Y-63454819D02*
X104190476Y-63454819D01*
X104190476Y-63454819D02*
X104095238Y-63407200D01*
X104095238Y-63407200D02*
X104047619Y-63359580D01*
X151166666Y-53954819D02*
X151166666Y-54669104D01*
X151166666Y-54669104D02*
X151119047Y-54811961D01*
X151119047Y-54811961D02*
X151023809Y-54907200D01*
X151023809Y-54907200D02*
X150880952Y-54954819D01*
X150880952Y-54954819D02*
X150785714Y-54954819D01*
X151595238Y-54050057D02*
X151642857Y-54002438D01*
X151642857Y-54002438D02*
X151738095Y-53954819D01*
X151738095Y-53954819D02*
X151976190Y-53954819D01*
X151976190Y-53954819D02*
X152071428Y-54002438D01*
X152071428Y-54002438D02*
X152119047Y-54050057D01*
X152119047Y-54050057D02*
X152166666Y-54145295D01*
X152166666Y-54145295D02*
X152166666Y-54240533D01*
X152166666Y-54240533D02*
X152119047Y-54383390D01*
X152119047Y-54383390D02*
X151547619Y-54954819D01*
X151547619Y-54954819D02*
X152166666Y-54954819D01*
X103666666Y-55454819D02*
X103666666Y-56169104D01*
X103666666Y-56169104D02*
X103619047Y-56311961D01*
X103619047Y-56311961D02*
X103523809Y-56407200D01*
X103523809Y-56407200D02*
X103380952Y-56454819D01*
X103380952Y-56454819D02*
X103285714Y-56454819D01*
X104666666Y-56454819D02*
X104095238Y-56454819D01*
X104380952Y-56454819D02*
X104380952Y-55454819D01*
X104380952Y-55454819D02*
X104285714Y-55597676D01*
X104285714Y-55597676D02*
X104190476Y-55692914D01*
X104190476Y-55692914D02*
X104095238Y-55740533D01*
X116238095Y-66954819D02*
X116238095Y-67764342D01*
X116238095Y-67764342D02*
X116285714Y-67859580D01*
X116285714Y-67859580D02*
X116333333Y-67907200D01*
X116333333Y-67907200D02*
X116428571Y-67954819D01*
X116428571Y-67954819D02*
X116619047Y-67954819D01*
X116619047Y-67954819D02*
X116714285Y-67907200D01*
X116714285Y-67907200D02*
X116761904Y-67859580D01*
X116761904Y-67859580D02*
X116809523Y-67764342D01*
X116809523Y-67764342D02*
X116809523Y-66954819D01*
X117809523Y-67954819D02*
X117238095Y-67954819D01*
X117523809Y-67954819D02*
X117523809Y-66954819D01*
X117523809Y-66954819D02*
X117428571Y-67097676D01*
X117428571Y-67097676D02*
X117333333Y-67192914D01*
X117333333Y-67192914D02*
X117238095Y-67240533D01*
X139333333Y-110954819D02*
X139000000Y-110478628D01*
X138761905Y-110954819D02*
X138761905Y-109954819D01*
X138761905Y-109954819D02*
X139142857Y-109954819D01*
X139142857Y-109954819D02*
X139238095Y-110002438D01*
X139238095Y-110002438D02*
X139285714Y-110050057D01*
X139285714Y-110050057D02*
X139333333Y-110145295D01*
X139333333Y-110145295D02*
X139333333Y-110288152D01*
X139333333Y-110288152D02*
X139285714Y-110383390D01*
X139285714Y-110383390D02*
X139238095Y-110431009D01*
X139238095Y-110431009D02*
X139142857Y-110478628D01*
X139142857Y-110478628D02*
X138761905Y-110478628D01*
X139904762Y-110383390D02*
X139809524Y-110335771D01*
X139809524Y-110335771D02*
X139761905Y-110288152D01*
X139761905Y-110288152D02*
X139714286Y-110192914D01*
X139714286Y-110192914D02*
X139714286Y-110145295D01*
X139714286Y-110145295D02*
X139761905Y-110050057D01*
X139761905Y-110050057D02*
X139809524Y-110002438D01*
X139809524Y-110002438D02*
X139904762Y-109954819D01*
X139904762Y-109954819D02*
X140095238Y-109954819D01*
X140095238Y-109954819D02*
X140190476Y-110002438D01*
X140190476Y-110002438D02*
X140238095Y-110050057D01*
X140238095Y-110050057D02*
X140285714Y-110145295D01*
X140285714Y-110145295D02*
X140285714Y-110192914D01*
X140285714Y-110192914D02*
X140238095Y-110288152D01*
X140238095Y-110288152D02*
X140190476Y-110335771D01*
X140190476Y-110335771D02*
X140095238Y-110383390D01*
X140095238Y-110383390D02*
X139904762Y-110383390D01*
X139904762Y-110383390D02*
X139809524Y-110431009D01*
X139809524Y-110431009D02*
X139761905Y-110478628D01*
X139761905Y-110478628D02*
X139714286Y-110573866D01*
X139714286Y-110573866D02*
X139714286Y-110764342D01*
X139714286Y-110764342D02*
X139761905Y-110859580D01*
X139761905Y-110859580D02*
X139809524Y-110907200D01*
X139809524Y-110907200D02*
X139904762Y-110954819D01*
X139904762Y-110954819D02*
X140095238Y-110954819D01*
X140095238Y-110954819D02*
X140190476Y-110907200D01*
X140190476Y-110907200D02*
X140238095Y-110859580D01*
X140238095Y-110859580D02*
X140285714Y-110764342D01*
X140285714Y-110764342D02*
X140285714Y-110573866D01*
X140285714Y-110573866D02*
X140238095Y-110478628D01*
X140238095Y-110478628D02*
X140190476Y-110431009D01*
X140190476Y-110431009D02*
X140095238Y-110383390D01*
X139333333Y-102954819D02*
X139000000Y-102478628D01*
X138761905Y-102954819D02*
X138761905Y-101954819D01*
X138761905Y-101954819D02*
X139142857Y-101954819D01*
X139142857Y-101954819D02*
X139238095Y-102002438D01*
X139238095Y-102002438D02*
X139285714Y-102050057D01*
X139285714Y-102050057D02*
X139333333Y-102145295D01*
X139333333Y-102145295D02*
X139333333Y-102288152D01*
X139333333Y-102288152D02*
X139285714Y-102383390D01*
X139285714Y-102383390D02*
X139238095Y-102431009D01*
X139238095Y-102431009D02*
X139142857Y-102478628D01*
X139142857Y-102478628D02*
X138761905Y-102478628D01*
X139666667Y-101954819D02*
X140333333Y-101954819D01*
X140333333Y-101954819D02*
X139904762Y-102954819D01*
X139333333Y-94954819D02*
X139000000Y-94478628D01*
X138761905Y-94954819D02*
X138761905Y-93954819D01*
X138761905Y-93954819D02*
X139142857Y-93954819D01*
X139142857Y-93954819D02*
X139238095Y-94002438D01*
X139238095Y-94002438D02*
X139285714Y-94050057D01*
X139285714Y-94050057D02*
X139333333Y-94145295D01*
X139333333Y-94145295D02*
X139333333Y-94288152D01*
X139333333Y-94288152D02*
X139285714Y-94383390D01*
X139285714Y-94383390D02*
X139238095Y-94431009D01*
X139238095Y-94431009D02*
X139142857Y-94478628D01*
X139142857Y-94478628D02*
X138761905Y-94478628D01*
X140190476Y-93954819D02*
X140000000Y-93954819D01*
X140000000Y-93954819D02*
X139904762Y-94002438D01*
X139904762Y-94002438D02*
X139857143Y-94050057D01*
X139857143Y-94050057D02*
X139761905Y-94192914D01*
X139761905Y-94192914D02*
X139714286Y-94383390D01*
X139714286Y-94383390D02*
X139714286Y-94764342D01*
X139714286Y-94764342D02*
X139761905Y-94859580D01*
X139761905Y-94859580D02*
X139809524Y-94907200D01*
X139809524Y-94907200D02*
X139904762Y-94954819D01*
X139904762Y-94954819D02*
X140095238Y-94954819D01*
X140095238Y-94954819D02*
X140190476Y-94907200D01*
X140190476Y-94907200D02*
X140238095Y-94859580D01*
X140238095Y-94859580D02*
X140285714Y-94764342D01*
X140285714Y-94764342D02*
X140285714Y-94526247D01*
X140285714Y-94526247D02*
X140238095Y-94431009D01*
X140238095Y-94431009D02*
X140190476Y-94383390D01*
X140190476Y-94383390D02*
X140095238Y-94335771D01*
X140095238Y-94335771D02*
X139904762Y-94335771D01*
X139904762Y-94335771D02*
X139809524Y-94383390D01*
X139809524Y-94383390D02*
X139761905Y-94431009D01*
X139761905Y-94431009D02*
X139714286Y-94526247D01*
X139333333Y-86954819D02*
X139000000Y-86478628D01*
X138761905Y-86954819D02*
X138761905Y-85954819D01*
X138761905Y-85954819D02*
X139142857Y-85954819D01*
X139142857Y-85954819D02*
X139238095Y-86002438D01*
X139238095Y-86002438D02*
X139285714Y-86050057D01*
X139285714Y-86050057D02*
X139333333Y-86145295D01*
X139333333Y-86145295D02*
X139333333Y-86288152D01*
X139333333Y-86288152D02*
X139285714Y-86383390D01*
X139285714Y-86383390D02*
X139238095Y-86431009D01*
X139238095Y-86431009D02*
X139142857Y-86478628D01*
X139142857Y-86478628D02*
X138761905Y-86478628D01*
X140238095Y-85954819D02*
X139761905Y-85954819D01*
X139761905Y-85954819D02*
X139714286Y-86431009D01*
X139714286Y-86431009D02*
X139761905Y-86383390D01*
X139761905Y-86383390D02*
X139857143Y-86335771D01*
X139857143Y-86335771D02*
X140095238Y-86335771D01*
X140095238Y-86335771D02*
X140190476Y-86383390D01*
X140190476Y-86383390D02*
X140238095Y-86431009D01*
X140238095Y-86431009D02*
X140285714Y-86526247D01*
X140285714Y-86526247D02*
X140285714Y-86764342D01*
X140285714Y-86764342D02*
X140238095Y-86859580D01*
X140238095Y-86859580D02*
X140190476Y-86907200D01*
X140190476Y-86907200D02*
X140095238Y-86954819D01*
X140095238Y-86954819D02*
X139857143Y-86954819D01*
X139857143Y-86954819D02*
X139761905Y-86907200D01*
X139761905Y-86907200D02*
X139714286Y-86859580D01*
X139333333Y-78954819D02*
X139000000Y-78478628D01*
X138761905Y-78954819D02*
X138761905Y-77954819D01*
X138761905Y-77954819D02*
X139142857Y-77954819D01*
X139142857Y-77954819D02*
X139238095Y-78002438D01*
X139238095Y-78002438D02*
X139285714Y-78050057D01*
X139285714Y-78050057D02*
X139333333Y-78145295D01*
X139333333Y-78145295D02*
X139333333Y-78288152D01*
X139333333Y-78288152D02*
X139285714Y-78383390D01*
X139285714Y-78383390D02*
X139238095Y-78431009D01*
X139238095Y-78431009D02*
X139142857Y-78478628D01*
X139142857Y-78478628D02*
X138761905Y-78478628D01*
X140190476Y-78288152D02*
X140190476Y-78954819D01*
X139952381Y-77907200D02*
X139714286Y-78621485D01*
X139714286Y-78621485D02*
X140333333Y-78621485D01*
X139333333Y-71454819D02*
X139000000Y-70978628D01*
X138761905Y-71454819D02*
X138761905Y-70454819D01*
X138761905Y-70454819D02*
X139142857Y-70454819D01*
X139142857Y-70454819D02*
X139238095Y-70502438D01*
X139238095Y-70502438D02*
X139285714Y-70550057D01*
X139285714Y-70550057D02*
X139333333Y-70645295D01*
X139333333Y-70645295D02*
X139333333Y-70788152D01*
X139333333Y-70788152D02*
X139285714Y-70883390D01*
X139285714Y-70883390D02*
X139238095Y-70931009D01*
X139238095Y-70931009D02*
X139142857Y-70978628D01*
X139142857Y-70978628D02*
X138761905Y-70978628D01*
X139666667Y-70454819D02*
X140285714Y-70454819D01*
X140285714Y-70454819D02*
X139952381Y-70835771D01*
X139952381Y-70835771D02*
X140095238Y-70835771D01*
X140095238Y-70835771D02*
X140190476Y-70883390D01*
X140190476Y-70883390D02*
X140238095Y-70931009D01*
X140238095Y-70931009D02*
X140285714Y-71026247D01*
X140285714Y-71026247D02*
X140285714Y-71264342D01*
X140285714Y-71264342D02*
X140238095Y-71359580D01*
X140238095Y-71359580D02*
X140190476Y-71407200D01*
X140190476Y-71407200D02*
X140095238Y-71454819D01*
X140095238Y-71454819D02*
X139809524Y-71454819D01*
X139809524Y-71454819D02*
X139714286Y-71407200D01*
X139714286Y-71407200D02*
X139666667Y-71359580D01*
X139333333Y-63954819D02*
X139000000Y-63478628D01*
X138761905Y-63954819D02*
X138761905Y-62954819D01*
X138761905Y-62954819D02*
X139142857Y-62954819D01*
X139142857Y-62954819D02*
X139238095Y-63002438D01*
X139238095Y-63002438D02*
X139285714Y-63050057D01*
X139285714Y-63050057D02*
X139333333Y-63145295D01*
X139333333Y-63145295D02*
X139333333Y-63288152D01*
X139333333Y-63288152D02*
X139285714Y-63383390D01*
X139285714Y-63383390D02*
X139238095Y-63431009D01*
X139238095Y-63431009D02*
X139142857Y-63478628D01*
X139142857Y-63478628D02*
X138761905Y-63478628D01*
X139714286Y-63050057D02*
X139761905Y-63002438D01*
X139761905Y-63002438D02*
X139857143Y-62954819D01*
X139857143Y-62954819D02*
X140095238Y-62954819D01*
X140095238Y-62954819D02*
X140190476Y-63002438D01*
X140190476Y-63002438D02*
X140238095Y-63050057D01*
X140238095Y-63050057D02*
X140285714Y-63145295D01*
X140285714Y-63145295D02*
X140285714Y-63240533D01*
X140285714Y-63240533D02*
X140238095Y-63383390D01*
X140238095Y-63383390D02*
X139666667Y-63954819D01*
X139666667Y-63954819D02*
X140285714Y-63954819D01*
X139333333Y-56454819D02*
X139000000Y-55978628D01*
X138761905Y-56454819D02*
X138761905Y-55454819D01*
X138761905Y-55454819D02*
X139142857Y-55454819D01*
X139142857Y-55454819D02*
X139238095Y-55502438D01*
X139238095Y-55502438D02*
X139285714Y-55550057D01*
X139285714Y-55550057D02*
X139333333Y-55645295D01*
X139333333Y-55645295D02*
X139333333Y-55788152D01*
X139333333Y-55788152D02*
X139285714Y-55883390D01*
X139285714Y-55883390D02*
X139238095Y-55931009D01*
X139238095Y-55931009D02*
X139142857Y-55978628D01*
X139142857Y-55978628D02*
X138761905Y-55978628D01*
X140285714Y-56454819D02*
X139714286Y-56454819D01*
X140000000Y-56454819D02*
X140000000Y-55454819D01*
X140000000Y-55454819D02*
X139904762Y-55597676D01*
X139904762Y-55597676D02*
X139809524Y-55692914D01*
X139809524Y-55692914D02*
X139714286Y-55740533D01*
D12*
%TO.C,C1*%
X109677738Y-72885000D02*
X110227738Y-72885000D01*
X109952738Y-72610000D02*
X109952738Y-73160000D01*
X115620000Y-74500000D02*
G75*
G02*
X109880000Y-74500000I-2870000J0D01*
G01*
X109880000Y-74500000D02*
G75*
G02*
X115620000Y-74500000I2870000J0D01*
G01*
%TO.C,J4*%
X102620000Y-91040000D02*
X104000000Y-91040000D01*
X102620000Y-92420000D02*
X102620000Y-91040000D01*
X102620000Y-93690000D02*
X102620000Y-111580000D01*
X102620000Y-93690000D02*
X105380000Y-93690000D01*
X102620000Y-111580000D02*
X105380000Y-111580000D01*
X105380000Y-93690000D02*
X105380000Y-111580000D01*
%TO.C,J3*%
X102620000Y-64580000D02*
X104000000Y-64580000D01*
X102620000Y-65960000D02*
X102620000Y-64580000D01*
X102620000Y-67230000D02*
X102620000Y-85120000D01*
X102620000Y-67230000D02*
X105380000Y-67230000D01*
X102620000Y-85120000D02*
X105380000Y-85120000D01*
X105380000Y-67230000D02*
X105380000Y-85120000D01*
%TO.C,J2*%
X150120000Y-57120000D02*
X151500000Y-57120000D01*
X150120000Y-58500000D02*
X150120000Y-57120000D01*
X150120000Y-59770000D02*
X150120000Y-77660000D01*
X150120000Y-59770000D02*
X152880000Y-59770000D01*
X150120000Y-77660000D02*
X152880000Y-77660000D01*
X152880000Y-59770000D02*
X152880000Y-77660000D01*
%TO.C,J1*%
X102840000Y-60380000D02*
X102840000Y-59000000D01*
X104220000Y-60380000D02*
X102840000Y-60380000D01*
X105490000Y-60380000D02*
X123380000Y-60380000D01*
X105490000Y-60380000D02*
X105490000Y-57620000D01*
X123380000Y-60380000D02*
X123380000Y-57620000D01*
X105490000Y-57620000D02*
X123380000Y-57620000D01*
%TO.C,U1*%
X121040000Y-65050000D02*
X121040000Y-85490000D01*
X121040000Y-85490000D02*
X126340000Y-85490000D01*
X122690000Y-65050000D02*
X121040000Y-65050000D01*
X126340000Y-65050000D02*
X124690000Y-65050000D01*
X126340000Y-85490000D02*
X126340000Y-65050000D01*
X118550000Y-64990000D02*
X128830000Y-64990000D01*
X128830000Y-85550000D01*
X118550000Y-85550000D01*
X118550000Y-64990000D01*
X124690000Y-65050000D02*
G75*
G02*
X122690000Y-65050000I-1000000J0D01*
G01*
%TO.C,R8*%
X136230000Y-111630000D02*
X142770000Y-111630000D01*
X136230000Y-111960000D02*
X136230000Y-111630000D01*
X136230000Y-114040000D02*
X136230000Y-114370000D01*
X136230000Y-114370000D02*
X142770000Y-114370000D01*
X142770000Y-111630000D02*
X142770000Y-111960000D01*
X142770000Y-114370000D02*
X142770000Y-114040000D01*
%TO.C,R7*%
X136230000Y-103630000D02*
X142770000Y-103630000D01*
X136230000Y-103960000D02*
X136230000Y-103630000D01*
X136230000Y-106040000D02*
X136230000Y-106370000D01*
X136230000Y-106370000D02*
X142770000Y-106370000D01*
X142770000Y-103630000D02*
X142770000Y-103960000D01*
X142770000Y-106370000D02*
X142770000Y-106040000D01*
%TO.C,R6*%
X136230000Y-95630000D02*
X142770000Y-95630000D01*
X136230000Y-95960000D02*
X136230000Y-95630000D01*
X136230000Y-98040000D02*
X136230000Y-98370000D01*
X136230000Y-98370000D02*
X142770000Y-98370000D01*
X142770000Y-95630000D02*
X142770000Y-95960000D01*
X142770000Y-98370000D02*
X142770000Y-98040000D01*
%TO.C,R5*%
X136230000Y-87630000D02*
X142770000Y-87630000D01*
X136230000Y-87960000D02*
X136230000Y-87630000D01*
X136230000Y-90040000D02*
X136230000Y-90370000D01*
X136230000Y-90370000D02*
X142770000Y-90370000D01*
X142770000Y-87630000D02*
X142770000Y-87960000D01*
X142770000Y-90370000D02*
X142770000Y-90040000D01*
%TO.C,R4*%
X136230000Y-79630000D02*
X142770000Y-79630000D01*
X136230000Y-79960000D02*
X136230000Y-79630000D01*
X136230000Y-82040000D02*
X136230000Y-82370000D01*
X136230000Y-82370000D02*
X142770000Y-82370000D01*
X142770000Y-79630000D02*
X142770000Y-79960000D01*
X142770000Y-82370000D02*
X142770000Y-82040000D01*
%TO.C,R3*%
X136230000Y-72130000D02*
X142770000Y-72130000D01*
X136230000Y-72460000D02*
X136230000Y-72130000D01*
X136230000Y-74540000D02*
X136230000Y-74870000D01*
X136230000Y-74870000D02*
X142770000Y-74870000D01*
X142770000Y-72130000D02*
X142770000Y-72460000D01*
X142770000Y-74870000D02*
X142770000Y-74540000D01*
%TO.C,R2*%
X136230000Y-64630000D02*
X142770000Y-64630000D01*
X136230000Y-64960000D02*
X136230000Y-64630000D01*
X136230000Y-67040000D02*
X136230000Y-67370000D01*
X136230000Y-67370000D02*
X142770000Y-67370000D01*
X142770000Y-64630000D02*
X142770000Y-64960000D01*
X142770000Y-67370000D02*
X142770000Y-67040000D01*
%TO.C,R1*%
X136230000Y-57130000D02*
X142770000Y-57130000D01*
X136230000Y-57460000D02*
X136230000Y-57130000D01*
X136230000Y-59540000D02*
X136230000Y-59870000D01*
X136230000Y-59870000D02*
X142770000Y-59870000D01*
X142770000Y-57130000D02*
X142770000Y-57460000D01*
X142770000Y-59870000D02*
X142770000Y-59540000D01*
%TD*%
M02*
