M48
; DRILL file {KiCad 9.0.4} date 2025-09-14T11:05:10+0100
; FORMAT={-:-/ absolute / metric / decimal}
; #@! TF.CreationDate,2025-09-14T11:05:10+01:00
; #@! TF.GenerationSoftware,Kicad,Pcbnew,9.0.4
; #@! TF.FileFunction,Plated,1,2,PTH
FMAT,2
METRIC
; #@! TA.AperFunction,Plated,PTH,ViaDrill
T1C0.300
; #@! TA.AperFunction,Plated,PTH,ComponentDrill
T2C0.800
; #@! TA.AperFunction,Plated,PTH,ComponentDrill
T3C1.000
%
G90
G05
T1
X106.5Y-64.5
X107.5Y-77.0
X107.5Y-79.0
X107.5Y-86.0
X108.5Y-65.0
X108.5Y-77.0
X108.5Y-79.0
X108.5Y-85.5
X109.5Y-66.5
X110.0Y-63.5
X110.0Y-78.0
X111.5Y-64.5
X113.0Y-78.0
X115.5Y-83.0
X116.5Y-79.0
X116.5Y-83.0
X117.5Y-78.0
X121.0Y-87.0
X121.0Y-88.0
X122.0Y-63.5
X122.0Y-66.0
X125.5Y-62.0
X125.5Y-74.0
X125.5Y-78.0
X126.5Y-63.0
X128.0Y-88.0
X128.5Y-64.0
X129.5Y-67.5
X129.5Y-70.5
X130.5Y-88.0
X130.5Y-90.0
X131.0Y-67.5
X131.0Y-70.5
X132.0Y-67.5
X132.0Y-70.5
X135.5Y-109.0
X155.5Y-69.0
X156.5Y-71.5
X157.5Y-74.0
T2
X111.5Y-74.5
X114.0Y-74.5
X119.88Y-66.38
X119.88Y-68.92
X119.88Y-71.46
X119.88Y-74.0
X119.88Y-76.54
X119.88Y-79.08
X119.88Y-81.62
X119.88Y-84.16
X127.5Y-66.38
X127.5Y-68.92
X127.5Y-71.46
X127.5Y-74.0
X127.5Y-76.54
X127.5Y-79.08
X127.5Y-81.62
X127.5Y-84.16
X135.69Y-58.5
X135.69Y-66.0
X135.69Y-73.5
X135.69Y-81.0
X135.69Y-89.0
X135.69Y-97.0
X135.69Y-105.0
X135.69Y-113.0
X143.31Y-58.5
X143.31Y-66.0
X143.31Y-73.5
X143.31Y-81.0
X143.31Y-89.0
X143.31Y-97.0
X143.31Y-105.0
X143.31Y-113.0
T3
X104.0Y-65.96
X104.0Y-68.5
X104.0Y-71.04
X104.0Y-73.58
X104.0Y-76.12
X104.0Y-78.66
X104.0Y-81.2
X104.0Y-83.74
X104.0Y-92.42
X104.0Y-94.96
X104.0Y-97.5
X104.0Y-100.04
X104.0Y-102.58
X104.0Y-105.12
X104.0Y-107.66
X104.0Y-110.2
X104.22Y-59.0
X106.76Y-59.0
X109.3Y-59.0
X111.84Y-59.0
X114.38Y-59.0
X116.92Y-59.0
X119.46Y-59.0
X122.0Y-59.0
X151.5Y-58.5
X151.5Y-61.04
X151.5Y-63.58
X151.5Y-66.12
X151.5Y-68.66
X151.5Y-71.2
X151.5Y-73.74
X151.5Y-76.28
M30
