%TF.GenerationSoftware,KiCad,Pcbnew,9.0.4*%
%TF.CreationDate,2025-09-14T11:05:21+01:00*%
%TF.ProjectId,sipo,7369706f-2e6b-4696-9361-645f70636258,rev?*%
%TF.SameCoordinates,Original*%
%TF.FileFunction,Soldermask,Bot*%
%TF.FilePolarity,Negative*%
%FSLAX46Y46*%
G04 Gerber Fmt 4.6, Leading zero omitted, Abs format (unit mm)*
G04 Created by KiCad (PCBNEW 9.0.4) date 2025-09-14 11:05:21*
%MOMM*%
%LPD*%
G01*
G04 APERTURE LIST*
G04 Aperture macros list*
%AMRoundRect*
0 Rectangle with rounded corners*
0 $1 Rounding radius*
0 $2 $3 $4 $5 $6 $7 $8 $9 X,Y pos of 4 corners*
0 Add a 4 corners polygon primitive as box body*
4,1,4,$2,$3,$4,$5,$6,$7,$8,$9,$2,$3,0*
0 Add four circle primitives for the rounded corners*
1,1,$1+$1,$2,$3*
1,1,$1+$1,$4,$5*
1,1,$1+$1,$6,$7*
1,1,$1+$1,$8,$9*
0 Add four rect primitives between the rounded corners*
20,1,$1+$1,$2,$3,$4,$5,0*
20,1,$1+$1,$4,$5,$6,$7,0*
20,1,$1+$1,$6,$7,$8,$9,0*
20,1,$1+$1,$8,$9,$2,$3,0*%
G04 Aperture macros list end*
%ADD10RoundRect,0.250000X-0.550000X-0.550000X0.550000X-0.550000X0.550000X0.550000X-0.550000X0.550000X0*%
%ADD11C,1.600000*%
%ADD12R,1.700000X1.700000*%
%ADD13C,1.700000*%
G04 APERTURE END LIST*
D10*
%TO.C,C1*%
X111500000Y-74500000D03*
D11*
X114000000Y-74500000D03*
%TD*%
D12*
%TO.C,J4*%
X104000000Y-92420000D03*
D13*
X104000000Y-94960000D03*
X104000000Y-97500000D03*
X104000000Y-100040000D03*
X104000000Y-102580000D03*
X104000000Y-105120000D03*
X104000000Y-107660000D03*
X104000000Y-110200000D03*
%TD*%
D12*
%TO.C,J3*%
X104000000Y-65960000D03*
D13*
X104000000Y-68500000D03*
X104000000Y-71040000D03*
X104000000Y-73580000D03*
X104000000Y-76120000D03*
X104000000Y-78660000D03*
X104000000Y-81200000D03*
X104000000Y-83740000D03*
%TD*%
D12*
%TO.C,J2*%
X151500000Y-58500000D03*
D13*
X151500000Y-61040000D03*
X151500000Y-63580000D03*
X151500000Y-66120000D03*
X151500000Y-68660000D03*
X151500000Y-71200000D03*
X151500000Y-73740000D03*
X151500000Y-76280000D03*
%TD*%
D12*
%TO.C,J1*%
X104220000Y-59000000D03*
D13*
X106760000Y-59000000D03*
X109300000Y-59000000D03*
X111840000Y-59000000D03*
X114380000Y-59000000D03*
X116920000Y-59000000D03*
X119460000Y-59000000D03*
X122000000Y-59000000D03*
%TD*%
D10*
%TO.C,U1*%
X119880000Y-66380000D03*
D11*
X119880000Y-68920000D03*
X119880000Y-71460000D03*
X119880000Y-74000000D03*
X119880000Y-76540000D03*
X119880000Y-79080000D03*
X119880000Y-81620000D03*
X119880000Y-84160000D03*
X127500000Y-84160000D03*
X127500000Y-81620000D03*
X127500000Y-79080000D03*
X127500000Y-76540000D03*
X127500000Y-74000000D03*
X127500000Y-71460000D03*
X127500000Y-68920000D03*
X127500000Y-66380000D03*
%TD*%
%TO.C,R8*%
X135690000Y-113000000D03*
X143310000Y-113000000D03*
%TD*%
%TO.C,R7*%
X135690000Y-105000000D03*
X143310000Y-105000000D03*
%TD*%
%TO.C,R6*%
X135690000Y-97000000D03*
X143310000Y-97000000D03*
%TD*%
%TO.C,R5*%
X135690000Y-89000000D03*
X143310000Y-89000000D03*
%TD*%
%TO.C,R4*%
X135690000Y-81000000D03*
X143310000Y-81000000D03*
%TD*%
%TO.C,R3*%
X135690000Y-73500000D03*
X143310000Y-73500000D03*
%TD*%
%TO.C,R2*%
X135690000Y-66000000D03*
X143310000Y-66000000D03*
%TD*%
%TO.C,R1*%
X135690000Y-58500000D03*
X143310000Y-58500000D03*
%TD*%
M02*
