%TF.GenerationSoftware,KiCad,Pcbnew,9.0.4*%
%TF.CreationDate,2025-09-14T11:53:58+01:00*%
%TF.ProjectId,dc_power_headers,64635f70-6f77-4657-925f-686561646572,rev?*%
%TF.SameCoordinates,Original*%
%TF.FileFunction,Copper,L1,Top*%
%TF.FilePolarity,Positive*%
%FSLAX46Y46*%
G04 Gerber Fmt 4.6, Leading zero omitted, Abs format (unit mm)*
G04 Created by KiCad (PCBNEW 9.0.4) date 2025-09-14 11:53:58*
%MOMM*%
%LPD*%
G01*
G04 APERTURE LIST*
%TA.AperFunction,ComponentPad*%
%ADD10C,1.700000*%
%TD*%
%TA.AperFunction,ComponentPad*%
%ADD11R,1.700000X1.700000*%
%TD*%
%TA.AperFunction,Conductor*%
%ADD12C,0.500000*%
%TD*%
G04 APERTURE END LIST*
D10*
%TO.P,J1,8,Pin_8*%
%TO.N,+3.3V*%
X133280000Y-72000000D03*
%TO.P,J1,7,Pin_7*%
X130740000Y-72000000D03*
%TO.P,J1,6,Pin_6*%
X128200000Y-72000000D03*
%TO.P,J1,5,Pin_5*%
X125660000Y-72000000D03*
%TO.P,J1,4,Pin_4*%
X123120000Y-72000000D03*
%TO.P,J1,3,Pin_3*%
X120580000Y-72000000D03*
%TO.P,J1,2,Pin_2*%
X118040000Y-72000000D03*
D11*
%TO.P,J1,1,Pin_1*%
X115500000Y-72000000D03*
%TD*%
D10*
%TO.P,J3,8,Pin_8*%
%TO.N,+5V*%
X133280000Y-85000000D03*
%TO.P,J3,7,Pin_7*%
X130740000Y-85000000D03*
%TO.P,J3,6,Pin_6*%
X128200000Y-85000000D03*
%TO.P,J3,5,Pin_5*%
X125660000Y-85000000D03*
%TO.P,J3,4,Pin_4*%
X123120000Y-85000000D03*
%TO.P,J3,3,Pin_3*%
X120580000Y-85000000D03*
%TO.P,J3,2,Pin_2*%
X118040000Y-85000000D03*
D11*
%TO.P,J3,1,Pin_1*%
X115500000Y-85000000D03*
%TD*%
D10*
%TO.P,J2,8,Pin_8*%
%TO.N,GND*%
X133280000Y-78500000D03*
%TO.P,J2,7,Pin_7*%
X130740000Y-78500000D03*
%TO.P,J2,6,Pin_6*%
X128200000Y-78500000D03*
%TO.P,J2,5,Pin_5*%
X125660000Y-78500000D03*
%TO.P,J2,4,Pin_4*%
X123120000Y-78500000D03*
%TO.P,J2,3,Pin_3*%
X120580000Y-78500000D03*
%TO.P,J2,2,Pin_2*%
X118040000Y-78500000D03*
D11*
%TO.P,J2,1,Pin_1*%
X115500000Y-78500000D03*
%TD*%
D10*
%TO.P,J5,8,Pin_8*%
%TO.N,GND*%
X157280000Y-78500000D03*
%TO.P,J5,7,Pin_7*%
X154740000Y-78500000D03*
%TO.P,J5,6,Pin_6*%
X152200000Y-78500000D03*
%TO.P,J5,5,Pin_5*%
X149660000Y-78500000D03*
%TO.P,J5,4,Pin_4*%
X147120000Y-78500000D03*
%TO.P,J5,3,Pin_3*%
X144580000Y-78500000D03*
%TO.P,J5,2,Pin_2*%
X142040000Y-78500000D03*
D11*
%TO.P,J5,1,Pin_1*%
X139500000Y-78500000D03*
%TD*%
D10*
%TO.P,J4,8,Pin_8*%
%TO.N,+3.3V*%
X157280000Y-72000000D03*
%TO.P,J4,7,Pin_7*%
X154740000Y-72000000D03*
%TO.P,J4,6,Pin_6*%
X152200000Y-72000000D03*
%TO.P,J4,5,Pin_5*%
X149660000Y-72000000D03*
%TO.P,J4,4,Pin_4*%
X147120000Y-72000000D03*
%TO.P,J4,3,Pin_3*%
X144580000Y-72000000D03*
%TO.P,J4,2,Pin_2*%
X142040000Y-72000000D03*
D11*
%TO.P,J4,1,Pin_1*%
X139500000Y-72000000D03*
%TD*%
D10*
%TO.P,J6,8,Pin_8*%
%TO.N,+5V*%
X157280000Y-85000000D03*
%TO.P,J6,7,Pin_7*%
X154740000Y-85000000D03*
%TO.P,J6,6,Pin_6*%
X152200000Y-85000000D03*
%TO.P,J6,5,Pin_5*%
X149660000Y-85000000D03*
%TO.P,J6,4,Pin_4*%
X147120000Y-85000000D03*
%TO.P,J6,3,Pin_3*%
X144580000Y-85000000D03*
%TO.P,J6,2,Pin_2*%
X142040000Y-85000000D03*
D11*
%TO.P,J6,1,Pin_1*%
X139500000Y-85000000D03*
%TD*%
D12*
%TO.N,+3.3V*%
X118040000Y-72000000D02*
X118040000Y-73960000D01*
X118040000Y-73960000D02*
X117500000Y-74500000D01*
X115500000Y-72000000D02*
X115500000Y-73500000D01*
X115500000Y-73500000D02*
X116500000Y-74500000D01*
X116500000Y-74500000D02*
X117500000Y-74500000D01*
X120580000Y-72000000D02*
X120580000Y-73920000D01*
X120580000Y-73920000D02*
X120000000Y-74500000D01*
X120000000Y-74500000D02*
X117500000Y-74500000D01*
X122500000Y-74500000D02*
X120000000Y-74500000D01*
X123120000Y-73880000D02*
X122500000Y-74500000D01*
X123120000Y-72000000D02*
X123120000Y-73880000D01*
X125000000Y-74500000D02*
X122500000Y-74500000D01*
X125660000Y-73840000D02*
X125000000Y-74500000D01*
X125660000Y-72000000D02*
X125660000Y-73840000D01*
X127500000Y-74500000D02*
X125000000Y-74500000D01*
%TO.N,+5V*%
X157280000Y-86720000D02*
X156500000Y-87500000D01*
X156500000Y-87500000D02*
X154000000Y-87500000D01*
X157280000Y-85000000D02*
X157280000Y-86720000D01*
X154740000Y-86760000D02*
X154000000Y-87500000D01*
X154740000Y-85000000D02*
X154740000Y-86760000D01*
X154000000Y-87500000D02*
X151500000Y-87500000D01*
X152200000Y-85000000D02*
X152200000Y-86800000D01*
X152200000Y-86800000D02*
X151500000Y-87500000D01*
X151500000Y-87500000D02*
X149000000Y-87500000D01*
X149660000Y-86840000D02*
X149000000Y-87500000D01*
X149660000Y-85000000D02*
X149660000Y-86840000D01*
X149000000Y-87500000D02*
X146500000Y-87500000D01*
X147120000Y-86880000D02*
X146500000Y-87500000D01*
X147120000Y-85000000D02*
X147120000Y-86880000D01*
X146500000Y-87500000D02*
X144000000Y-87500000D01*
X144580000Y-86920000D02*
X144000000Y-87500000D01*
X144580000Y-85000000D02*
X144580000Y-86920000D01*
X144000000Y-87500000D02*
X141500000Y-87500000D01*
X140000000Y-87500000D02*
X141500000Y-87500000D01*
X139500000Y-85000000D02*
X139500000Y-87000000D01*
X139500000Y-87000000D02*
X140000000Y-87500000D01*
X141500000Y-87500000D02*
X142040000Y-86960000D01*
X142040000Y-86960000D02*
X142040000Y-85000000D01*
X134000000Y-82000000D02*
X139000000Y-82000000D01*
X133280000Y-85000000D02*
X133280000Y-82720000D01*
X139000000Y-82000000D02*
X139500000Y-82500000D01*
X139500000Y-82500000D02*
X139500000Y-85000000D01*
X133280000Y-82720000D02*
X134000000Y-82000000D01*
X133280000Y-86720000D02*
X132500000Y-87500000D01*
X133280000Y-85000000D02*
X133280000Y-86720000D01*
X132500000Y-87500000D02*
X130000000Y-87500000D01*
X130740000Y-86760000D02*
X130000000Y-87500000D01*
X130000000Y-87500000D02*
X127500000Y-87500000D01*
X130740000Y-85000000D02*
X130740000Y-86760000D01*
X128200000Y-86800000D02*
X127500000Y-87500000D01*
X128200000Y-85000000D02*
X128200000Y-86800000D01*
X127500000Y-87500000D02*
X125000000Y-87500000D01*
X125660000Y-86840000D02*
X125000000Y-87500000D01*
X125660000Y-85000000D02*
X125660000Y-86840000D01*
X125000000Y-87500000D02*
X122500000Y-87500000D01*
X123120000Y-86880000D02*
X122500000Y-87500000D01*
X123120000Y-85000000D02*
X123120000Y-86880000D01*
X122500000Y-87500000D02*
X120000000Y-87500000D01*
X120580000Y-86920000D02*
X120000000Y-87500000D01*
X120580000Y-85000000D02*
X120580000Y-86920000D01*
X120000000Y-87500000D02*
X117500000Y-87500000D01*
X116500000Y-87500000D02*
X117500000Y-87500000D01*
X115500000Y-85000000D02*
X115500000Y-86500000D01*
X115500000Y-86500000D02*
X116500000Y-87500000D01*
X117500000Y-87500000D02*
X118040000Y-86960000D01*
X118040000Y-86960000D02*
X118040000Y-85000000D01*
%TO.N,GND*%
X157280000Y-80220000D02*
X156500000Y-81000000D01*
X157280000Y-78500000D02*
X157280000Y-80220000D01*
X156500000Y-81000000D02*
X154000000Y-81000000D01*
X154740000Y-80260000D02*
X154000000Y-81000000D01*
X154740000Y-78500000D02*
X154740000Y-80260000D01*
X154000000Y-81000000D02*
X151500000Y-81000000D01*
X152200000Y-80300000D02*
X151500000Y-81000000D01*
X152200000Y-78500000D02*
X152200000Y-80300000D01*
X149000000Y-81000000D02*
X148500000Y-81000000D01*
X151500000Y-81000000D02*
X148500000Y-81000000D01*
X149660000Y-80340000D02*
X149000000Y-81000000D01*
X149660000Y-78500000D02*
X149660000Y-80340000D01*
X148500000Y-81000000D02*
X146500000Y-81000000D01*
X147120000Y-80380000D02*
X146500000Y-81000000D01*
X147120000Y-78500000D02*
X147120000Y-80380000D01*
X146500000Y-81000000D02*
X144000000Y-81000000D01*
X144580000Y-80420000D02*
X144000000Y-81000000D01*
X144580000Y-78500000D02*
X144580000Y-80420000D01*
X144000000Y-81000000D02*
X141000000Y-81000000D01*
X139500000Y-78500000D02*
X139500000Y-80500000D01*
X139500000Y-80500000D02*
X140000000Y-81000000D01*
X140000000Y-81000000D02*
X141000000Y-81000000D01*
X141000000Y-81000000D02*
X142040000Y-79960000D01*
X142040000Y-79960000D02*
X142040000Y-78500000D01*
X134000000Y-76000000D02*
X138500000Y-76000000D01*
X133280000Y-78500000D02*
X133280000Y-76720000D01*
X133280000Y-76720000D02*
X134000000Y-76000000D01*
X138500000Y-76000000D02*
X139500000Y-77000000D01*
X139500000Y-77000000D02*
X139500000Y-78500000D01*
X133280000Y-80220000D02*
X132500000Y-81000000D01*
X133280000Y-78500000D02*
X133280000Y-80220000D01*
X132500000Y-81000000D02*
X130000000Y-81000000D01*
X130740000Y-80260000D02*
X130000000Y-81000000D01*
X130740000Y-78500000D02*
X130740000Y-80260000D01*
X130000000Y-81000000D02*
X127500000Y-81000000D01*
X128200000Y-80300000D02*
X127500000Y-81000000D01*
X128200000Y-78500000D02*
X128200000Y-80300000D01*
X127500000Y-81000000D02*
X125000000Y-81000000D01*
X125660000Y-80340000D02*
X125000000Y-81000000D01*
X125660000Y-78500000D02*
X125660000Y-80340000D01*
X125000000Y-81000000D02*
X122500000Y-81000000D01*
X123120000Y-80380000D02*
X122500000Y-81000000D01*
X123120000Y-78500000D02*
X123120000Y-80380000D01*
X122500000Y-81000000D02*
X120000000Y-81000000D01*
X120580000Y-80420000D02*
X120000000Y-81000000D01*
X120580000Y-78500000D02*
X120580000Y-80420000D01*
X120000000Y-81000000D02*
X117500000Y-81000000D01*
X116000000Y-81000000D02*
X117500000Y-81000000D01*
X115500000Y-78500000D02*
X115500000Y-80500000D01*
X115500000Y-80500000D02*
X116000000Y-81000000D01*
X117500000Y-81000000D02*
X118040000Y-80460000D01*
X118040000Y-80460000D02*
X118040000Y-78500000D01*
%TO.N,+3.3V*%
X133280000Y-72000000D02*
X133280000Y-70720000D01*
X133280000Y-70720000D02*
X134500000Y-69500000D01*
X134500000Y-69500000D02*
X138500000Y-69500000D01*
X138500000Y-69500000D02*
X139500000Y-70500000D01*
X139500000Y-70500000D02*
X139500000Y-72000000D01*
X157280000Y-73220000D02*
X156500000Y-74000000D01*
X157280000Y-72000000D02*
X157280000Y-73220000D01*
X156500000Y-74000000D02*
X154000000Y-74000000D01*
X154740000Y-73260000D02*
X154000000Y-74000000D01*
X154740000Y-72000000D02*
X154740000Y-73260000D01*
X154000000Y-74000000D02*
X151500000Y-74000000D01*
X152200000Y-73300000D02*
X151500000Y-74000000D01*
X152200000Y-72000000D02*
X152200000Y-73300000D01*
X151500000Y-74000000D02*
X149000000Y-74000000D01*
X149660000Y-73340000D02*
X149000000Y-74000000D01*
X149660000Y-72000000D02*
X149660000Y-73340000D01*
X149000000Y-74000000D02*
X146500000Y-74000000D01*
X147120000Y-73380000D02*
X146500000Y-74000000D01*
X147120000Y-72000000D02*
X147120000Y-73380000D01*
X146500000Y-74000000D02*
X144000000Y-74000000D01*
X144580000Y-73420000D02*
X144000000Y-74000000D01*
X144580000Y-72000000D02*
X144580000Y-73420000D01*
X144000000Y-74000000D02*
X141500000Y-74000000D01*
X141500000Y-74000000D02*
X140500000Y-74000000D01*
X142040000Y-72000000D02*
X142040000Y-73460000D01*
X142040000Y-73460000D02*
X141500000Y-74000000D01*
X140500000Y-74000000D02*
X139500000Y-73000000D01*
X139500000Y-73000000D02*
X139500000Y-72000000D01*
X133280000Y-73720000D02*
X132500000Y-74500000D01*
X133280000Y-72000000D02*
X133280000Y-73720000D01*
X132500000Y-74500000D02*
X130000000Y-74500000D01*
X130740000Y-73760000D02*
X130000000Y-74500000D01*
X130740000Y-72000000D02*
X130740000Y-73760000D01*
X130000000Y-74500000D02*
X127500000Y-74500000D01*
X128200000Y-73800000D02*
X127500000Y-74500000D01*
X128200000Y-72000000D02*
X128200000Y-73800000D01*
%TD*%
M02*
