%TF.GenerationSoftware,KiCad,Pcbnew,9.0.4*%
%TF.CreationDate,2025-09-14T11:53:58+01:00*%
%TF.ProjectId,dc_power_headers,64635f70-6f77-4657-925f-686561646572,rev?*%
%TF.SameCoordinates,Original*%
%TF.FileFunction,Legend,Top*%
%TF.FilePolarity,Positive*%
%FSLAX46Y46*%
G04 Gerber Fmt 4.6, Leading zero omitted, Abs format (unit mm)*
G04 Created by KiCad (PCBNEW 9.0.4) date 2025-09-14 11:53:58*
%MOMM*%
%LPD*%
G01*
G04 APERTURE LIST*
%ADD10C,0.100000*%
%ADD11C,0.150000*%
%ADD12C,0.120000*%
G04 APERTURE END LIST*
D10*
X161137217Y-71969057D02*
X161280074Y-72016676D01*
X161280074Y-72016676D02*
X161327693Y-72064295D01*
X161327693Y-72064295D02*
X161375312Y-72159533D01*
X161375312Y-72159533D02*
X161375312Y-72302390D01*
X161375312Y-72302390D02*
X161327693Y-72397628D01*
X161327693Y-72397628D02*
X161280074Y-72445248D01*
X161280074Y-72445248D02*
X161184836Y-72492867D01*
X161184836Y-72492867D02*
X160803884Y-72492867D01*
X160803884Y-72492867D02*
X160803884Y-71492867D01*
X160803884Y-71492867D02*
X161137217Y-71492867D01*
X161137217Y-71492867D02*
X161232455Y-71540486D01*
X161232455Y-71540486D02*
X161280074Y-71588105D01*
X161280074Y-71588105D02*
X161327693Y-71683343D01*
X161327693Y-71683343D02*
X161327693Y-71778581D01*
X161327693Y-71778581D02*
X161280074Y-71873819D01*
X161280074Y-71873819D02*
X161232455Y-71921438D01*
X161232455Y-71921438D02*
X161137217Y-71969057D01*
X161137217Y-71969057D02*
X160803884Y-71969057D01*
X162232455Y-72492867D02*
X162232455Y-71969057D01*
X162232455Y-71969057D02*
X162184836Y-71873819D01*
X162184836Y-71873819D02*
X162089598Y-71826200D01*
X162089598Y-71826200D02*
X161899122Y-71826200D01*
X161899122Y-71826200D02*
X161803884Y-71873819D01*
X162232455Y-72445248D02*
X162137217Y-72492867D01*
X162137217Y-72492867D02*
X161899122Y-72492867D01*
X161899122Y-72492867D02*
X161803884Y-72445248D01*
X161803884Y-72445248D02*
X161756265Y-72350009D01*
X161756265Y-72350009D02*
X161756265Y-72254771D01*
X161756265Y-72254771D02*
X161803884Y-72159533D01*
X161803884Y-72159533D02*
X161899122Y-72111914D01*
X161899122Y-72111914D02*
X162137217Y-72111914D01*
X162137217Y-72111914D02*
X162232455Y-72064295D01*
X162661027Y-72445248D02*
X162756265Y-72492867D01*
X162756265Y-72492867D02*
X162946741Y-72492867D01*
X162946741Y-72492867D02*
X163041979Y-72445248D01*
X163041979Y-72445248D02*
X163089598Y-72350009D01*
X163089598Y-72350009D02*
X163089598Y-72302390D01*
X163089598Y-72302390D02*
X163041979Y-72207152D01*
X163041979Y-72207152D02*
X162946741Y-72159533D01*
X162946741Y-72159533D02*
X162803884Y-72159533D01*
X162803884Y-72159533D02*
X162708646Y-72111914D01*
X162708646Y-72111914D02*
X162661027Y-72016676D01*
X162661027Y-72016676D02*
X162661027Y-71969057D01*
X162661027Y-71969057D02*
X162708646Y-71873819D01*
X162708646Y-71873819D02*
X162803884Y-71826200D01*
X162803884Y-71826200D02*
X162946741Y-71826200D01*
X162946741Y-71826200D02*
X163041979Y-71873819D01*
X163899122Y-72445248D02*
X163803884Y-72492867D01*
X163803884Y-72492867D02*
X163613408Y-72492867D01*
X163613408Y-72492867D02*
X163518170Y-72445248D01*
X163518170Y-72445248D02*
X163470551Y-72350009D01*
X163470551Y-72350009D02*
X163470551Y-71969057D01*
X163470551Y-71969057D02*
X163518170Y-71873819D01*
X163518170Y-71873819D02*
X163613408Y-71826200D01*
X163613408Y-71826200D02*
X163803884Y-71826200D01*
X163803884Y-71826200D02*
X163899122Y-71873819D01*
X163899122Y-71873819D02*
X163946741Y-71969057D01*
X163946741Y-71969057D02*
X163946741Y-72064295D01*
X163946741Y-72064295D02*
X163470551Y-72159533D01*
X165137218Y-72492867D02*
X165137218Y-71492867D01*
X165137218Y-71969057D02*
X165708646Y-71969057D01*
X165708646Y-72492867D02*
X165708646Y-71492867D01*
X166565789Y-72445248D02*
X166470551Y-72492867D01*
X166470551Y-72492867D02*
X166280075Y-72492867D01*
X166280075Y-72492867D02*
X166184837Y-72445248D01*
X166184837Y-72445248D02*
X166137218Y-72350009D01*
X166137218Y-72350009D02*
X166137218Y-71969057D01*
X166137218Y-71969057D02*
X166184837Y-71873819D01*
X166184837Y-71873819D02*
X166280075Y-71826200D01*
X166280075Y-71826200D02*
X166470551Y-71826200D01*
X166470551Y-71826200D02*
X166565789Y-71873819D01*
X166565789Y-71873819D02*
X166613408Y-71969057D01*
X166613408Y-71969057D02*
X166613408Y-72064295D01*
X166613408Y-72064295D02*
X166137218Y-72159533D01*
X167470551Y-72492867D02*
X167470551Y-71969057D01*
X167470551Y-71969057D02*
X167422932Y-71873819D01*
X167422932Y-71873819D02*
X167327694Y-71826200D01*
X167327694Y-71826200D02*
X167137218Y-71826200D01*
X167137218Y-71826200D02*
X167041980Y-71873819D01*
X167470551Y-72445248D02*
X167375313Y-72492867D01*
X167375313Y-72492867D02*
X167137218Y-72492867D01*
X167137218Y-72492867D02*
X167041980Y-72445248D01*
X167041980Y-72445248D02*
X166994361Y-72350009D01*
X166994361Y-72350009D02*
X166994361Y-72254771D01*
X166994361Y-72254771D02*
X167041980Y-72159533D01*
X167041980Y-72159533D02*
X167137218Y-72111914D01*
X167137218Y-72111914D02*
X167375313Y-72111914D01*
X167375313Y-72111914D02*
X167470551Y-72064295D01*
X168375313Y-72492867D02*
X168375313Y-71492867D01*
X168375313Y-72445248D02*
X168280075Y-72492867D01*
X168280075Y-72492867D02*
X168089599Y-72492867D01*
X168089599Y-72492867D02*
X167994361Y-72445248D01*
X167994361Y-72445248D02*
X167946742Y-72397628D01*
X167946742Y-72397628D02*
X167899123Y-72302390D01*
X167899123Y-72302390D02*
X167899123Y-72016676D01*
X167899123Y-72016676D02*
X167946742Y-71921438D01*
X167946742Y-71921438D02*
X167994361Y-71873819D01*
X167994361Y-71873819D02*
X168089599Y-71826200D01*
X168089599Y-71826200D02*
X168280075Y-71826200D01*
X168280075Y-71826200D02*
X168375313Y-71873819D01*
X169232456Y-72445248D02*
X169137218Y-72492867D01*
X169137218Y-72492867D02*
X168946742Y-72492867D01*
X168946742Y-72492867D02*
X168851504Y-72445248D01*
X168851504Y-72445248D02*
X168803885Y-72350009D01*
X168803885Y-72350009D02*
X168803885Y-71969057D01*
X168803885Y-71969057D02*
X168851504Y-71873819D01*
X168851504Y-71873819D02*
X168946742Y-71826200D01*
X168946742Y-71826200D02*
X169137218Y-71826200D01*
X169137218Y-71826200D02*
X169232456Y-71873819D01*
X169232456Y-71873819D02*
X169280075Y-71969057D01*
X169280075Y-71969057D02*
X169280075Y-72064295D01*
X169280075Y-72064295D02*
X168803885Y-72159533D01*
X169708647Y-72492867D02*
X169708647Y-71826200D01*
X169708647Y-72016676D02*
X169756266Y-71921438D01*
X169756266Y-71921438D02*
X169803885Y-71873819D01*
X169803885Y-71873819D02*
X169899123Y-71826200D01*
X169899123Y-71826200D02*
X169994361Y-71826200D01*
X170280076Y-72445248D02*
X170375314Y-72492867D01*
X170375314Y-72492867D02*
X170565790Y-72492867D01*
X170565790Y-72492867D02*
X170661028Y-72445248D01*
X170661028Y-72445248D02*
X170708647Y-72350009D01*
X170708647Y-72350009D02*
X170708647Y-72302390D01*
X170708647Y-72302390D02*
X170661028Y-72207152D01*
X170661028Y-72207152D02*
X170565790Y-72159533D01*
X170565790Y-72159533D02*
X170422933Y-72159533D01*
X170422933Y-72159533D02*
X170327695Y-72111914D01*
X170327695Y-72111914D02*
X170280076Y-72016676D01*
X170280076Y-72016676D02*
X170280076Y-71969057D01*
X170280076Y-71969057D02*
X170327695Y-71873819D01*
X170327695Y-71873819D02*
X170422933Y-71826200D01*
X170422933Y-71826200D02*
X170565790Y-71826200D01*
X170565790Y-71826200D02*
X170661028Y-71873819D01*
X171137219Y-72397628D02*
X171184838Y-72445248D01*
X171184838Y-72445248D02*
X171137219Y-72492867D01*
X171137219Y-72492867D02*
X171089600Y-72445248D01*
X171089600Y-72445248D02*
X171137219Y-72397628D01*
X171137219Y-72397628D02*
X171137219Y-72492867D01*
X171137219Y-71873819D02*
X171184838Y-71921438D01*
X171184838Y-71921438D02*
X171137219Y-71969057D01*
X171137219Y-71969057D02*
X171089600Y-71921438D01*
X171089600Y-71921438D02*
X171137219Y-71873819D01*
X171137219Y-71873819D02*
X171137219Y-71969057D01*
X161565789Y-73721858D02*
X162327694Y-73721858D01*
X163851503Y-73102811D02*
X163851503Y-73817096D01*
X163851503Y-73817096D02*
X163803884Y-73959953D01*
X163803884Y-73959953D02*
X163708646Y-74055192D01*
X163708646Y-74055192D02*
X163565789Y-74102811D01*
X163565789Y-74102811D02*
X163470551Y-74102811D01*
X164851503Y-74102811D02*
X164280075Y-74102811D01*
X164565789Y-74102811D02*
X164565789Y-73102811D01*
X164565789Y-73102811D02*
X164470551Y-73245668D01*
X164470551Y-73245668D02*
X164375313Y-73340906D01*
X164375313Y-73340906D02*
X164280075Y-73388525D01*
X165280075Y-74007572D02*
X165327694Y-74055192D01*
X165327694Y-74055192D02*
X165280075Y-74102811D01*
X165280075Y-74102811D02*
X165232456Y-74055192D01*
X165232456Y-74055192D02*
X165280075Y-74007572D01*
X165280075Y-74007572D02*
X165280075Y-74102811D01*
X165280075Y-73483763D02*
X165327694Y-73531382D01*
X165327694Y-73531382D02*
X165280075Y-73579001D01*
X165280075Y-73579001D02*
X165232456Y-73531382D01*
X165232456Y-73531382D02*
X165280075Y-73483763D01*
X165280075Y-73483763D02*
X165280075Y-73579001D01*
X166422932Y-73102811D02*
X167041979Y-73102811D01*
X167041979Y-73102811D02*
X166708646Y-73483763D01*
X166708646Y-73483763D02*
X166851503Y-73483763D01*
X166851503Y-73483763D02*
X166946741Y-73531382D01*
X166946741Y-73531382D02*
X166994360Y-73579001D01*
X166994360Y-73579001D02*
X167041979Y-73674239D01*
X167041979Y-73674239D02*
X167041979Y-73912334D01*
X167041979Y-73912334D02*
X166994360Y-74007572D01*
X166994360Y-74007572D02*
X166946741Y-74055192D01*
X166946741Y-74055192D02*
X166851503Y-74102811D01*
X166851503Y-74102811D02*
X166565789Y-74102811D01*
X166565789Y-74102811D02*
X166470551Y-74055192D01*
X166470551Y-74055192D02*
X166422932Y-74007572D01*
X167470551Y-74007572D02*
X167518170Y-74055192D01*
X167518170Y-74055192D02*
X167470551Y-74102811D01*
X167470551Y-74102811D02*
X167422932Y-74055192D01*
X167422932Y-74055192D02*
X167470551Y-74007572D01*
X167470551Y-74007572D02*
X167470551Y-74102811D01*
X167851503Y-73102811D02*
X168470550Y-73102811D01*
X168470550Y-73102811D02*
X168137217Y-73483763D01*
X168137217Y-73483763D02*
X168280074Y-73483763D01*
X168280074Y-73483763D02*
X168375312Y-73531382D01*
X168375312Y-73531382D02*
X168422931Y-73579001D01*
X168422931Y-73579001D02*
X168470550Y-73674239D01*
X168470550Y-73674239D02*
X168470550Y-73912334D01*
X168470550Y-73912334D02*
X168422931Y-74007572D01*
X168422931Y-74007572D02*
X168375312Y-74055192D01*
X168375312Y-74055192D02*
X168280074Y-74102811D01*
X168280074Y-74102811D02*
X167994360Y-74102811D01*
X167994360Y-74102811D02*
X167899122Y-74055192D01*
X167899122Y-74055192D02*
X167851503Y-74007572D01*
X168756265Y-73102811D02*
X169089598Y-74102811D01*
X169089598Y-74102811D02*
X169422931Y-73102811D01*
X170518170Y-73436144D02*
X170518170Y-74436144D01*
X170518170Y-73483763D02*
X170613408Y-73436144D01*
X170613408Y-73436144D02*
X170803884Y-73436144D01*
X170803884Y-73436144D02*
X170899122Y-73483763D01*
X170899122Y-73483763D02*
X170946741Y-73531382D01*
X170946741Y-73531382D02*
X170994360Y-73626620D01*
X170994360Y-73626620D02*
X170994360Y-73912334D01*
X170994360Y-73912334D02*
X170946741Y-74007572D01*
X170946741Y-74007572D02*
X170899122Y-74055192D01*
X170899122Y-74055192D02*
X170803884Y-74102811D01*
X170803884Y-74102811D02*
X170613408Y-74102811D01*
X170613408Y-74102811D02*
X170518170Y-74055192D01*
X171422932Y-74102811D02*
X171422932Y-73436144D01*
X171422932Y-73102811D02*
X171375313Y-73150430D01*
X171375313Y-73150430D02*
X171422932Y-73198049D01*
X171422932Y-73198049D02*
X171470551Y-73150430D01*
X171470551Y-73150430D02*
X171422932Y-73102811D01*
X171422932Y-73102811D02*
X171422932Y-73198049D01*
X171899122Y-73436144D02*
X171899122Y-74102811D01*
X171899122Y-73531382D02*
X171946741Y-73483763D01*
X171946741Y-73483763D02*
X172041979Y-73436144D01*
X172041979Y-73436144D02*
X172184836Y-73436144D01*
X172184836Y-73436144D02*
X172280074Y-73483763D01*
X172280074Y-73483763D02*
X172327693Y-73579001D01*
X172327693Y-73579001D02*
X172327693Y-74102811D01*
X172756265Y-74055192D02*
X172851503Y-74102811D01*
X172851503Y-74102811D02*
X173041979Y-74102811D01*
X173041979Y-74102811D02*
X173137217Y-74055192D01*
X173137217Y-74055192D02*
X173184836Y-73959953D01*
X173184836Y-73959953D02*
X173184836Y-73912334D01*
X173184836Y-73912334D02*
X173137217Y-73817096D01*
X173137217Y-73817096D02*
X173041979Y-73769477D01*
X173041979Y-73769477D02*
X172899122Y-73769477D01*
X172899122Y-73769477D02*
X172803884Y-73721858D01*
X172803884Y-73721858D02*
X172756265Y-73626620D01*
X172756265Y-73626620D02*
X172756265Y-73579001D01*
X172756265Y-73579001D02*
X172803884Y-73483763D01*
X172803884Y-73483763D02*
X172899122Y-73436144D01*
X172899122Y-73436144D02*
X173041979Y-73436144D01*
X173041979Y-73436144D02*
X173137217Y-73483763D01*
X161565789Y-75331802D02*
X162327694Y-75331802D01*
X163851503Y-74712755D02*
X163851503Y-75427040D01*
X163851503Y-75427040D02*
X163803884Y-75569897D01*
X163803884Y-75569897D02*
X163708646Y-75665136D01*
X163708646Y-75665136D02*
X163565789Y-75712755D01*
X163565789Y-75712755D02*
X163470551Y-75712755D01*
X164280075Y-74807993D02*
X164327694Y-74760374D01*
X164327694Y-74760374D02*
X164422932Y-74712755D01*
X164422932Y-74712755D02*
X164661027Y-74712755D01*
X164661027Y-74712755D02*
X164756265Y-74760374D01*
X164756265Y-74760374D02*
X164803884Y-74807993D01*
X164803884Y-74807993D02*
X164851503Y-74903231D01*
X164851503Y-74903231D02*
X164851503Y-74998469D01*
X164851503Y-74998469D02*
X164803884Y-75141326D01*
X164803884Y-75141326D02*
X164232456Y-75712755D01*
X164232456Y-75712755D02*
X164851503Y-75712755D01*
X165280075Y-75617516D02*
X165327694Y-75665136D01*
X165327694Y-75665136D02*
X165280075Y-75712755D01*
X165280075Y-75712755D02*
X165232456Y-75665136D01*
X165232456Y-75665136D02*
X165280075Y-75617516D01*
X165280075Y-75617516D02*
X165280075Y-75712755D01*
X165280075Y-75093707D02*
X165327694Y-75141326D01*
X165327694Y-75141326D02*
X165280075Y-75188945D01*
X165280075Y-75188945D02*
X165232456Y-75141326D01*
X165232456Y-75141326D02*
X165280075Y-75093707D01*
X165280075Y-75093707D02*
X165280075Y-75188945D01*
X167041979Y-74760374D02*
X166946741Y-74712755D01*
X166946741Y-74712755D02*
X166803884Y-74712755D01*
X166803884Y-74712755D02*
X166661027Y-74760374D01*
X166661027Y-74760374D02*
X166565789Y-74855612D01*
X166565789Y-74855612D02*
X166518170Y-74950850D01*
X166518170Y-74950850D02*
X166470551Y-75141326D01*
X166470551Y-75141326D02*
X166470551Y-75284183D01*
X166470551Y-75284183D02*
X166518170Y-75474659D01*
X166518170Y-75474659D02*
X166565789Y-75569897D01*
X166565789Y-75569897D02*
X166661027Y-75665136D01*
X166661027Y-75665136D02*
X166803884Y-75712755D01*
X166803884Y-75712755D02*
X166899122Y-75712755D01*
X166899122Y-75712755D02*
X167041979Y-75665136D01*
X167041979Y-75665136D02*
X167089598Y-75617516D01*
X167089598Y-75617516D02*
X167089598Y-75284183D01*
X167089598Y-75284183D02*
X166899122Y-75284183D01*
X167518170Y-75712755D02*
X167518170Y-74712755D01*
X167518170Y-74712755D02*
X168089598Y-75712755D01*
X168089598Y-75712755D02*
X168089598Y-74712755D01*
X168565789Y-75712755D02*
X168565789Y-74712755D01*
X168565789Y-74712755D02*
X168803884Y-74712755D01*
X168803884Y-74712755D02*
X168946741Y-74760374D01*
X168946741Y-74760374D02*
X169041979Y-74855612D01*
X169041979Y-74855612D02*
X169089598Y-74950850D01*
X169089598Y-74950850D02*
X169137217Y-75141326D01*
X169137217Y-75141326D02*
X169137217Y-75284183D01*
X169137217Y-75284183D02*
X169089598Y-75474659D01*
X169089598Y-75474659D02*
X169041979Y-75569897D01*
X169041979Y-75569897D02*
X168946741Y-75665136D01*
X168946741Y-75665136D02*
X168803884Y-75712755D01*
X168803884Y-75712755D02*
X168565789Y-75712755D01*
X170327694Y-75046088D02*
X170327694Y-76046088D01*
X170327694Y-75093707D02*
X170422932Y-75046088D01*
X170422932Y-75046088D02*
X170613408Y-75046088D01*
X170613408Y-75046088D02*
X170708646Y-75093707D01*
X170708646Y-75093707D02*
X170756265Y-75141326D01*
X170756265Y-75141326D02*
X170803884Y-75236564D01*
X170803884Y-75236564D02*
X170803884Y-75522278D01*
X170803884Y-75522278D02*
X170756265Y-75617516D01*
X170756265Y-75617516D02*
X170708646Y-75665136D01*
X170708646Y-75665136D02*
X170613408Y-75712755D01*
X170613408Y-75712755D02*
X170422932Y-75712755D01*
X170422932Y-75712755D02*
X170327694Y-75665136D01*
X171232456Y-75712755D02*
X171232456Y-75046088D01*
X171232456Y-74712755D02*
X171184837Y-74760374D01*
X171184837Y-74760374D02*
X171232456Y-74807993D01*
X171232456Y-74807993D02*
X171280075Y-74760374D01*
X171280075Y-74760374D02*
X171232456Y-74712755D01*
X171232456Y-74712755D02*
X171232456Y-74807993D01*
X171708646Y-75046088D02*
X171708646Y-75712755D01*
X171708646Y-75141326D02*
X171756265Y-75093707D01*
X171756265Y-75093707D02*
X171851503Y-75046088D01*
X171851503Y-75046088D02*
X171994360Y-75046088D01*
X171994360Y-75046088D02*
X172089598Y-75093707D01*
X172089598Y-75093707D02*
X172137217Y-75188945D01*
X172137217Y-75188945D02*
X172137217Y-75712755D01*
X172565789Y-75665136D02*
X172661027Y-75712755D01*
X172661027Y-75712755D02*
X172851503Y-75712755D01*
X172851503Y-75712755D02*
X172946741Y-75665136D01*
X172946741Y-75665136D02*
X172994360Y-75569897D01*
X172994360Y-75569897D02*
X172994360Y-75522278D01*
X172994360Y-75522278D02*
X172946741Y-75427040D01*
X172946741Y-75427040D02*
X172851503Y-75379421D01*
X172851503Y-75379421D02*
X172708646Y-75379421D01*
X172708646Y-75379421D02*
X172613408Y-75331802D01*
X172613408Y-75331802D02*
X172565789Y-75236564D01*
X172565789Y-75236564D02*
X172565789Y-75188945D01*
X172565789Y-75188945D02*
X172613408Y-75093707D01*
X172613408Y-75093707D02*
X172708646Y-75046088D01*
X172708646Y-75046088D02*
X172851503Y-75046088D01*
X172851503Y-75046088D02*
X172946741Y-75093707D01*
X161565789Y-76941746D02*
X162327694Y-76941746D01*
X163851503Y-76322699D02*
X163851503Y-77036984D01*
X163851503Y-77036984D02*
X163803884Y-77179841D01*
X163803884Y-77179841D02*
X163708646Y-77275080D01*
X163708646Y-77275080D02*
X163565789Y-77322699D01*
X163565789Y-77322699D02*
X163470551Y-77322699D01*
X164232456Y-76322699D02*
X164851503Y-76322699D01*
X164851503Y-76322699D02*
X164518170Y-76703651D01*
X164518170Y-76703651D02*
X164661027Y-76703651D01*
X164661027Y-76703651D02*
X164756265Y-76751270D01*
X164756265Y-76751270D02*
X164803884Y-76798889D01*
X164803884Y-76798889D02*
X164851503Y-76894127D01*
X164851503Y-76894127D02*
X164851503Y-77132222D01*
X164851503Y-77132222D02*
X164803884Y-77227460D01*
X164803884Y-77227460D02*
X164756265Y-77275080D01*
X164756265Y-77275080D02*
X164661027Y-77322699D01*
X164661027Y-77322699D02*
X164375313Y-77322699D01*
X164375313Y-77322699D02*
X164280075Y-77275080D01*
X164280075Y-77275080D02*
X164232456Y-77227460D01*
X165280075Y-77227460D02*
X165327694Y-77275080D01*
X165327694Y-77275080D02*
X165280075Y-77322699D01*
X165280075Y-77322699D02*
X165232456Y-77275080D01*
X165232456Y-77275080D02*
X165280075Y-77227460D01*
X165280075Y-77227460D02*
X165280075Y-77322699D01*
X165280075Y-76703651D02*
X165327694Y-76751270D01*
X165327694Y-76751270D02*
X165280075Y-76798889D01*
X165280075Y-76798889D02*
X165232456Y-76751270D01*
X165232456Y-76751270D02*
X165280075Y-76703651D01*
X165280075Y-76703651D02*
X165280075Y-76798889D01*
X166994360Y-76322699D02*
X166518170Y-76322699D01*
X166518170Y-76322699D02*
X166470551Y-76798889D01*
X166470551Y-76798889D02*
X166518170Y-76751270D01*
X166518170Y-76751270D02*
X166613408Y-76703651D01*
X166613408Y-76703651D02*
X166851503Y-76703651D01*
X166851503Y-76703651D02*
X166946741Y-76751270D01*
X166946741Y-76751270D02*
X166994360Y-76798889D01*
X166994360Y-76798889D02*
X167041979Y-76894127D01*
X167041979Y-76894127D02*
X167041979Y-77132222D01*
X167041979Y-77132222D02*
X166994360Y-77227460D01*
X166994360Y-77227460D02*
X166946741Y-77275080D01*
X166946741Y-77275080D02*
X166851503Y-77322699D01*
X166851503Y-77322699D02*
X166613408Y-77322699D01*
X166613408Y-77322699D02*
X166518170Y-77275080D01*
X166518170Y-77275080D02*
X166470551Y-77227460D01*
X167327694Y-76322699D02*
X167661027Y-77322699D01*
X167661027Y-77322699D02*
X167994360Y-76322699D01*
X169089599Y-76656032D02*
X169089599Y-77656032D01*
X169089599Y-76703651D02*
X169184837Y-76656032D01*
X169184837Y-76656032D02*
X169375313Y-76656032D01*
X169375313Y-76656032D02*
X169470551Y-76703651D01*
X169470551Y-76703651D02*
X169518170Y-76751270D01*
X169518170Y-76751270D02*
X169565789Y-76846508D01*
X169565789Y-76846508D02*
X169565789Y-77132222D01*
X169565789Y-77132222D02*
X169518170Y-77227460D01*
X169518170Y-77227460D02*
X169470551Y-77275080D01*
X169470551Y-77275080D02*
X169375313Y-77322699D01*
X169375313Y-77322699D02*
X169184837Y-77322699D01*
X169184837Y-77322699D02*
X169089599Y-77275080D01*
X169994361Y-77322699D02*
X169994361Y-76656032D01*
X169994361Y-76322699D02*
X169946742Y-76370318D01*
X169946742Y-76370318D02*
X169994361Y-76417937D01*
X169994361Y-76417937D02*
X170041980Y-76370318D01*
X170041980Y-76370318D02*
X169994361Y-76322699D01*
X169994361Y-76322699D02*
X169994361Y-76417937D01*
X170470551Y-76656032D02*
X170470551Y-77322699D01*
X170470551Y-76751270D02*
X170518170Y-76703651D01*
X170518170Y-76703651D02*
X170613408Y-76656032D01*
X170613408Y-76656032D02*
X170756265Y-76656032D01*
X170756265Y-76656032D02*
X170851503Y-76703651D01*
X170851503Y-76703651D02*
X170899122Y-76798889D01*
X170899122Y-76798889D02*
X170899122Y-77322699D01*
X171327694Y-77275080D02*
X171422932Y-77322699D01*
X171422932Y-77322699D02*
X171613408Y-77322699D01*
X171613408Y-77322699D02*
X171708646Y-77275080D01*
X171708646Y-77275080D02*
X171756265Y-77179841D01*
X171756265Y-77179841D02*
X171756265Y-77132222D01*
X171756265Y-77132222D02*
X171708646Y-77036984D01*
X171708646Y-77036984D02*
X171613408Y-76989365D01*
X171613408Y-76989365D02*
X171470551Y-76989365D01*
X171470551Y-76989365D02*
X171375313Y-76941746D01*
X171375313Y-76941746D02*
X171327694Y-76846508D01*
X171327694Y-76846508D02*
X171327694Y-76798889D01*
X171327694Y-76798889D02*
X171375313Y-76703651D01*
X171375313Y-76703651D02*
X171470551Y-76656032D01*
X171470551Y-76656032D02*
X171613408Y-76656032D01*
X171613408Y-76656032D02*
X171708646Y-76703651D01*
X160803884Y-80018777D02*
X161137217Y-80018777D01*
X161280074Y-80542587D02*
X160803884Y-80542587D01*
X160803884Y-80542587D02*
X160803884Y-79542587D01*
X160803884Y-79542587D02*
X161280074Y-79542587D01*
X161613408Y-80542587D02*
X162137217Y-79875920D01*
X161613408Y-79875920D02*
X162137217Y-80542587D01*
X162375313Y-79875920D02*
X162756265Y-79875920D01*
X162518170Y-79542587D02*
X162518170Y-80399729D01*
X162518170Y-80399729D02*
X162565789Y-80494968D01*
X162565789Y-80494968D02*
X162661027Y-80542587D01*
X162661027Y-80542587D02*
X162756265Y-80542587D01*
X163470551Y-80494968D02*
X163375313Y-80542587D01*
X163375313Y-80542587D02*
X163184837Y-80542587D01*
X163184837Y-80542587D02*
X163089599Y-80494968D01*
X163089599Y-80494968D02*
X163041980Y-80399729D01*
X163041980Y-80399729D02*
X163041980Y-80018777D01*
X163041980Y-80018777D02*
X163089599Y-79923539D01*
X163089599Y-79923539D02*
X163184837Y-79875920D01*
X163184837Y-79875920D02*
X163375313Y-79875920D01*
X163375313Y-79875920D02*
X163470551Y-79923539D01*
X163470551Y-79923539D02*
X163518170Y-80018777D01*
X163518170Y-80018777D02*
X163518170Y-80114015D01*
X163518170Y-80114015D02*
X163041980Y-80209253D01*
X163946742Y-79875920D02*
X163946742Y-80542587D01*
X163946742Y-79971158D02*
X163994361Y-79923539D01*
X163994361Y-79923539D02*
X164089599Y-79875920D01*
X164089599Y-79875920D02*
X164232456Y-79875920D01*
X164232456Y-79875920D02*
X164327694Y-79923539D01*
X164327694Y-79923539D02*
X164375313Y-80018777D01*
X164375313Y-80018777D02*
X164375313Y-80542587D01*
X164803885Y-80494968D02*
X164899123Y-80542587D01*
X164899123Y-80542587D02*
X165089599Y-80542587D01*
X165089599Y-80542587D02*
X165184837Y-80494968D01*
X165184837Y-80494968D02*
X165232456Y-80399729D01*
X165232456Y-80399729D02*
X165232456Y-80352110D01*
X165232456Y-80352110D02*
X165184837Y-80256872D01*
X165184837Y-80256872D02*
X165089599Y-80209253D01*
X165089599Y-80209253D02*
X164946742Y-80209253D01*
X164946742Y-80209253D02*
X164851504Y-80161634D01*
X164851504Y-80161634D02*
X164803885Y-80066396D01*
X164803885Y-80066396D02*
X164803885Y-80018777D01*
X164803885Y-80018777D02*
X164851504Y-79923539D01*
X164851504Y-79923539D02*
X164946742Y-79875920D01*
X164946742Y-79875920D02*
X165089599Y-79875920D01*
X165089599Y-79875920D02*
X165184837Y-79923539D01*
X165661028Y-80542587D02*
X165661028Y-79875920D01*
X165661028Y-79542587D02*
X165613409Y-79590206D01*
X165613409Y-79590206D02*
X165661028Y-79637825D01*
X165661028Y-79637825D02*
X165708647Y-79590206D01*
X165708647Y-79590206D02*
X165661028Y-79542587D01*
X165661028Y-79542587D02*
X165661028Y-79637825D01*
X166280075Y-80542587D02*
X166184837Y-80494968D01*
X166184837Y-80494968D02*
X166137218Y-80447348D01*
X166137218Y-80447348D02*
X166089599Y-80352110D01*
X166089599Y-80352110D02*
X166089599Y-80066396D01*
X166089599Y-80066396D02*
X166137218Y-79971158D01*
X166137218Y-79971158D02*
X166184837Y-79923539D01*
X166184837Y-79923539D02*
X166280075Y-79875920D01*
X166280075Y-79875920D02*
X166422932Y-79875920D01*
X166422932Y-79875920D02*
X166518170Y-79923539D01*
X166518170Y-79923539D02*
X166565789Y-79971158D01*
X166565789Y-79971158D02*
X166613408Y-80066396D01*
X166613408Y-80066396D02*
X166613408Y-80352110D01*
X166613408Y-80352110D02*
X166565789Y-80447348D01*
X166565789Y-80447348D02*
X166518170Y-80494968D01*
X166518170Y-80494968D02*
X166422932Y-80542587D01*
X166422932Y-80542587D02*
X166280075Y-80542587D01*
X167041980Y-79875920D02*
X167041980Y-80542587D01*
X167041980Y-79971158D02*
X167089599Y-79923539D01*
X167089599Y-79923539D02*
X167184837Y-79875920D01*
X167184837Y-79875920D02*
X167327694Y-79875920D01*
X167327694Y-79875920D02*
X167422932Y-79923539D01*
X167422932Y-79923539D02*
X167470551Y-80018777D01*
X167470551Y-80018777D02*
X167470551Y-80542587D01*
X168708647Y-80542587D02*
X168708647Y-79542587D01*
X168708647Y-80018777D02*
X169280075Y-80018777D01*
X169280075Y-80542587D02*
X169280075Y-79542587D01*
X170137218Y-80494968D02*
X170041980Y-80542587D01*
X170041980Y-80542587D02*
X169851504Y-80542587D01*
X169851504Y-80542587D02*
X169756266Y-80494968D01*
X169756266Y-80494968D02*
X169708647Y-80399729D01*
X169708647Y-80399729D02*
X169708647Y-80018777D01*
X169708647Y-80018777D02*
X169756266Y-79923539D01*
X169756266Y-79923539D02*
X169851504Y-79875920D01*
X169851504Y-79875920D02*
X170041980Y-79875920D01*
X170041980Y-79875920D02*
X170137218Y-79923539D01*
X170137218Y-79923539D02*
X170184837Y-80018777D01*
X170184837Y-80018777D02*
X170184837Y-80114015D01*
X170184837Y-80114015D02*
X169708647Y-80209253D01*
X171041980Y-80542587D02*
X171041980Y-80018777D01*
X171041980Y-80018777D02*
X170994361Y-79923539D01*
X170994361Y-79923539D02*
X170899123Y-79875920D01*
X170899123Y-79875920D02*
X170708647Y-79875920D01*
X170708647Y-79875920D02*
X170613409Y-79923539D01*
X171041980Y-80494968D02*
X170946742Y-80542587D01*
X170946742Y-80542587D02*
X170708647Y-80542587D01*
X170708647Y-80542587D02*
X170613409Y-80494968D01*
X170613409Y-80494968D02*
X170565790Y-80399729D01*
X170565790Y-80399729D02*
X170565790Y-80304491D01*
X170565790Y-80304491D02*
X170613409Y-80209253D01*
X170613409Y-80209253D02*
X170708647Y-80161634D01*
X170708647Y-80161634D02*
X170946742Y-80161634D01*
X170946742Y-80161634D02*
X171041980Y-80114015D01*
X171946742Y-80542587D02*
X171946742Y-79542587D01*
X171946742Y-80494968D02*
X171851504Y-80542587D01*
X171851504Y-80542587D02*
X171661028Y-80542587D01*
X171661028Y-80542587D02*
X171565790Y-80494968D01*
X171565790Y-80494968D02*
X171518171Y-80447348D01*
X171518171Y-80447348D02*
X171470552Y-80352110D01*
X171470552Y-80352110D02*
X171470552Y-80066396D01*
X171470552Y-80066396D02*
X171518171Y-79971158D01*
X171518171Y-79971158D02*
X171565790Y-79923539D01*
X171565790Y-79923539D02*
X171661028Y-79875920D01*
X171661028Y-79875920D02*
X171851504Y-79875920D01*
X171851504Y-79875920D02*
X171946742Y-79923539D01*
X172803885Y-80494968D02*
X172708647Y-80542587D01*
X172708647Y-80542587D02*
X172518171Y-80542587D01*
X172518171Y-80542587D02*
X172422933Y-80494968D01*
X172422933Y-80494968D02*
X172375314Y-80399729D01*
X172375314Y-80399729D02*
X172375314Y-80018777D01*
X172375314Y-80018777D02*
X172422933Y-79923539D01*
X172422933Y-79923539D02*
X172518171Y-79875920D01*
X172518171Y-79875920D02*
X172708647Y-79875920D01*
X172708647Y-79875920D02*
X172803885Y-79923539D01*
X172803885Y-79923539D02*
X172851504Y-80018777D01*
X172851504Y-80018777D02*
X172851504Y-80114015D01*
X172851504Y-80114015D02*
X172375314Y-80209253D01*
X173280076Y-80542587D02*
X173280076Y-79875920D01*
X173280076Y-80066396D02*
X173327695Y-79971158D01*
X173327695Y-79971158D02*
X173375314Y-79923539D01*
X173375314Y-79923539D02*
X173470552Y-79875920D01*
X173470552Y-79875920D02*
X173565790Y-79875920D01*
X173851505Y-80494968D02*
X173946743Y-80542587D01*
X173946743Y-80542587D02*
X174137219Y-80542587D01*
X174137219Y-80542587D02*
X174232457Y-80494968D01*
X174232457Y-80494968D02*
X174280076Y-80399729D01*
X174280076Y-80399729D02*
X174280076Y-80352110D01*
X174280076Y-80352110D02*
X174232457Y-80256872D01*
X174232457Y-80256872D02*
X174137219Y-80209253D01*
X174137219Y-80209253D02*
X173994362Y-80209253D01*
X173994362Y-80209253D02*
X173899124Y-80161634D01*
X173899124Y-80161634D02*
X173851505Y-80066396D01*
X173851505Y-80066396D02*
X173851505Y-80018777D01*
X173851505Y-80018777D02*
X173899124Y-79923539D01*
X173899124Y-79923539D02*
X173994362Y-79875920D01*
X173994362Y-79875920D02*
X174137219Y-79875920D01*
X174137219Y-79875920D02*
X174232457Y-79923539D01*
X174708648Y-80447348D02*
X174756267Y-80494968D01*
X174756267Y-80494968D02*
X174708648Y-80542587D01*
X174708648Y-80542587D02*
X174661029Y-80494968D01*
X174661029Y-80494968D02*
X174708648Y-80447348D01*
X174708648Y-80447348D02*
X174708648Y-80542587D01*
X174708648Y-79923539D02*
X174756267Y-79971158D01*
X174756267Y-79971158D02*
X174708648Y-80018777D01*
X174708648Y-80018777D02*
X174661029Y-79971158D01*
X174661029Y-79971158D02*
X174708648Y-79923539D01*
X174708648Y-79923539D02*
X174708648Y-80018777D01*
X161565789Y-81771578D02*
X162327694Y-81771578D01*
X163851503Y-81152531D02*
X163851503Y-81866816D01*
X163851503Y-81866816D02*
X163803884Y-82009673D01*
X163803884Y-82009673D02*
X163708646Y-82104912D01*
X163708646Y-82104912D02*
X163565789Y-82152531D01*
X163565789Y-82152531D02*
X163470551Y-82152531D01*
X164756265Y-81485864D02*
X164756265Y-82152531D01*
X164518170Y-81104912D02*
X164280075Y-81819197D01*
X164280075Y-81819197D02*
X164899122Y-81819197D01*
X165280075Y-82057292D02*
X165327694Y-82104912D01*
X165327694Y-82104912D02*
X165280075Y-82152531D01*
X165280075Y-82152531D02*
X165232456Y-82104912D01*
X165232456Y-82104912D02*
X165280075Y-82057292D01*
X165280075Y-82057292D02*
X165280075Y-82152531D01*
X165280075Y-81533483D02*
X165327694Y-81581102D01*
X165327694Y-81581102D02*
X165280075Y-81628721D01*
X165280075Y-81628721D02*
X165232456Y-81581102D01*
X165232456Y-81581102D02*
X165280075Y-81533483D01*
X165280075Y-81533483D02*
X165280075Y-81628721D01*
X166422932Y-81152531D02*
X167041979Y-81152531D01*
X167041979Y-81152531D02*
X166708646Y-81533483D01*
X166708646Y-81533483D02*
X166851503Y-81533483D01*
X166851503Y-81533483D02*
X166946741Y-81581102D01*
X166946741Y-81581102D02*
X166994360Y-81628721D01*
X166994360Y-81628721D02*
X167041979Y-81723959D01*
X167041979Y-81723959D02*
X167041979Y-81962054D01*
X167041979Y-81962054D02*
X166994360Y-82057292D01*
X166994360Y-82057292D02*
X166946741Y-82104912D01*
X166946741Y-82104912D02*
X166851503Y-82152531D01*
X166851503Y-82152531D02*
X166565789Y-82152531D01*
X166565789Y-82152531D02*
X166470551Y-82104912D01*
X166470551Y-82104912D02*
X166422932Y-82057292D01*
X167470551Y-82057292D02*
X167518170Y-82104912D01*
X167518170Y-82104912D02*
X167470551Y-82152531D01*
X167470551Y-82152531D02*
X167422932Y-82104912D01*
X167422932Y-82104912D02*
X167470551Y-82057292D01*
X167470551Y-82057292D02*
X167470551Y-82152531D01*
X167851503Y-81152531D02*
X168470550Y-81152531D01*
X168470550Y-81152531D02*
X168137217Y-81533483D01*
X168137217Y-81533483D02*
X168280074Y-81533483D01*
X168280074Y-81533483D02*
X168375312Y-81581102D01*
X168375312Y-81581102D02*
X168422931Y-81628721D01*
X168422931Y-81628721D02*
X168470550Y-81723959D01*
X168470550Y-81723959D02*
X168470550Y-81962054D01*
X168470550Y-81962054D02*
X168422931Y-82057292D01*
X168422931Y-82057292D02*
X168375312Y-82104912D01*
X168375312Y-82104912D02*
X168280074Y-82152531D01*
X168280074Y-82152531D02*
X167994360Y-82152531D01*
X167994360Y-82152531D02*
X167899122Y-82104912D01*
X167899122Y-82104912D02*
X167851503Y-82057292D01*
X168756265Y-81152531D02*
X169089598Y-82152531D01*
X169089598Y-82152531D02*
X169422931Y-81152531D01*
X170518170Y-81485864D02*
X170518170Y-82485864D01*
X170518170Y-81533483D02*
X170613408Y-81485864D01*
X170613408Y-81485864D02*
X170803884Y-81485864D01*
X170803884Y-81485864D02*
X170899122Y-81533483D01*
X170899122Y-81533483D02*
X170946741Y-81581102D01*
X170946741Y-81581102D02*
X170994360Y-81676340D01*
X170994360Y-81676340D02*
X170994360Y-81962054D01*
X170994360Y-81962054D02*
X170946741Y-82057292D01*
X170946741Y-82057292D02*
X170899122Y-82104912D01*
X170899122Y-82104912D02*
X170803884Y-82152531D01*
X170803884Y-82152531D02*
X170613408Y-82152531D01*
X170613408Y-82152531D02*
X170518170Y-82104912D01*
X171422932Y-82152531D02*
X171422932Y-81485864D01*
X171422932Y-81152531D02*
X171375313Y-81200150D01*
X171375313Y-81200150D02*
X171422932Y-81247769D01*
X171422932Y-81247769D02*
X171470551Y-81200150D01*
X171470551Y-81200150D02*
X171422932Y-81152531D01*
X171422932Y-81152531D02*
X171422932Y-81247769D01*
X171899122Y-81485864D02*
X171899122Y-82152531D01*
X171899122Y-81581102D02*
X171946741Y-81533483D01*
X171946741Y-81533483D02*
X172041979Y-81485864D01*
X172041979Y-81485864D02*
X172184836Y-81485864D01*
X172184836Y-81485864D02*
X172280074Y-81533483D01*
X172280074Y-81533483D02*
X172327693Y-81628721D01*
X172327693Y-81628721D02*
X172327693Y-82152531D01*
X172756265Y-82104912D02*
X172851503Y-82152531D01*
X172851503Y-82152531D02*
X173041979Y-82152531D01*
X173041979Y-82152531D02*
X173137217Y-82104912D01*
X173137217Y-82104912D02*
X173184836Y-82009673D01*
X173184836Y-82009673D02*
X173184836Y-81962054D01*
X173184836Y-81962054D02*
X173137217Y-81866816D01*
X173137217Y-81866816D02*
X173041979Y-81819197D01*
X173041979Y-81819197D02*
X172899122Y-81819197D01*
X172899122Y-81819197D02*
X172803884Y-81771578D01*
X172803884Y-81771578D02*
X172756265Y-81676340D01*
X172756265Y-81676340D02*
X172756265Y-81628721D01*
X172756265Y-81628721D02*
X172803884Y-81533483D01*
X172803884Y-81533483D02*
X172899122Y-81485864D01*
X172899122Y-81485864D02*
X173041979Y-81485864D01*
X173041979Y-81485864D02*
X173137217Y-81533483D01*
X161565789Y-83381522D02*
X162327694Y-83381522D01*
X163851503Y-82762475D02*
X163851503Y-83476760D01*
X163851503Y-83476760D02*
X163803884Y-83619617D01*
X163803884Y-83619617D02*
X163708646Y-83714856D01*
X163708646Y-83714856D02*
X163565789Y-83762475D01*
X163565789Y-83762475D02*
X163470551Y-83762475D01*
X164803884Y-82762475D02*
X164327694Y-82762475D01*
X164327694Y-82762475D02*
X164280075Y-83238665D01*
X164280075Y-83238665D02*
X164327694Y-83191046D01*
X164327694Y-83191046D02*
X164422932Y-83143427D01*
X164422932Y-83143427D02*
X164661027Y-83143427D01*
X164661027Y-83143427D02*
X164756265Y-83191046D01*
X164756265Y-83191046D02*
X164803884Y-83238665D01*
X164803884Y-83238665D02*
X164851503Y-83333903D01*
X164851503Y-83333903D02*
X164851503Y-83571998D01*
X164851503Y-83571998D02*
X164803884Y-83667236D01*
X164803884Y-83667236D02*
X164756265Y-83714856D01*
X164756265Y-83714856D02*
X164661027Y-83762475D01*
X164661027Y-83762475D02*
X164422932Y-83762475D01*
X164422932Y-83762475D02*
X164327694Y-83714856D01*
X164327694Y-83714856D02*
X164280075Y-83667236D01*
X165280075Y-83667236D02*
X165327694Y-83714856D01*
X165327694Y-83714856D02*
X165280075Y-83762475D01*
X165280075Y-83762475D02*
X165232456Y-83714856D01*
X165232456Y-83714856D02*
X165280075Y-83667236D01*
X165280075Y-83667236D02*
X165280075Y-83762475D01*
X165280075Y-83143427D02*
X165327694Y-83191046D01*
X165327694Y-83191046D02*
X165280075Y-83238665D01*
X165280075Y-83238665D02*
X165232456Y-83191046D01*
X165232456Y-83191046D02*
X165280075Y-83143427D01*
X165280075Y-83143427D02*
X165280075Y-83238665D01*
X167041979Y-82810094D02*
X166946741Y-82762475D01*
X166946741Y-82762475D02*
X166803884Y-82762475D01*
X166803884Y-82762475D02*
X166661027Y-82810094D01*
X166661027Y-82810094D02*
X166565789Y-82905332D01*
X166565789Y-82905332D02*
X166518170Y-83000570D01*
X166518170Y-83000570D02*
X166470551Y-83191046D01*
X166470551Y-83191046D02*
X166470551Y-83333903D01*
X166470551Y-83333903D02*
X166518170Y-83524379D01*
X166518170Y-83524379D02*
X166565789Y-83619617D01*
X166565789Y-83619617D02*
X166661027Y-83714856D01*
X166661027Y-83714856D02*
X166803884Y-83762475D01*
X166803884Y-83762475D02*
X166899122Y-83762475D01*
X166899122Y-83762475D02*
X167041979Y-83714856D01*
X167041979Y-83714856D02*
X167089598Y-83667236D01*
X167089598Y-83667236D02*
X167089598Y-83333903D01*
X167089598Y-83333903D02*
X166899122Y-83333903D01*
X167518170Y-83762475D02*
X167518170Y-82762475D01*
X167518170Y-82762475D02*
X168089598Y-83762475D01*
X168089598Y-83762475D02*
X168089598Y-82762475D01*
X168565789Y-83762475D02*
X168565789Y-82762475D01*
X168565789Y-82762475D02*
X168803884Y-82762475D01*
X168803884Y-82762475D02*
X168946741Y-82810094D01*
X168946741Y-82810094D02*
X169041979Y-82905332D01*
X169041979Y-82905332D02*
X169089598Y-83000570D01*
X169089598Y-83000570D02*
X169137217Y-83191046D01*
X169137217Y-83191046D02*
X169137217Y-83333903D01*
X169137217Y-83333903D02*
X169089598Y-83524379D01*
X169089598Y-83524379D02*
X169041979Y-83619617D01*
X169041979Y-83619617D02*
X168946741Y-83714856D01*
X168946741Y-83714856D02*
X168803884Y-83762475D01*
X168803884Y-83762475D02*
X168565789Y-83762475D01*
X170327694Y-83095808D02*
X170327694Y-84095808D01*
X170327694Y-83143427D02*
X170422932Y-83095808D01*
X170422932Y-83095808D02*
X170613408Y-83095808D01*
X170613408Y-83095808D02*
X170708646Y-83143427D01*
X170708646Y-83143427D02*
X170756265Y-83191046D01*
X170756265Y-83191046D02*
X170803884Y-83286284D01*
X170803884Y-83286284D02*
X170803884Y-83571998D01*
X170803884Y-83571998D02*
X170756265Y-83667236D01*
X170756265Y-83667236D02*
X170708646Y-83714856D01*
X170708646Y-83714856D02*
X170613408Y-83762475D01*
X170613408Y-83762475D02*
X170422932Y-83762475D01*
X170422932Y-83762475D02*
X170327694Y-83714856D01*
X171232456Y-83762475D02*
X171232456Y-83095808D01*
X171232456Y-82762475D02*
X171184837Y-82810094D01*
X171184837Y-82810094D02*
X171232456Y-82857713D01*
X171232456Y-82857713D02*
X171280075Y-82810094D01*
X171280075Y-82810094D02*
X171232456Y-82762475D01*
X171232456Y-82762475D02*
X171232456Y-82857713D01*
X171708646Y-83095808D02*
X171708646Y-83762475D01*
X171708646Y-83191046D02*
X171756265Y-83143427D01*
X171756265Y-83143427D02*
X171851503Y-83095808D01*
X171851503Y-83095808D02*
X171994360Y-83095808D01*
X171994360Y-83095808D02*
X172089598Y-83143427D01*
X172089598Y-83143427D02*
X172137217Y-83238665D01*
X172137217Y-83238665D02*
X172137217Y-83762475D01*
X172565789Y-83714856D02*
X172661027Y-83762475D01*
X172661027Y-83762475D02*
X172851503Y-83762475D01*
X172851503Y-83762475D02*
X172946741Y-83714856D01*
X172946741Y-83714856D02*
X172994360Y-83619617D01*
X172994360Y-83619617D02*
X172994360Y-83571998D01*
X172994360Y-83571998D02*
X172946741Y-83476760D01*
X172946741Y-83476760D02*
X172851503Y-83429141D01*
X172851503Y-83429141D02*
X172708646Y-83429141D01*
X172708646Y-83429141D02*
X172613408Y-83381522D01*
X172613408Y-83381522D02*
X172565789Y-83286284D01*
X172565789Y-83286284D02*
X172565789Y-83238665D01*
X172565789Y-83238665D02*
X172613408Y-83143427D01*
X172613408Y-83143427D02*
X172708646Y-83095808D01*
X172708646Y-83095808D02*
X172851503Y-83095808D01*
X172851503Y-83095808D02*
X172946741Y-83143427D01*
X161565789Y-84991466D02*
X162327694Y-84991466D01*
X163851503Y-84372419D02*
X163851503Y-85086704D01*
X163851503Y-85086704D02*
X163803884Y-85229561D01*
X163803884Y-85229561D02*
X163708646Y-85324800D01*
X163708646Y-85324800D02*
X163565789Y-85372419D01*
X163565789Y-85372419D02*
X163470551Y-85372419D01*
X164756265Y-84372419D02*
X164565789Y-84372419D01*
X164565789Y-84372419D02*
X164470551Y-84420038D01*
X164470551Y-84420038D02*
X164422932Y-84467657D01*
X164422932Y-84467657D02*
X164327694Y-84610514D01*
X164327694Y-84610514D02*
X164280075Y-84800990D01*
X164280075Y-84800990D02*
X164280075Y-85181942D01*
X164280075Y-85181942D02*
X164327694Y-85277180D01*
X164327694Y-85277180D02*
X164375313Y-85324800D01*
X164375313Y-85324800D02*
X164470551Y-85372419D01*
X164470551Y-85372419D02*
X164661027Y-85372419D01*
X164661027Y-85372419D02*
X164756265Y-85324800D01*
X164756265Y-85324800D02*
X164803884Y-85277180D01*
X164803884Y-85277180D02*
X164851503Y-85181942D01*
X164851503Y-85181942D02*
X164851503Y-84943847D01*
X164851503Y-84943847D02*
X164803884Y-84848609D01*
X164803884Y-84848609D02*
X164756265Y-84800990D01*
X164756265Y-84800990D02*
X164661027Y-84753371D01*
X164661027Y-84753371D02*
X164470551Y-84753371D01*
X164470551Y-84753371D02*
X164375313Y-84800990D01*
X164375313Y-84800990D02*
X164327694Y-84848609D01*
X164327694Y-84848609D02*
X164280075Y-84943847D01*
X165280075Y-85277180D02*
X165327694Y-85324800D01*
X165327694Y-85324800D02*
X165280075Y-85372419D01*
X165280075Y-85372419D02*
X165232456Y-85324800D01*
X165232456Y-85324800D02*
X165280075Y-85277180D01*
X165280075Y-85277180D02*
X165280075Y-85372419D01*
X165280075Y-84753371D02*
X165327694Y-84800990D01*
X165327694Y-84800990D02*
X165280075Y-84848609D01*
X165280075Y-84848609D02*
X165232456Y-84800990D01*
X165232456Y-84800990D02*
X165280075Y-84753371D01*
X165280075Y-84753371D02*
X165280075Y-84848609D01*
X166994360Y-84372419D02*
X166518170Y-84372419D01*
X166518170Y-84372419D02*
X166470551Y-84848609D01*
X166470551Y-84848609D02*
X166518170Y-84800990D01*
X166518170Y-84800990D02*
X166613408Y-84753371D01*
X166613408Y-84753371D02*
X166851503Y-84753371D01*
X166851503Y-84753371D02*
X166946741Y-84800990D01*
X166946741Y-84800990D02*
X166994360Y-84848609D01*
X166994360Y-84848609D02*
X167041979Y-84943847D01*
X167041979Y-84943847D02*
X167041979Y-85181942D01*
X167041979Y-85181942D02*
X166994360Y-85277180D01*
X166994360Y-85277180D02*
X166946741Y-85324800D01*
X166946741Y-85324800D02*
X166851503Y-85372419D01*
X166851503Y-85372419D02*
X166613408Y-85372419D01*
X166613408Y-85372419D02*
X166518170Y-85324800D01*
X166518170Y-85324800D02*
X166470551Y-85277180D01*
X167327694Y-84372419D02*
X167661027Y-85372419D01*
X167661027Y-85372419D02*
X167994360Y-84372419D01*
X169089599Y-84705752D02*
X169089599Y-85705752D01*
X169089599Y-84753371D02*
X169184837Y-84705752D01*
X169184837Y-84705752D02*
X169375313Y-84705752D01*
X169375313Y-84705752D02*
X169470551Y-84753371D01*
X169470551Y-84753371D02*
X169518170Y-84800990D01*
X169518170Y-84800990D02*
X169565789Y-84896228D01*
X169565789Y-84896228D02*
X169565789Y-85181942D01*
X169565789Y-85181942D02*
X169518170Y-85277180D01*
X169518170Y-85277180D02*
X169470551Y-85324800D01*
X169470551Y-85324800D02*
X169375313Y-85372419D01*
X169375313Y-85372419D02*
X169184837Y-85372419D01*
X169184837Y-85372419D02*
X169089599Y-85324800D01*
X169994361Y-85372419D02*
X169994361Y-84705752D01*
X169994361Y-84372419D02*
X169946742Y-84420038D01*
X169946742Y-84420038D02*
X169994361Y-84467657D01*
X169994361Y-84467657D02*
X170041980Y-84420038D01*
X170041980Y-84420038D02*
X169994361Y-84372419D01*
X169994361Y-84372419D02*
X169994361Y-84467657D01*
X170470551Y-84705752D02*
X170470551Y-85372419D01*
X170470551Y-84800990D02*
X170518170Y-84753371D01*
X170518170Y-84753371D02*
X170613408Y-84705752D01*
X170613408Y-84705752D02*
X170756265Y-84705752D01*
X170756265Y-84705752D02*
X170851503Y-84753371D01*
X170851503Y-84753371D02*
X170899122Y-84848609D01*
X170899122Y-84848609D02*
X170899122Y-85372419D01*
X171327694Y-85324800D02*
X171422932Y-85372419D01*
X171422932Y-85372419D02*
X171613408Y-85372419D01*
X171613408Y-85372419D02*
X171708646Y-85324800D01*
X171708646Y-85324800D02*
X171756265Y-85229561D01*
X171756265Y-85229561D02*
X171756265Y-85181942D01*
X171756265Y-85181942D02*
X171708646Y-85086704D01*
X171708646Y-85086704D02*
X171613408Y-85039085D01*
X171613408Y-85039085D02*
X171470551Y-85039085D01*
X171470551Y-85039085D02*
X171375313Y-84991466D01*
X171375313Y-84991466D02*
X171327694Y-84896228D01*
X171327694Y-84896228D02*
X171327694Y-84848609D01*
X171327694Y-84848609D02*
X171375313Y-84753371D01*
X171375313Y-84753371D02*
X171470551Y-84705752D01*
X171470551Y-84705752D02*
X171613408Y-84705752D01*
X171613408Y-84705752D02*
X171708646Y-84753371D01*
D11*
X112166666Y-71454819D02*
X112166666Y-72169104D01*
X112166666Y-72169104D02*
X112119047Y-72311961D01*
X112119047Y-72311961D02*
X112023809Y-72407200D01*
X112023809Y-72407200D02*
X111880952Y-72454819D01*
X111880952Y-72454819D02*
X111785714Y-72454819D01*
X113166666Y-72454819D02*
X112595238Y-72454819D01*
X112880952Y-72454819D02*
X112880952Y-71454819D01*
X112880952Y-71454819D02*
X112785714Y-71597676D01*
X112785714Y-71597676D02*
X112690476Y-71692914D01*
X112690476Y-71692914D02*
X112595238Y-71740533D01*
X112166666Y-84454819D02*
X112166666Y-85169104D01*
X112166666Y-85169104D02*
X112119047Y-85311961D01*
X112119047Y-85311961D02*
X112023809Y-85407200D01*
X112023809Y-85407200D02*
X111880952Y-85454819D01*
X111880952Y-85454819D02*
X111785714Y-85454819D01*
X112547619Y-84454819D02*
X113166666Y-84454819D01*
X113166666Y-84454819D02*
X112833333Y-84835771D01*
X112833333Y-84835771D02*
X112976190Y-84835771D01*
X112976190Y-84835771D02*
X113071428Y-84883390D01*
X113071428Y-84883390D02*
X113119047Y-84931009D01*
X113119047Y-84931009D02*
X113166666Y-85026247D01*
X113166666Y-85026247D02*
X113166666Y-85264342D01*
X113166666Y-85264342D02*
X113119047Y-85359580D01*
X113119047Y-85359580D02*
X113071428Y-85407200D01*
X113071428Y-85407200D02*
X112976190Y-85454819D01*
X112976190Y-85454819D02*
X112690476Y-85454819D01*
X112690476Y-85454819D02*
X112595238Y-85407200D01*
X112595238Y-85407200D02*
X112547619Y-85359580D01*
X112166666Y-77954819D02*
X112166666Y-78669104D01*
X112166666Y-78669104D02*
X112119047Y-78811961D01*
X112119047Y-78811961D02*
X112023809Y-78907200D01*
X112023809Y-78907200D02*
X111880952Y-78954819D01*
X111880952Y-78954819D02*
X111785714Y-78954819D01*
X112595238Y-78050057D02*
X112642857Y-78002438D01*
X112642857Y-78002438D02*
X112738095Y-77954819D01*
X112738095Y-77954819D02*
X112976190Y-77954819D01*
X112976190Y-77954819D02*
X113071428Y-78002438D01*
X113071428Y-78002438D02*
X113119047Y-78050057D01*
X113119047Y-78050057D02*
X113166666Y-78145295D01*
X113166666Y-78145295D02*
X113166666Y-78240533D01*
X113166666Y-78240533D02*
X113119047Y-78383390D01*
X113119047Y-78383390D02*
X112547619Y-78954819D01*
X112547619Y-78954819D02*
X113166666Y-78954819D01*
X136166666Y-77954819D02*
X136166666Y-78669104D01*
X136166666Y-78669104D02*
X136119047Y-78811961D01*
X136119047Y-78811961D02*
X136023809Y-78907200D01*
X136023809Y-78907200D02*
X135880952Y-78954819D01*
X135880952Y-78954819D02*
X135785714Y-78954819D01*
X137119047Y-77954819D02*
X136642857Y-77954819D01*
X136642857Y-77954819D02*
X136595238Y-78431009D01*
X136595238Y-78431009D02*
X136642857Y-78383390D01*
X136642857Y-78383390D02*
X136738095Y-78335771D01*
X136738095Y-78335771D02*
X136976190Y-78335771D01*
X136976190Y-78335771D02*
X137071428Y-78383390D01*
X137071428Y-78383390D02*
X137119047Y-78431009D01*
X137119047Y-78431009D02*
X137166666Y-78526247D01*
X137166666Y-78526247D02*
X137166666Y-78764342D01*
X137166666Y-78764342D02*
X137119047Y-78859580D01*
X137119047Y-78859580D02*
X137071428Y-78907200D01*
X137071428Y-78907200D02*
X136976190Y-78954819D01*
X136976190Y-78954819D02*
X136738095Y-78954819D01*
X136738095Y-78954819D02*
X136642857Y-78907200D01*
X136642857Y-78907200D02*
X136595238Y-78859580D01*
X136166666Y-71454819D02*
X136166666Y-72169104D01*
X136166666Y-72169104D02*
X136119047Y-72311961D01*
X136119047Y-72311961D02*
X136023809Y-72407200D01*
X136023809Y-72407200D02*
X135880952Y-72454819D01*
X135880952Y-72454819D02*
X135785714Y-72454819D01*
X137071428Y-71788152D02*
X137071428Y-72454819D01*
X136833333Y-71407200D02*
X136595238Y-72121485D01*
X136595238Y-72121485D02*
X137214285Y-72121485D01*
X136166666Y-84454819D02*
X136166666Y-85169104D01*
X136166666Y-85169104D02*
X136119047Y-85311961D01*
X136119047Y-85311961D02*
X136023809Y-85407200D01*
X136023809Y-85407200D02*
X135880952Y-85454819D01*
X135880952Y-85454819D02*
X135785714Y-85454819D01*
X137071428Y-84454819D02*
X136880952Y-84454819D01*
X136880952Y-84454819D02*
X136785714Y-84502438D01*
X136785714Y-84502438D02*
X136738095Y-84550057D01*
X136738095Y-84550057D02*
X136642857Y-84692914D01*
X136642857Y-84692914D02*
X136595238Y-84883390D01*
X136595238Y-84883390D02*
X136595238Y-85264342D01*
X136595238Y-85264342D02*
X136642857Y-85359580D01*
X136642857Y-85359580D02*
X136690476Y-85407200D01*
X136690476Y-85407200D02*
X136785714Y-85454819D01*
X136785714Y-85454819D02*
X136976190Y-85454819D01*
X136976190Y-85454819D02*
X137071428Y-85407200D01*
X137071428Y-85407200D02*
X137119047Y-85359580D01*
X137119047Y-85359580D02*
X137166666Y-85264342D01*
X137166666Y-85264342D02*
X137166666Y-85026247D01*
X137166666Y-85026247D02*
X137119047Y-84931009D01*
X137119047Y-84931009D02*
X137071428Y-84883390D01*
X137071428Y-84883390D02*
X136976190Y-84835771D01*
X136976190Y-84835771D02*
X136785714Y-84835771D01*
X136785714Y-84835771D02*
X136690476Y-84883390D01*
X136690476Y-84883390D02*
X136642857Y-84931009D01*
X136642857Y-84931009D02*
X136595238Y-85026247D01*
D12*
%TO.C,J1*%
X116770000Y-70620000D02*
X134660000Y-70620000D01*
X134660000Y-73380000D02*
X134660000Y-70620000D01*
X116770000Y-73380000D02*
X116770000Y-70620000D01*
X116770000Y-73380000D02*
X134660000Y-73380000D01*
X115500000Y-73380000D02*
X114120000Y-73380000D01*
X114120000Y-73380000D02*
X114120000Y-72000000D01*
%TO.C,J3*%
X116770000Y-83620000D02*
X134660000Y-83620000D01*
X134660000Y-86380000D02*
X134660000Y-83620000D01*
X116770000Y-86380000D02*
X116770000Y-83620000D01*
X116770000Y-86380000D02*
X134660000Y-86380000D01*
X115500000Y-86380000D02*
X114120000Y-86380000D01*
X114120000Y-86380000D02*
X114120000Y-85000000D01*
%TO.C,J2*%
X116770000Y-77120000D02*
X134660000Y-77120000D01*
X134660000Y-79880000D02*
X134660000Y-77120000D01*
X116770000Y-79880000D02*
X116770000Y-77120000D01*
X116770000Y-79880000D02*
X134660000Y-79880000D01*
X115500000Y-79880000D02*
X114120000Y-79880000D01*
X114120000Y-79880000D02*
X114120000Y-78500000D01*
%TO.C,J5*%
X140770000Y-77120000D02*
X158660000Y-77120000D01*
X158660000Y-79880000D02*
X158660000Y-77120000D01*
X140770000Y-79880000D02*
X140770000Y-77120000D01*
X140770000Y-79880000D02*
X158660000Y-79880000D01*
X139500000Y-79880000D02*
X138120000Y-79880000D01*
X138120000Y-79880000D02*
X138120000Y-78500000D01*
%TO.C,J4*%
X140770000Y-70620000D02*
X158660000Y-70620000D01*
X158660000Y-73380000D02*
X158660000Y-70620000D01*
X140770000Y-73380000D02*
X140770000Y-70620000D01*
X140770000Y-73380000D02*
X158660000Y-73380000D01*
X139500000Y-73380000D02*
X138120000Y-73380000D01*
X138120000Y-73380000D02*
X138120000Y-72000000D01*
%TO.C,J6*%
X140770000Y-83620000D02*
X158660000Y-83620000D01*
X158660000Y-86380000D02*
X158660000Y-83620000D01*
X140770000Y-86380000D02*
X140770000Y-83620000D01*
X140770000Y-86380000D02*
X158660000Y-86380000D01*
X139500000Y-86380000D02*
X138120000Y-86380000D01*
X138120000Y-86380000D02*
X138120000Y-85000000D01*
%TD*%
M02*
