M48
; DRILL file {KiCad 9.0.4} date 2025-09-14T11:53:53+0100
; FORMAT={-:-/ absolute / metric / decimal}
; #@! TF.CreationDate,2025-09-14T11:53:53+01:00
; #@! TF.GenerationSoftware,Kicad,Pcbnew,9.0.4
; #@! TF.FileFunction,Plated,1,2,PTH
FMAT,2
METRIC
; #@! TA.AperFunction,Plated,PTH,ComponentDrill
T1C1.000
%
G90
G05
T1
X115.5Y-72.0
X115.5Y-78.5
X115.5Y-85.0
X118.04Y-72.0
X118.04Y-78.5
X118.04Y-85.0
X120.58Y-72.0
X120.58Y-78.5
X120.58Y-85.0
X123.12Y-72.0
X123.12Y-78.5
X123.12Y-85.0
X125.66Y-72.0
X125.66Y-78.5
X125.66Y-85.0
X128.2Y-72.0
X128.2Y-78.5
X128.2Y-85.0
X130.74Y-72.0
X130.74Y-78.5
X130.74Y-85.0
X133.28Y-72.0
X133.28Y-78.5
X133.28Y-85.0
X139.5Y-72.0
X139.5Y-78.5
X139.5Y-85.0
X142.04Y-72.0
X142.04Y-78.5
X142.04Y-85.0
X144.58Y-72.0
X144.58Y-78.5
X144.58Y-85.0
X147.12Y-72.0
X147.12Y-78.5
X147.12Y-85.0
X149.66Y-72.0
X149.66Y-78.5
X149.66Y-85.0
X152.2Y-72.0
X152.2Y-78.5
X152.2Y-85.0
X154.74Y-72.0
X154.74Y-78.5
X154.74Y-85.0
X157.28Y-72.0
X157.28Y-78.5
X157.28Y-85.0
M30
