%TF.GenerationSoftware,KiCad,Pcbnew,9.0.4*%
%TF.CreationDate,2025-09-14T11:53:58+01:00*%
%TF.ProjectId,dc_power_headers,64635f70-6f77-4657-925f-686561646572,rev?*%
%TF.SameCoordinates,Original*%
%TF.FileFunction,Copper,L2,Bot*%
%TF.FilePolarity,Positive*%
%FSLAX46Y46*%
G04 Gerber Fmt 4.6, Leading zero omitted, Abs format (unit mm)*
G04 Created by KiCad (PCBNEW 9.0.4) date 2025-09-14 11:53:58*
%MOMM*%
%LPD*%
G01*
G04 APERTURE LIST*
%TA.AperFunction,ComponentPad*%
%ADD10C,1.700000*%
%TD*%
%TA.AperFunction,ComponentPad*%
%ADD11R,1.700000X1.700000*%
%TD*%
G04 APERTURE END LIST*
D10*
%TO.P,J1,8,Pin_8*%
%TO.N,+3.3V*%
X133280000Y-72000000D03*
%TO.P,J1,7,Pin_7*%
X130740000Y-72000000D03*
%TO.P,J1,6,Pin_6*%
X128200000Y-72000000D03*
%TO.P,J1,5,Pin_5*%
X125660000Y-72000000D03*
%TO.P,J1,4,Pin_4*%
X123120000Y-72000000D03*
%TO.P,J1,3,Pin_3*%
X120580000Y-72000000D03*
%TO.P,J1,2,Pin_2*%
X118040000Y-72000000D03*
D11*
%TO.P,J1,1,Pin_1*%
X115500000Y-72000000D03*
%TD*%
D10*
%TO.P,J3,8,Pin_8*%
%TO.N,+5V*%
X133280000Y-85000000D03*
%TO.P,J3,7,Pin_7*%
X130740000Y-85000000D03*
%TO.P,J3,6,Pin_6*%
X128200000Y-85000000D03*
%TO.P,J3,5,Pin_5*%
X125660000Y-85000000D03*
%TO.P,J3,4,Pin_4*%
X123120000Y-85000000D03*
%TO.P,J3,3,Pin_3*%
X120580000Y-85000000D03*
%TO.P,J3,2,Pin_2*%
X118040000Y-85000000D03*
D11*
%TO.P,J3,1,Pin_1*%
X115500000Y-85000000D03*
%TD*%
D10*
%TO.P,J2,8,Pin_8*%
%TO.N,GND*%
X133280000Y-78500000D03*
%TO.P,J2,7,Pin_7*%
X130740000Y-78500000D03*
%TO.P,J2,6,Pin_6*%
X128200000Y-78500000D03*
%TO.P,J2,5,Pin_5*%
X125660000Y-78500000D03*
%TO.P,J2,4,Pin_4*%
X123120000Y-78500000D03*
%TO.P,J2,3,Pin_3*%
X120580000Y-78500000D03*
%TO.P,J2,2,Pin_2*%
X118040000Y-78500000D03*
D11*
%TO.P,J2,1,Pin_1*%
X115500000Y-78500000D03*
%TD*%
D10*
%TO.P,J5,8,Pin_8*%
%TO.N,GND*%
X157280000Y-78500000D03*
%TO.P,J5,7,Pin_7*%
X154740000Y-78500000D03*
%TO.P,J5,6,Pin_6*%
X152200000Y-78500000D03*
%TO.P,J5,5,Pin_5*%
X149660000Y-78500000D03*
%TO.P,J5,4,Pin_4*%
X147120000Y-78500000D03*
%TO.P,J5,3,Pin_3*%
X144580000Y-78500000D03*
%TO.P,J5,2,Pin_2*%
X142040000Y-78500000D03*
D11*
%TO.P,J5,1,Pin_1*%
X139500000Y-78500000D03*
%TD*%
D10*
%TO.P,J4,8,Pin_8*%
%TO.N,+3.3V*%
X157280000Y-72000000D03*
%TO.P,J4,7,Pin_7*%
X154740000Y-72000000D03*
%TO.P,J4,6,Pin_6*%
X152200000Y-72000000D03*
%TO.P,J4,5,Pin_5*%
X149660000Y-72000000D03*
%TO.P,J4,4,Pin_4*%
X147120000Y-72000000D03*
%TO.P,J4,3,Pin_3*%
X144580000Y-72000000D03*
%TO.P,J4,2,Pin_2*%
X142040000Y-72000000D03*
D11*
%TO.P,J4,1,Pin_1*%
X139500000Y-72000000D03*
%TD*%
D10*
%TO.P,J6,8,Pin_8*%
%TO.N,+5V*%
X157280000Y-85000000D03*
%TO.P,J6,7,Pin_7*%
X154740000Y-85000000D03*
%TO.P,J6,6,Pin_6*%
X152200000Y-85000000D03*
%TO.P,J6,5,Pin_5*%
X149660000Y-85000000D03*
%TO.P,J6,4,Pin_4*%
X147120000Y-85000000D03*
%TO.P,J6,3,Pin_3*%
X144580000Y-85000000D03*
%TO.P,J6,2,Pin_2*%
X142040000Y-85000000D03*
D11*
%TO.P,J6,1,Pin_1*%
X139500000Y-85000000D03*
%TD*%
M02*
